<svg viewBox="0 -13.076923076923038 1061.1000000000001 732.3076923076924" fill="none" xmlns="http://www.w3.org/2000/svg" xmlns:xlink="http://www.w3.org/1999/xlink" overflow="visible" width="1061.1000000000001px" height="732.3076923076924px"><g id="Master/Scene/Friend Meeting"><g id="Master/Scene/3 Characters" transform="scale(1 1)"><g id="Master/Scene/3 Characters"><g id="Background" transform="scale(1 1)"><g id="Background/Wireframe 2"><g id="Mobile3" clip-path="url(#clip0_410_561334ff9e96-037a-487c-a85d-e363a8799c7a)"><rect id="Container" x="723" y="91" width="147" height="280" rx="8" fill="#C7D1D9"/><circle id="Touch" cx="796" cy="339" r="15" fill="white"/><g id="Camera"><circle id="Lens" cx="783" cy="108" r="2" fill="white"/><rect id="Sensor" x="790" y="106" width="21" height="4" rx="2" fill="white"/></g><g id="Rows" clip-path="url(#clip1_410_561334ff9e96-037a-487c-a85d-e363a8799c7a)"><g id="Row" clip-path="url(#clip2_410_561334ff9e96-037a-487c-a85d-e363a8799c7a)"><rect id="Container_2" x="737" y="119" width="119" height="50.7647" rx="4" fill="white"/><g id="Text Stuff" clip-path="url(#clip3_410_561334ff9e96-037a-487c-a85d-e363a8799c7a)"><rect id="Label" x="746" y="134.228" width="61" height="7.614" rx="3" fill="#C7D1D9"/><rect id="Label_2" x="746" y="146.918" width="40.9452" height="7.614" rx="3" fill="#C7D1D9"/></g><g id="Check"><circle id="Background" cx="843.282" cy="144.38" r="7" fill="#C7D1D9"/><circle id="Indicator" cx="843.282" cy="144.38" r="3" fill="#F2F2F2"/></g></g><g id="Row_2" clip-path="url(#clip4_410_561334ff9e96-037a-487c-a85d-e363a8799c7a)"><rect id="Background_2" x="737" y="178" width="119" height="37.7059" rx="4" fill="white"/><g id="Text" clip-path="url(#clip5_410_561334ff9e96-037a-487c-a85d-e363a8799c7a)"><rect id="Name" x="776" y="189.314" width="61" height="5.65701" rx="2.82851" fill="#C7D1D9"/><rect id="Name_2" x="776" y="198.742" width="40.9452" height="5.65701" rx="2.82851" fill="#C7D1D9"/></g><circle id="Avatar" cx="758" cy="196.857" r="12" fill="#C5CFD6"/></g><g id="Row_3" clip-path="url(#clip6_410_561334ff9e96-037a-487c-a85d-e363a8799c7a)"><rect id="Container_3" x="737" y="224" width="119" height="37.7059" rx="4" fill="white"/><g id="Text Stuff_2" clip-path="url(#clip7_410_561334ff9e96-037a-487c-a85d-e363a8799c7a)"><rect id="Label_3" x="746" y="235.314" width="61" height="5.65701" rx="2.82851" fill="#C7D1D9"/><rect id="Label_4" x="746" y="244.742" width="40.9452" height="5.65701" rx="2.82851" fill="#C7D1D9"/></g><g id="Check_2"><circle id="Background_3" cx="843.282" cy="242.857" r="7" fill="#C7D1D9"/><circle id="Indicator_2" cx="843.282" cy="242.857" r="3" fill="#F2F2F2"/></g></g><g id="Row_4" clip-path="url(#clip8_410_561334ff9e96-037a-487c-a85d-e363a8799c7a)"><rect id="Background_4" x="737" y="270" width="119" height="37.7059" rx="4" fill="white"/><g id="Text_2" clip-path="url(#clip9_410_561334ff9e96-037a-487c-a85d-e363a8799c7a)"><rect id="Name_3" x="776" y="281.314" width="61" height="5.65701" rx="2.82851" fill="#C7D1D9"/><rect id="Name_4" x="776" y="290.742" width="40.9452" height="5.65701" rx="2.82851" fill="#C7D1D9"/></g><circle id="Avatar_2" cx="758" cy="288.857" r="12" fill="#C5CFD6"/></g></g></g><g id="Mobile3_2" clip-path="url(#clip10_410_561334ff9e96-037a-487c-a85d-e363a8799c7a)"><rect id="Container_4" x="219" y="114" width="159" height="302" rx="8" fill="#F2F2F2"/><circle id="Touch_2" cx="298" cy="382" r="15" fill="white"/><g id="Camera_2"><circle id="Lens_2" cx="285" cy="132" r="2" fill="white"/><rect id="Sensor_2" x="292" y="130" width="21" height="4" rx="2" fill="white"/></g><g id="Rows_2" clip-path="url(#clip11_410_561334ff9e96-037a-487c-a85d-e363a8799c7a)"><g id="Row_5" clip-path="url(#clip12_410_561334ff9e96-037a-487c-a85d-e363a8799c7a)"><rect id="Background_5" x="233" y="142" width="131" height="54" rx="4" fill="white"/><g id="Text_3" clip-path="url(#clip13_410_561334ff9e96-037a-487c-a85d-e363a8799c7a)"><rect id="Name_5" x="272" y="158.2" width="73" height="8.1" rx="3" fill="#C7D1D9"/><rect id="Name_6" x="272" y="171.7" width="49" height="8.1" rx="3" fill="#C7D1D9"/></g><circle id="Avatar_3" cx="254" cy="169" r="12" fill="#C5CFD6"/></g><g id="Row_6" clip-path="url(#clip14_410_561334ff9e96-037a-487c-a85d-e363a8799c7a)"><rect id="Background_6" x="233" y="204" width="131" height="42" rx="4" fill="white"/><g id="Text_4" clip-path="url(#clip15_410_561334ff9e96-037a-487c-a85d-e363a8799c7a)"><rect id="Name_7" x="272" y="216.6" width="73" height="6.3" rx="3" fill="#C7D1D9"/><rect id="Name_8" x="272" y="227.1" width="49" height="6.3" rx="3" fill="#C7D1D9"/></g><circle id="Avatar_4" cx="254" cy="225" r="12" fill="#C5CFD6"/></g><g id="Row_7" clip-path="url(#clip16_410_561334ff9e96-037a-487c-a85d-e363a8799c7a)"><rect id="Background_7" x="233" y="254" width="131" height="42" rx="4" fill="white"/><g id="Text_5" clip-path="url(#clip17_410_561334ff9e96-037a-487c-a85d-e363a8799c7a)"><rect id="Name_9" x="272" y="266.6" width="73" height="6.3" rx="3" fill="#C7D1D9"/><rect id="Name_10" x="272" y="277.1" width="49" height="6.3" rx="3" fill="#C7D1D9"/></g><circle id="Avatar_5" cx="254" cy="275" r="12" fill="#AFB9C5"/></g><g id="Row_8" clip-path="url(#clip18_410_561334ff9e96-037a-487c-a85d-e363a8799c7a)"><rect id="Background_8" x="233" y="304" width="131" height="42" rx="4" fill="white"/><g id="Text_6" clip-path="url(#clip19_410_561334ff9e96-037a-487c-a85d-e363a8799c7a)"><rect id="Name_11" x="272" y="316.6" width="73" height="6.3" rx="3" fill="#C7D1D9"/><rect id="Name_12" x="272" y="327.1" width="49" height="6.3" rx="3" fill="#C7D1D9"/></g><circle id="Avatar_6" cx="254" cy="325" r="12" fill="#C5CFD6"/></g></g></g><g id="Web" clip-path="url(#clip20_410_561334ff9e96-037a-487c-a85d-e363a8799c7a)"><rect id="Container_5" x="384" y="191" width="335" height="346" rx="8" fill="#F2F2F2"/><rect id="Background_9" x="633" y="234" width="70" height="81" rx="8" fill="white"/><g id="Profile Info"><circle id="Avatar_7" cx="668" cy="265" r="16" fill="#C7D1D9"/><rect id="Name_13" x="643" y="285" width="50" height="6" rx="3" fill="#C7D1D9"/><rect id="Name_14" x="651" y="295" width="34" height="6" rx="3" fill="#C7D1D9"/></g><path id="Header" d="M384 199C384 194.582 387.582 191 392 191H711C715.418 191 719 194.582 719 199V218H384V199Z" fill="#C5CFD6"/><g id="Buttons"><circle id="buttons" cx="397" cy="205" r="4" fill="#F2F2F2"/><circle id="buttons_2" cx="409" cy="205" r="4" fill="#F2F2F2"/><circle id="buttons_3" cx="421" cy="205" r="4" fill="#F2F2F2"/></g><g id="Components" clip-path="url(#clip21_410_561334ff9e96-037a-487c-a85d-e363a8799c7a)"><rect id="Background_10" x="633" y="323" width="70" height="194" rx="8" fill="white"/><g id="Rows_3" clip-path="url(#clip22_410_561334ff9e96-037a-487c-a85d-e363a8799c7a)"><rect id="Data" x="651" y="341" width="34" height="26" rx="4" fill="#C7D1D9"/><rect id="Data_2" x="651" y="375" width="34" height="25" rx="4" fill="#AFB9C5"/><rect id="Data_3" x="651" y="408" width="34" height="25" rx="4" fill="#C7D1D9"/><rect id="Data_4" x="651" y="474" width="34" height="25" rx="4" fill="#C7D1D9"/><rect id="Data_5" x="651" y="441" width="34" height="25" rx="4" fill="#C5CFD6"/></g></g><g id="Rows_4" clip-path="url(#clip23_410_561334ff9e96-037a-487c-a85d-e363a8799c7a)"><g id="Row_9" clip-path="url(#clip24_410_561334ff9e96-037a-487c-a85d-e363a8799c7a)"><rect id="Container_6" x="400" y="235" width="225" height="47" rx="4" fill="white"/><g id="Text Stuff_3" clip-path="url(#clip25_410_561334ff9e96-037a-487c-a85d-e363a8799c7a)"><rect id="Label_5" x="409" y="249.1" width="167" height="7.05" rx="3" fill="#C7D1D9"/><rect id="Label_6" x="409" y="260.85" width="112.096" height="7.05" rx="3" fill="#C7D1D9"/></g><g id="Check_3"><circle id="Background_11" cx="600.954" cy="258.5" r="7" fill="#C7D1D9"/><circle id="Indicator_3" cx="600.954" cy="258.5" r="3" fill="#F2F2F2"/></g></g><g id="Row_10" clip-path="url(#clip26_410_561334ff9e96-037a-487c-a85d-e363a8799c7a)"><rect id="Container_7" x="400" y="290" width="225" height="39" rx="4" fill="white"/><g id="Text Stuff_4" clip-path="url(#clip27_410_561334ff9e96-037a-487c-a85d-e363a8799c7a)"><rect id="Label_7" x="409" y="301.7" width="167" height="5.85" rx="2.925" fill="#C7D1D9"/><rect id="Label_8" x="409" y="311.45" width="112.096" height="5.85" rx="2.925" fill="#C7D1D9"/></g><g id="Check_4"><circle id="Background_12" cx="600.954" cy="309.5" r="7" fill="#C7D1D9"/><circle id="Indicator_4" cx="600.954" cy="309.5" r="3" fill="#F2F2F2"/></g></g><g id="Row_11" clip-path="url(#clip28_410_561334ff9e96-037a-487c-a85d-e363a8799c7a)"><rect id="Container_8" x="400" y="337" width="225" height="39" rx="4" fill="white"/><g id="Text Stuff_5" clip-path="url(#clip29_410_561334ff9e96-037a-487c-a85d-e363a8799c7a)"><rect id="Label_9" x="409" y="348.7" width="167" height="5.85" rx="2.925" fill="#C7D1D9"/><rect id="Label_10" x="409" y="358.45" width="112.096" height="5.85" rx="2.925" fill="#C7D1D9"/></g><g id="Check_5"><circle id="Background_13" cx="600.954" cy="356.5" r="7" fill="#C7D1D9"/><circle id="Indicator_5" cx="600.954" cy="356.5" r="3" fill="#AFB9C5"/></g></g><g id="Row_12" clip-path="url(#clip30_410_561334ff9e96-037a-487c-a85d-e363a8799c7a)"><rect id="Container_9" x="400" y="478" width="225" height="39" rx="4" fill="white"/><g id="Text Stuff_6" clip-path="url(#clip31_410_561334ff9e96-037a-487c-a85d-e363a8799c7a)"><rect id="Label_11" x="409" y="489.7" width="167" height="5.85" rx="2.925" fill="#C7D1D9"/><rect id="Label_12" x="409" y="499.45" width="112.096" height="5.85" rx="2.925" fill="#C7D1D9"/></g><g id="Check_6"><circle id="Background_14" cx="600.954" cy="497.5" r="7" fill="#C7D1D9"/><circle id="Indicator_6" cx="600.954" cy="497.5" r="3" fill="#F2F2F2"/></g></g><g id="Row_13" clip-path="url(#clip32_410_561334ff9e96-037a-487c-a85d-e363a8799c7a)"><rect id="Container_10" x="400" y="431" width="225" height="39" rx="4" fill="white"/><g id="Text Stuff_7" clip-path="url(#clip33_410_561334ff9e96-037a-487c-a85d-e363a8799c7a)"><rect id="Label_13" x="409" y="442.7" width="167" height="5.85" rx="2.925" fill="#C7D1D9"/><rect id="Label_14" x="409" y="452.45" width="112.096" height="5.85" rx="2.925" fill="#C7D1D9"/></g><g id="Check_7"><circle id="Background_15" cx="600.954" cy="450.5" r="7" fill="#C7D1D9"/><circle id="Indicator_7" cx="600.954" cy="450.5" r="3" fill="#F2F2F2"/></g></g><g id="Row_14" clip-path="url(#clip34_410_561334ff9e96-037a-487c-a85d-e363a8799c7a)"><rect id="Container_11" x="400" y="384" width="225" height="39" rx="4" fill="white"/><g id="Text Stuff_8" clip-path="url(#clip35_410_561334ff9e96-037a-487c-a85d-e363a8799c7a)"><rect id="Label_15" x="409" y="395.7" width="167" height="5.85" rx="2.925" fill="#C7D1D9"/><rect id="Label_16" x="409" y="405.45" width="112.096" height="5.85" rx="2.925" fill="#C7D1D9"/></g><g id="Check_8"><circle id="Background_16" cx="600.954" cy="403.5" r="7" fill="#C7D1D9"/><circle id="Indicator_8" cx="600.954" cy="403.5" r="3" fill="#F2F2F2"/></g></g></g></g><g id="Graph"><rect id="Value" x="520" y="146" width="6" height="25" rx="3" fill="#C7D1D9"/><rect id="Value_2" x="534" y="130" width="6" height="41" rx="3" fill="#C7D1D9"/><rect id="Value_3" x="548" y="122" width="6" height="49" rx="3" fill="#C7D1D9"/><rect id="Value_4" x="562" y="130" width="6" height="41" rx="3" fill="#C7D1D9"/><rect id="Value_5" x="576" y="114" width="6" height="57" rx="3" fill="#C5CFD6"/></g><g id="Chart"><path id="Value_6" fill-rule="evenodd" clip-rule="evenodd" d="M838.766 504.179C836.845 506.219 834.123 507.5 831.095 507.5C825.278 507.5 820.562 502.799 820.562 497C820.562 491.201 825.278 486.5 831.095 486.5V467C814.546 467 801 480.503 801 497C801 513.497 814.546 527 831.095 527C839.788 527 847.645 523.334 853 517.502L838.766 504.179Z" fill="#F2F2F2"/><path id="Value_7" fill-rule="evenodd" clip-rule="evenodd" d="M831 467V486.5C836.799 486.5 841.5 491.201 841.5 497H861C861 480.503 847.497 467 831 467Z" fill="#AFB9C5"/><path id="Value_8" fill-rule="evenodd" clip-rule="evenodd" d="M841.097 497C841.097 500.407 839.492 503.435 837 505.391L849.262 521C856.399 515.412 861 506.749 861 497H841.097Z" fill="#C5CFD6"/></g><g id="Chart_2"><path id="Value_9" fill-rule="evenodd" clip-rule="evenodd" d="M170.051 259.504C168.573 261.068 166.479 262.05 164.15 262.05C159.675 262.05 156.048 258.446 156.048 254C156.048 249.554 159.675 245.95 164.15 245.95V231C151.42 231 141 241.352 141 254C141 266.648 151.42 277 164.15 277C170.837 277 176.88 274.189 181 269.718L170.051 259.504Z" fill="#F2F2F2"/><path id="Value_10" fill-rule="evenodd" clip-rule="evenodd" d="M164 231V245.95C168.446 245.95 172.05 249.554 172.05 254H187C187 241.352 176.648 231 164 231Z" fill="#AFB9C5"/><path id="Value_11" fill-rule="evenodd" clip-rule="evenodd" d="M172.073 254C172.073 256.555 170.869 258.827 169 260.293L178.196 272C183.55 267.809 187 261.312 187 254H172.073Z" fill="#C5CFD6"/></g><g id="Image"><path id="Fill 35" fill-rule="evenodd" clip-rule="evenodd" d="M866.007 240.986C866.003 240.996 865.999 241.006 865.993 241.018C865.999 241.008 866.007 240.968 866.007 240.986" fill="#C5CFD6"/><path id="Fill 37" fill-rule="evenodd" clip-rule="evenodd" d="M865.998 241.001C865.998 241.003 865.996 241.007 865.996 241.011C865.996 241.001 866.014 240.971 865.998 241.001" fill="#C5CFD6"/><path id="Fill 39" fill-rule="evenodd" clip-rule="evenodd" d="M866.067 240.832C866.053 240.872 866.035 240.91 866.019 240.95C866.027 240.93 866.035 240.914 866.043 240.894C865.835 241.414 865.967 241.076 866.067 240.832" fill="#C5CFD6"/><path id="Fill 41" fill-rule="evenodd" clip-rule="evenodd" d="M866.022 240.953C866.014 240.971 866.006 240.991 865.998 241.009C865.94 241.121 866.022 240.953 866.022 240.953" fill="#C5CFD6"/><path id="Fill 45" fill-rule="evenodd" clip-rule="evenodd" d="M865.999 241.002C865.999 241 865.999 241 866.001 240.998C865.999 241 865.999 241 865.999 241.002" fill="#C5CFD6"/><path id="Fill 47" fill-rule="evenodd" clip-rule="evenodd" d="M865.99 241.016C865.978 241.04 866.046 240.924 865.99 241.016Z" fill="#C5CFD6"/><path id="Fill 49" fill-rule="evenodd" clip-rule="evenodd" d="M865.998 241.002L866.002 240.998C866 241 866 241.002 865.998 241.002" fill="#C5CFD6"/><rect id="Photo Background" x="818" y="189" width="95" height="63" rx="4" fill="#C5CFD6"/><path id="Mountains" fill-rule="evenodd" clip-rule="evenodd" d="M854 207L826 252H882L854 207Z" fill="#AFB9C5"/><path id="Mountains_2" fill-rule="evenodd" clip-rule="evenodd" d="M881.5 219L857 252H906L881.5 219Z" fill="#AFB9C5"/><circle id="Sun" cx="892" cy="210" r="9" fill="white"/></g><g id="Image_2"><path id="Fill 35_2" fill-rule="evenodd" clip-rule="evenodd" d="M218.993 556.986C218.997 556.996 219.001 557.006 219.007 557.018C219.001 557.008 218.993 556.968 218.993 556.986" fill="#C5CFD6"/><path id="Fill 37_2" fill-rule="evenodd" clip-rule="evenodd" d="M219.002 557.001C219.002 557.003 219.004 557.007 219.004 557.011C219.004 557.001 218.986 556.971 219.002 557.001" fill="#C5CFD6"/><path id="Fill 39_2" fill-rule="evenodd" clip-rule="evenodd" d="M218.933 556.832C218.947 556.872 218.965 556.91 218.981 556.95C218.973 556.93 218.965 556.914 218.957 556.894C219.165 557.414 219.033 557.076 218.933 556.832" fill="#C5CFD6"/><path id="Fill 41_2" fill-rule="evenodd" clip-rule="evenodd" d="M218.978 556.953C218.986 556.971 218.994 556.991 219.002 557.009C219.06 557.121 218.978 556.953 218.978 556.953" fill="#C5CFD6"/><path id="Fill 45_2" fill-rule="evenodd" clip-rule="evenodd" d="M219.001 557.002C219.001 557 219.001 557 218.999 556.998C219.001 557 219.001 557 219.001 557.002" fill="#C5CFD6"/><path id="Fill 47_2" fill-rule="evenodd" clip-rule="evenodd" d="M219.01 557.016C219.022 557.04 218.954 556.924 219.01 557.016Z" fill="#C5CFD6"/><path id="Fill 49_2" fill-rule="evenodd" clip-rule="evenodd" d="M219.002 557.002L218.998 556.998C219 557 219 557.002 219.002 557.002" fill="#C5CFD6"/><rect id="Photo Background_2" width="142" height="94" rx="4" transform="matrix(-1 0 0 1 290 480)" fill="#C7D1D9"/><path id="Mountains_3" fill-rule="evenodd" clip-rule="evenodd" d="M237.274 507L278.329 574H196.219L237.274 507Z" fill="#AFB9C5"/><path id="Mountains_4" fill-rule="evenodd" clip-rule="evenodd" d="M194.944 524.947L231.239 574H158.649L194.944 524.947Z" fill="#C5CFD6"/><circle id="Sun_2" cx="13.5" cy="13.5" r="13.5" transform="matrix(-1 0 0 1 193 498)" fill="white"/></g></g><defs><clipPath id="clip0_410_561334ff9e96-037a-487c-a85d-e363a8799c7a"><rect width="147" height="280" fill="white" transform="translate(723 91)"/></clipPath><clipPath id="clip1_410_561334ff9e96-037a-487c-a85d-e363a8799c7a"><rect width="119" height="189" fill="white" transform="translate(737 119)"/></clipPath><clipPath id="clip2_410_561334ff9e96-037a-487c-a85d-e363a8799c7a"><rect width="119" height="51" fill="white" transform="translate(737 119)"/></clipPath><clipPath id="clip3_410_561334ff9e96-037a-487c-a85d-e363a8799c7a"><rect width="61" height="20.4" fill="white" transform="translate(746 134.228)"/></clipPath><clipPath id="clip4_410_561334ff9e96-037a-487c-a85d-e363a8799c7a"><rect width="119" height="38" fill="white" transform="translate(737 178)"/></clipPath><clipPath id="clip5_410_561334ff9e96-037a-487c-a85d-e363a8799c7a"><rect width="61" height="15.5897" fill="white" transform="translate(776 189.314)"/></clipPath><clipPath id="clip6_410_561334ff9e96-037a-487c-a85d-e363a8799c7a"><rect width="119" height="38" fill="white" transform="translate(737 224)"/></clipPath><clipPath id="clip7_410_561334ff9e96-037a-487c-a85d-e363a8799c7a"><rect width="61" height="15.5897" fill="white" transform="translate(746 235.314)"/></clipPath><clipPath id="clip8_410_561334ff9e96-037a-487c-a85d-e363a8799c7a"><rect width="119" height="38" fill="white" transform="translate(737 270)"/></clipPath><clipPath id="clip9_410_561334ff9e96-037a-487c-a85d-e363a8799c7a"><rect width="61" height="15.5897" fill="white" transform="translate(776 281.314)"/></clipPath><clipPath id="clip10_410_561334ff9e96-037a-487c-a85d-e363a8799c7a"><rect width="159" height="302" fill="white" transform="translate(219 114)"/></clipPath><clipPath id="clip11_410_561334ff9e96-037a-487c-a85d-e363a8799c7a"><rect width="131" height="204" fill="white" transform="translate(233 142)"/></clipPath><clipPath id="clip12_410_561334ff9e96-037a-487c-a85d-e363a8799c7a"><rect width="131" height="54" fill="white" transform="translate(233 142)"/></clipPath><clipPath id="clip13_410_561334ff9e96-037a-487c-a85d-e363a8799c7a"><rect width="73" height="21.6" fill="white" transform="translate(272 158.2)"/></clipPath><clipPath id="clip14_410_561334ff9e96-037a-487c-a85d-e363a8799c7a"><rect width="131" height="42" fill="white" transform="translate(233 204)"/></clipPath><clipPath id="clip15_410_561334ff9e96-037a-487c-a85d-e363a8799c7a"><rect width="73" height="16.8" fill="white" transform="translate(272 216.6)"/></clipPath><clipPath id="clip16_410_561334ff9e96-037a-487c-a85d-e363a8799c7a"><rect width="131" height="42" fill="white" transform="translate(233 254)"/></clipPath><clipPath id="clip17_410_561334ff9e96-037a-487c-a85d-e363a8799c7a"><rect width="73" height="16.8" fill="white" transform="translate(272 266.6)"/></clipPath><clipPath id="clip18_410_561334ff9e96-037a-487c-a85d-e363a8799c7a"><rect width="131" height="42" fill="white" transform="translate(233 304)"/></clipPath><clipPath id="clip19_410_561334ff9e96-037a-487c-a85d-e363a8799c7a"><rect width="73" height="16.8" fill="white" transform="translate(272 316.6)"/></clipPath><clipPath id="clip20_410_561334ff9e96-037a-487c-a85d-e363a8799c7a"><rect width="335" height="346" fill="white" transform="translate(384 191)"/></clipPath><clipPath id="clip21_410_561334ff9e96-037a-487c-a85d-e363a8799c7a"><rect width="70" height="194" fill="white" transform="translate(633 323)"/></clipPath><clipPath id="clip22_410_561334ff9e96-037a-487c-a85d-e363a8799c7a"><rect width="34" height="158" fill="white" transform="translate(651 341)"/></clipPath><clipPath id="clip23_410_561334ff9e96-037a-487c-a85d-e363a8799c7a"><rect width="225" height="282" fill="white" transform="translate(400 235)"/></clipPath><clipPath id="clip24_410_561334ff9e96-037a-487c-a85d-e363a8799c7a"><rect width="225" height="47" fill="white" transform="translate(400 235)"/></clipPath><clipPath id="clip25_410_561334ff9e96-037a-487c-a85d-e363a8799c7a"><rect width="167" height="18.8" fill="white" transform="translate(409 249.1)"/></clipPath><clipPath id="clip26_410_561334ff9e96-037a-487c-a85d-e363a8799c7a"><rect width="225" height="39" fill="white" transform="translate(400 290)"/></clipPath><clipPath id="clip27_410_561334ff9e96-037a-487c-a85d-e363a8799c7a"><rect width="167" height="15.6" fill="white" transform="translate(409 301.7)"/></clipPath><clipPath id="clip28_410_561334ff9e96-037a-487c-a85d-e363a8799c7a"><rect width="225" height="39" fill="white" transform="translate(400 337)"/></clipPath><clipPath id="clip29_410_561334ff9e96-037a-487c-a85d-e363a8799c7a"><rect width="167" height="15.6" fill="white" transform="translate(409 348.7)"/></clipPath><clipPath id="clip30_410_561334ff9e96-037a-487c-a85d-e363a8799c7a"><rect width="225" height="39" fill="white" transform="translate(400 478)"/></clipPath><clipPath id="clip31_410_561334ff9e96-037a-487c-a85d-e363a8799c7a"><rect width="167" height="15.6" fill="white" transform="translate(409 489.7)"/></clipPath><clipPath id="clip32_410_561334ff9e96-037a-487c-a85d-e363a8799c7a"><rect width="225" height="39" fill="white" transform="translate(400 431)"/></clipPath><clipPath id="clip33_410_561334ff9e96-037a-487c-a85d-e363a8799c7a"><rect width="167" height="15.6" fill="white" transform="translate(409 442.7)"/></clipPath><clipPath id="clip34_410_561334ff9e96-037a-487c-a85d-e363a8799c7a"><rect width="225" height="39" fill="white" transform="translate(400 384)"/></clipPath><clipPath id="clip35_410_561334ff9e96-037a-487c-a85d-e363a8799c7a"><rect width="167" height="15.6" fill="white" transform="translate(409 395.7)"/></clipPath></defs></g><g id="Master/Pose/Standing" transform="matrix(-1 0 0 1 878 214) scale(1 1)"><g id="Master/Pose/Standing"><g id="Head/Front" transform="translate(82 0) scale(1 1)"><g id="Head/Front/Rad"><g id="Head"><path id="SKIN" fill-rule="evenodd" clip-rule="evenodd" d="M73.9354 75.2443C80.411 79.1475 86.7736 81.0333 89.7603 80.2635C97.2496 78.333 97.9382 50.9351 92.1433 40.1339C86.3485 29.3328 56.5583 24.625 55.0568 46.0255C54.5356 53.4529 57.6544 60.0814 62.2623 65.4901L54 104H78L73.9354 75.2443Z" fill="#b28b67"/></g><path id="hair" fill-rule="evenodd" clip-rule="evenodd" d="M44.5934 38.9017C43.8182 38.1335 43.3954 37.0371 43.0296 35.9959C42.6497 34.9144 42.2806 33.8217 42.0284 32.696C41.5245 30.4468 41.5197 27.8602 43.1243 26.1136C44.4111 24.7131 46.342 24.0849 48.124 23.9484C49.3113 23.8573 50.5306 24.0236 51.6687 24.3978C52.7979 24.7689 53.7713 25.5086 54.8659 25.9678C54.9077 23.5439 55.3229 21.0077 56.5526 18.9381C57.7359 16.9468 59.6225 15.8293 61.771 15.5337C63.9762 15.2303 66.1539 15.7463 68.1281 16.8139C68.6223 17.0813 69.112 17.3614 69.5806 17.6784C69.973 17.9439 70.3809 18.2636 70.8413 18.3716C71.3545 18.4921 71.6089 18.1957 71.9425 17.8212C72.3336 17.3822 72.7742 16.9955 73.2404 16.6527C75.3022 15.1373 78.0073 14.5142 80.3959 15.4225C81.4964 15.8411 82.5666 16.5518 83.3132 17.5313C83.9788 18.4043 84.4536 19.7892 85.3721 20.3975C85.7619 20.6557 86.0372 20.3136 86.3921 20.0608C86.9253 19.6809 87.4337 19.2617 87.9732 18.8921C88.7311 18.3729 89.5517 17.9845 90.4304 17.7812C91.7168 17.4836 93.4945 17.5534 93.8623 19.2382C94.0003 19.871 93.8945 20.5479 93.8499 21.1855C93.7886 22.0611 93.7248 22.9363 93.6487 23.8106C93.591 24.4744 93.518 25.1155 93.3928 25.7674C93.3259 26.1148 93.1168 26.7626 93.2658 27.1106C93.452 27.5455 94.3114 27.2982 94.6786 27.3134C95.4038 27.3433 96.132 27.4705 96.8026 27.7804C97.3222 28.0206 97.8686 28.3738 98.0879 28.9694C98.2228 29.3353 98.1872 29.7112 98.1235 30.0876C98.0472 30.5393 98.1345 30.779 98.1916 31.2348C99.1656 30.7552 102.541 29.6896 102.965 31.4351C103.107 32.0163 102.785 32.673 102.539 33.1632C102.108 34.0229 101.543 34.8087 100.966 35.5581C99.7614 37.1214 98.3234 38.4698 96.7761 39.623C98.5889 40.4289 99.0621 42.806 97.4926 44.2223C96.7996 44.8476 95.8679 44.9868 94.9938 44.9468C94.6738 44.9321 94.2126 44.8092 93.9609 44.8649C93.8254 44.8948 93.6803 45.0097 93.4926 45.0225C92.259 45.107 90.8664 44.8098 89.6605 44.536C87.5117 44.0482 85.4773 43.0302 83.8161 41.4797C83.3899 41.082 83.0379 40.853 82.4643 40.8589C81.9616 40.864 81.4685 41.0018 80.9663 41.0145C79.6376 41.0484 78.4395 40.3989 77.2057 39.9665C77.1301 41.6333 76.6555 43.4691 75.9736 44.9687C75.4176 46.1915 74.2565 46.3692 73.1155 46.4765C69.467 46.8198 65.8056 46.4367 62.1524 46.4417C65.6888 47.2411 69.343 47.5705 72.848 48.5112C74.4323 48.9363 73.2225 50.004 72.5451 50.7443C71.4296 51.9632 70.6002 53.4735 70.025 55.0646C68.295 52.8096 65.2373 51.3238 62.5283 52.0165C59.5351 52.7818 57.4274 56.8296 59.3415 59.7397C60.4527 61.429 62.4594 62.0811 64.1291 62.8069C62.8265 64.1612 62.5115 66.1614 61.7275 67.8462C61.3408 68.6771 60.798 69.6165 59.9333 69.9061C59.6134 70.0132 59.2382 70.0224 58.9858 70.2832C58.6731 70.6061 58.5987 70.9671 58.1994 71.2446C56.6062 72.3523 54.1174 72.2669 52.7052 70.8214C51.4281 69.5141 51.7604 67.4454 52.827 66.12C51.1292 65.4123 48.036 64.5021 48.7108 61.8571C45.0319 61.6128 36.0996 55.6462 41.0372 51.2863C38.3274 49.7548 35.8379 46.012 37.5785 42.7127C38.9188 40.1721 42.0359 39.0364 44.5934 38.9017" fill="#b58143"/></g></g><g id="Lower Body/Standing" transform="translate(0 187) scale(1 1)"><g id="Lower Body/Standing/Sweatpants"><path id="SKIN" fill-rule="evenodd" clip-rule="evenodd" d="M128 0L164.631 126.227L181.86 221H199.153L181.891 0L128 0Z" fill="#b28b67"/><path id="Shadow" fill-rule="evenodd" clip-rule="evenodd" d="M128 0L164.631 126.227L181.86 221H199.153L181.891 0L128 0Z" fill="black" fill-opacity="0.1"/><path id="SKIN" fill-rule="evenodd" clip-rule="evenodd" d="M111.538 0C114.094 65.5742 113.086 101.34 112.514 107.298C111.942 113.256 108.694 153.156 86.5637 223H104.55C133.858 155.997 144.089 116.096 147.45 107.298C150.812 98.4996 160.739 62.7336 175.233 0H111.538Z" fill="#b28b67"/><path id="Pant" fill-rule="evenodd" clip-rule="evenodd" d="M127.214 0C136.742 43.435 153.222 112.768 176.653 208H201.946C203.814 110.254 195.867 45.9205 182.105 0L127.214 0Z" fill="#191847"/><path id="Pant" fill-rule="evenodd" clip-rule="evenodd" d="M111.41 0C113.913 65.5742 107.426 130.177 87.3306 209.021H114.317C143.679 143.018 164.723 78.7336 179.106 0H111.41Z" fill="#393f82"/><g id="Left [shoe]"><path id="Shoe" fill-rule="evenodd" clip-rule="evenodd" d="M84 236L84.9149 221.249C84.9546 220.609 85.5774 220.171 86.2047 220.304C94.8719 222.146 106.826 218 106.826 218C118.857 226.522 136.201 230.433 142.308 231.604C143.49 231.831 144.248 233.023 143.92 234.18L142.553 239H106.826H85.9848L84 236Z" fill="#191847"/></g><g id="Right [shoe]"><path id="Shoe_2" fill-rule="evenodd" clip-rule="evenodd" d="M178 236L178.915 221.249C178.955 220.609 179.577 220.171 180.205 220.304C188.872 222.146 200.826 218 200.826 218C212.857 226.522 230.201 230.433 236.308 231.604C237.49 231.831 238.248 233.023 237.92 234.18L236.553 239H200.826H179.985L178 236Z" fill="#191847"/></g></g></g><g id="Upper Body" transform="translate(22 82) scale(1 1)"><g id="Upper Body/Long Sleeve"><path id="SKIN" fill-rule="evenodd" clip-rule="evenodd" d="M231.483 59.9252L192 65.3108L199.084 83L231.121 70.2987C244.93 71.6611 251.607 71.3331 251.153 69.3149C250.77 67.6131 249.302 67.0993 247.95 66.6261C246.897 66.2574 245.914 65.9134 245.569 65.0515C244.78 63.0832 249.269 59.0033 253.693 55.3152C258.117 51.6271 255.148 50.9484 253.281 51.0029C246.647 52.5579 239.381 55.532 231.483 59.9252ZM39.398 156.908C42.3285 150.963 67.9699 74.4497 67.9699 74.4497L89.8673 74.5319C89.8673 74.5319 53.8506 155.583 52.308 159.406C50.3041 164.372 53.708 171.587 56.0162 176.48C56.3733 177.237 56.7041 177.938 56.9847 178.567C53.782 180 52.2435 178.268 50.6216 176.442C48.7896 174.379 46.8512 172.197 42.288 174.319C40.525 175.14 38.8568 176.109 37.2269 177.057C31.5969 180.329 26.4249 183.336 19.3891 178.994C18.2737 178.306 17.0514 175.715 20.0047 173.69C27.3624 168.645 37.9654 159.815 39.398 156.908Z" fill="#997659"/><path id="Clothes Back" fill-rule="evenodd" clip-rule="evenodd" d="M127.949 5.00001L145.094 6.14217C149.317 44.3434 172.316 68.4728 223.811 60.304L230.652 109.499C182.523 115.719 140.313 96.4498 131.662 44.2785C129.423 30.7729 127.655 16.7178 127.949 5.00001Z" fill="#c21b15"/><path id="Clothes" fill-rule="evenodd" clip-rule="evenodd" d="M42.4016 147C54.3053 83.664 79.4301 34.664 117.776 0H119.421H119.477L119.491 0.0159384L145.468 5.96528C145.468 37.1692 152.41 60.4845 159.084 82.9002C161.966 92.5803 164.798 102.093 167 112H96.8436C95.8554 123.351 95.2485 135.018 94.9322 147H42.4016Z" fill="#ff4133"/><path id="Shade" fill-rule="evenodd" clip-rule="evenodd" d="M96.8438 112C98.8558 88.8905 102.449 67.0899 108.388 46.5981C107.086 68.5123 106.725 95.6979 111.103 112H96.8438Z" fill="black" fill-opacity="0.1"/></g></g></g></g><g id="Master/Pose/Sitting" transform="translate(378 214) scale(1 1)"><g id="Master/Pose/Sitting"><g id="Head/Front" transform="translate(38 73) scale(1 1)"><g id="Head/Front/Long"><path id="Hair Back" fill-rule="evenodd" clip-rule="evenodd" d="M72.5 27C60.6259 27 51 36.6259 51 48.5V69.5C51 80.5658 59.3599 89.679 70.1086 90.8685C70.1114 90.9197 70.1143 90.971 70.1173 91.0225H99.1173C103.701 86.5438 99.209 57.9923 95.762 45.2902C94.2125 34.9385 85.2833 27 74.5 27H72.5Z" fill="#4a312c"/><g id="Head"><path id="SKIN" fill-rule="evenodd" clip-rule="evenodd" d="M73.9354 75.2443C80.411 79.1475 86.7736 81.0333 89.7603 80.2635C97.2496 78.333 97.9382 50.9351 92.1433 40.1339C86.3485 29.3328 56.5583 24.625 55.0568 46.0255C54.5356 53.4529 57.6544 60.0814 62.2623 65.4901L54 104H78L73.9354 75.2443Z" fill="#b28b67"/></g><path id="Hair Front" fill-rule="evenodd" clip-rule="evenodd" d="M51.8812 46.1504C52.578 45.4614 53.2522 44.7947 53.9211 44.1981L53.8889 43.4207C53.8889 43.4207 61.4214 28 73.0014 28C84.5711 28 88.23 33.3787 91.3403 37.9508L91.3487 37.9631C89.7218 43.5452 84.8187 45.8037 79.2736 48.3579C76.8866 49.4574 74.3806 50.6117 71.9657 52.1095C71.0199 51.341 69.8137 50.8804 68.5 50.8804C65.4624 50.8804 63 53.3428 63 56.3804C63 59.418 65.4624 61.8804 68.5 61.8804C68.5838 61.8804 68.6671 61.8785 68.75 61.8748C69.8557 73.7528 69.4127 87.3173 66.1173 90.5371H37.1173C36.2848 76.0731 40.0264 71.947 43.8498 67.7307C47.4474 63.7635 51.1173 59.7166 51.1173 46.9028C51.3754 46.6506 51.6298 46.3991 51.8812 46.1505L51.8812 46.1504Z" fill="#4a312c"/></g></g><g id="Lower Body/Sitting" transform="translate(-44 260) scale(1 1)"><g id="Lower Body/Sitting/Torqusie baggy pant"><g id="Seat"><g id="Seat_2"><path id="Seat Stuff" fill-rule="evenodd" clip-rule="evenodd" d="M92.6226 42H169.877L180 166H65L92.6226 42Z" fill="#C5CFD6"/><path id="Seat Stuff_2" fill-rule="evenodd" clip-rule="evenodd" d="M92.6226 42H116.383L130.604 166H65L92.6226 42Z" fill="black" fill-opacity="0.1"/></g></g><g id="Group 10"><path id="Fill 1" fill-rule="evenodd" clip-rule="evenodd" d="M180.438 138.534C180.438 138.534 192.946 108.532 197.151 110.083C200.815 111.433 218.282 120.997 217.593 122.883C216.871 124.858 212.329 130.741 212.329 130.741C212.329 130.741 222.502 139.24 227.934 146.404C230.797 150.18 234.501 158.947 231.517 160.555C228.532 162.163 176.773 144.943 180.438 138.534" fill="#C7D1D9"/><path id="Fill 3" fill-rule="evenodd" clip-rule="evenodd" d="M244.022 163.676C243.816 154.134 243.931 137.887 247.08 137.596C250.969 137.238 270.852 138.347 271.042 140.345C271.241 142.44 273.675 151.704 273.675 151.704C273.675 151.704 287.517 152.994 295.504 157.12C299.714 159.295 301.833 165.613 299.832 168.349C297.831 171.085 243.702 177.834 244.249 170.472C244.249 170.472 244.107 167.658 244.022 163.676Z" fill="#C7D1D9"/><path id="Fill 5" fill-rule="evenodd" clip-rule="evenodd" d="M186.184 119.5C192.116 131.711 206.5 132.781 215.638 132.781C219.131 132.781 233.599 102.815 236.002 98.8681C249.076 77.3997 265.264 50.5728 265.264 50.5728C265.264 50.5728 238.021 32.8648 218.95 39.4028C218.95 39.4028 180.252 107.289 186.184 119.5Z" fill="#191847"/><g id="Group 9"><path id="Fill 7" fill-rule="evenodd" clip-rule="evenodd" d="M112.068 -0.000610352C112.068 -0.000610352 111.388 40.6062 132.587 48.3934C153.786 56.1806 207.283 62.3978 239.172 54.2092C232.62 76.1306 236.873 146.964 243.172 158.665C245.166 162.369 268.347 155.68 276.207 151.816C284.067 147.953 297.962 30.7784 282.839 20.8774C267.716 10.9764 171.455 -0.000610352 171.455 -0.000610352H112.068Z" fill="#393f82"/></g></g></g></g><g id="Upper Body" transform="translate(-22 155) scale(1 1)"><g id="Upper Body/Pregnant"><path id="Shirt" fill-rule="evenodd" clip-rule="evenodd" d="M181.729 118.264C162.738 157.816 82.7913 131.11 82.7913 131.11C82.7913 124.256 85.5096 117.385 88.3646 110.169C91.4258 102.431 94.6441 94.2962 94.8366 85.3605C95.1907 68.9211 98.2646 19.1125 111.093 2.28693C111.327 1.52679 111.564 0.764491 111.804 0L112.692 0.417788C112.831 0.274815 112.97 0.135529 113.111 0L141.101 4.32798C141.101 16.9883 149.203 28.9933 156.497 39.8002C158.271 42.4297 159.998 44.9882 161.549 47.468C163.58 50.7162 165.871 54.0224 168.22 57.4104C180.115 74.5688 193.464 93.8252 181.729 118.264Z" fill="#a8e5ba"/><path id="SKIN" fill-rule="evenodd" clip-rule="evenodd" d="M145.863 110.787C147.735 101.127 148.949 94.6775 149.506 91.4391C164.418 108.29 173.033 116.813 175.35 117.009C179.709 117.376 182.93 113.511 183.847 114.598C185.362 119.098 181.081 130.362 172.898 132C168.991 132.782 162.944 124.724 160.453 121.869C159.473 120.746 154.61 117.052 145.863 110.787V110.787ZM171.621 59.2822C175.487 59.2822 177.563 60.8803 179.849 64.1045C182.134 67.3288 184.297 82.5349 180.628 82.5349C176.958 82.5349 161.583 76.6567 161.583 72.7049C161.583 68.7531 172.074 67.0796 172.074 64.1045C172.074 61.1295 167.756 59.2822 171.621 59.2822Z" fill="#b28b67"/><path id="Shade" fill-rule="evenodd" clip-rule="evenodd" d="M106.565 18.7186C96.7476 59.6506 100.747 94.1728 138.058 125.487C137.62 127.06 137.357 128 137.357 128C93.5608 97.3906 93.5398 60.2965 106.565 18.7186Z" fill="black" fill-opacity="0.2"/></g></g></g></g><g id="Master/Pose/Standing" transform="translate(170 214) scale(1 1)"><g id="Master/Pose/Standing"><g id="Head/Front" transform="translate(82 0) scale(1 1)"><g id="Head/Front/Hijab2"><g id="Head"><path id="SKIN" fill-rule="evenodd" clip-rule="evenodd" d="M73.9354 75.2443C80.411 79.1475 86.7736 81.0333 89.7603 80.2635C97.2496 78.333 97.9382 50.9351 92.1433 40.1339C86.3485 29.3328 56.5583 24.625 55.0568 46.0255C54.5356 53.4529 57.6544 60.0814 62.2623 65.4901L54 104H78L73.9354 75.2443Z" fill="#d4a181"/></g><path id="Hijab" fill-rule="evenodd" clip-rule="evenodd" d="M88.9653 36.443C89.4999 36.6227 88.9653 34.3226 87.6868 33.4814C83.766 30.9018 72.0947 27.0839 64.1137 28.7407C58.7672 29.8506 52.0993 32.6364 47.8289 36.1877C43.9792 39.3892 40.4764 45.0333 39.1133 49.9919C37.6821 55.1984 37.1412 62.443 39.1133 66.9855C41.462 72.3953 49.78 78.2257 50 79C50.2511 79.8836 49.2679 83.3357 48.5484 86.9731C47.8289 90.6105 48.1564 99.8718 48.5484 101.382C49.1749 103.796 52.5346 104.983 54 105.158C62.1003 106.123 67.9721 116.179 70.4158 118.752C70.4158 118.752 86.7322 135.133 93.1906 133C94.3238 132.626 92.6252 119.056 91.492 113.24C90.3588 107.424 79.2449 97.0443 78.5331 93.6239C78.1138 91.6089 78.0439 88.1013 78 87.9414C76.9517 80.7151 77.1322 80.1277 75.6033 77.1831C74.0743 74.2384 72.8889 74.0656 73.2563 73.2079C75.0518 69.0167 80.8264 56.1932 82.1365 52C83.6979 47.0024 82.96 48.6439 84.5697 43.6632C85.2825 41.4577 86.1895 35.5102 88.9653 36.443Z" fill="#89C5CC"/><mask id="mask0_410_6123d9977ece-033b-4788-af8f-5acd19579883" style="mask-type:luminance" maskUnits="userSpaceOnUse" x="37" y="28" width="57" height="106" fill="#ffffff"><path id="Hijab_2" fill-rule="evenodd" clip-rule="evenodd" d="M88.9653 36.443C89.4999 36.6227 88.9653 34.3226 87.6868 33.4814C83.766 30.9018 72.0947 27.0839 64.1137 28.7407C58.7672 29.8506 52.0993 32.6364 47.8289 36.1877C43.9792 39.3892 40.4764 45.0333 39.1133 49.9919C37.6821 55.1984 37.1412 62.443 39.1133 66.9855C41.462 72.3953 49.78 78.2257 50 79C50.2511 79.8836 49.2679 83.3357 48.5484 86.9731C47.8289 90.6105 48.1564 99.8718 48.5484 101.382C49.1749 103.796 52.5346 104.983 54 105.158C62.1003 106.123 67.9721 116.179 70.4158 118.752C70.4158 118.752 86.7322 135.133 93.1906 133C94.3238 132.626 92.6252 119.056 91.492 113.24C90.3588 107.424 79.2449 97.0443 78.5331 93.6239C78.1138 91.6089 78.0439 88.1013 78 87.9414C76.9517 80.7151 77.1322 80.1277 75.6033 77.1831C74.0743 74.2384 72.8889 74.0656 73.2563 73.2079C75.0518 69.0167 80.8264 56.1932 82.1365 52C83.6979 47.0024 82.96 48.6439 84.5697 43.6632C85.2825 41.4577 86.1895 35.5102 88.9653 36.443Z" fill="#ffffff"/></mask><g mask="url(#mask0_410_6123d9977ece-033b-4788-af8f-5acd19579883)"><path id="Shade" fill-rule="evenodd" clip-rule="evenodd" d="M66.5618 53.1421C66.1845 45.537 66.5618 42.566 68.316 37H67.2344C65.5245 39.2089 64.0938 45.9652 65.7013 53.1421H66.5618ZM45.3638 52.7838L45.3637 52.7836L45.3637 52.7834C45.175 52.3218 44.9819 51.8491 44.7821 51.3643L44.0945 51.6948C46.2641 59.6306 48.9031 65.7569 57.9652 70.8927L58.6701 70.3992C50.0996 64.3728 48.2618 59.8756 45.3638 52.7838ZM58.2134 43.2923C58.3042 43.9806 58.391 44.6509 58.4759 45.3055V45.3055C59.7785 55.3594 60.6045 61.735 67.8664 73.2976L67.0435 73.5492C59.0831 62.8261 57.8213 54.0741 57.4452 43.3541L58.2134 43.2923ZM50.3735 75.8804L49.6694 76.7363C53.1961 77.4744 55.594 80.0682 58.3429 83.0416C61.2514 86.1877 64.5528 89.7588 70 92.0068L71.0112 91.3941C65.0658 88.3027 62.2999 85.2305 59.8848 82.5479C57.3846 79.7707 55.2604 77.4111 50.3735 75.8804Z" fill="black" fill-opacity="0.2"/></g></g></g><g id="Lower Body/Standing" transform="translate(0 187) scale(1 1)"><g id="Lower Body/Standing/Baggy Pants"><path id="SKIN" fill-rule="evenodd" clip-rule="evenodd" d="M134 0L183.082 124.227L216.001 229.25H229L176.674 0L134 0Z" fill="#d4a181"/><path id="SKIN" fill-rule="evenodd" clip-rule="evenodd" d="M124.117 0C123.594 43.6542 115.972 102.427 114.754 105.149C113.536 107.87 30.6758 174.358 30.6758 174.358L39.629 183.939C39.629 183.939 137.397 126.934 141.921 119.331C146.445 111.728 161.174 41.7631 173 0H124.117Z" fill="#d4a181"/><g id="Left [Shoe]"><path id="shoe" fill-rule="evenodd" clip-rule="evenodd" d="M32.116 172.564C31.7884 171.44 30.604 170.771 29.5042 171.173C27.4981 171.906 24.5641 173.092 23.2642 174.183C21.1921 175.922 17.7961 179.948 17.7961 179.948C19.8131 182.352 54.0505 223.154 54.0505 223.154C54.0505 223.154 61.0315 220.166 58.4307 216.165C55.8299 212.164 54.1738 209.464 54.1738 209.464L46.2757 181.87C46.1206 181.328 45.549 181.022 45.012 181.192L40.7975 182.529C40.7975 182.529 36.4116 180.485 34.6494 178.384C33.5766 177.106 32.665 174.448 32.116 172.564Z" fill="#E4E4E4"/></g><g id="Right {Shoe]"><path id="shoe_2" fill-rule="evenodd" clip-rule="evenodd" d="M213.45 223.284C212.378 222.813 211.104 223.29 210.705 224.391C209.977 226.398 209 229.409 209 231.106C209 233.811 209.901 239 209.901 239C213.039 239 266.303 239 266.303 239C266.303 239 268.502 231.732 263.765 231.152C259.028 230.573 255.895 230.106 255.895 230.106L229.68 218.419C229.165 218.189 228.563 218.43 228.348 218.951L226.663 223.039C226.663 223.039 222.278 225.085 219.537 225.085C217.868 225.085 215.246 224.074 213.45 223.284Z" fill="#E4E4E4"/></g><path id="Pant" fill-rule="evenodd" clip-rule="evenodd" d="M167 218.433L228.804 211.725L179 0H127.644L167 218.433Z" fill="#191847"/><path id="Pant" fill-rule="evenodd" clip-rule="evenodd" d="M43.46 158.9L84 206.886C84 206.886 148.05 136.932 158.683 115.596C169.315 94.26 177.799 0 177.799 0H115.478C115.478 0 110.844 82.9258 109.231 86.7848C107.617 90.6437 43.46 158.9 43.46 158.9Z" fill="#393f82"/></g></g><g id="Upper Body" transform="translate(22 82) scale(1 1)"><g id="Upper Body/Jacket"><path id="SKIN" fill-rule="evenodd" clip-rule="evenodd" d="M222.372 116.758L194.044 89.1225L184.636 105.402L214.093 122.77C221.479 134.405 225.817 139.432 227.107 137.852C228.195 136.519 227.696 135.058 227.237 133.713C226.879 132.665 226.546 131.687 227.004 130.894C228.051 129.082 233.965 130.119 239.535 131.344C245.106 132.568 243.817 129.832 242.633 128.404C237.368 124.155 230.615 120.273 222.372 116.758ZM55.398 156.908C58.3285 150.963 68.308 93.0199 68.308 93.0199L89.2054 93.1021C89.2054 93.1021 69.8506 155.583 68.308 159.406C66.3041 164.372 69.708 171.587 72.0162 176.48C72.3733 177.237 72.7041 177.938 72.9847 178.567C69.782 180 68.2435 178.268 66.6216 176.442C64.7896 174.379 62.8512 172.197 58.288 174.319C56.525 175.14 54.8568 176.109 53.2269 177.057C47.5969 180.329 42.4249 183.336 35.3891 178.994C34.2737 178.306 33.0514 175.715 36.0047 173.69C43.3624 168.645 53.9654 159.815 55.398 156.908Z" fill="#d4a181"/><path id="Coat Back" fill-rule="evenodd" clip-rule="evenodd" d="M127.695 5.33202L136.342 3.84886C151.23 41.0391 177.222 74.8311 214.318 105.225L186.286 139.281C149.194 96.0046 126.33 51.3548 127.695 5.33202Z" fill="#c21b15"/><path id="Shirt" fill-rule="evenodd" clip-rule="evenodd" d="M90 114H167C167 114 140.241 48.9377 140.241 3.46073L117.014 0C98.7599 29.3584 93.6048 65.5046 90 114Z" fill="#C7D1D9"/><path id="Coat Front" fill-rule="evenodd" clip-rule="evenodd" d="M55 147C63.4209 51.9959 116.504 0 116.504 0L116.522 0.0164189C116.525 0.010945 116.529 0.00547202 116.532 0H118.048C120.769 0.0937097 126.338 0.337673 126.338 0.337673L131.95 16.3769C132.841 45.7102 142.351 134.606 142.351 134.606H91.9499C92.0356 138.682 92.2255 142.815 92.5306 147H55Z" fill="#ff4133"/><path id="Shade" fill-rule="evenodd" clip-rule="evenodd" d="M91.9584 135C91.5561 117.25 93.1308 100.584 95.7576 85.5019C97.1315 103.399 100.003 124.933 106 135H91.9584Z" fill="black" fill-opacity="0.1"/><path id="Light" fill-rule="evenodd" clip-rule="evenodd" d="M103.111 104L128 92.4293V104H103.111Z" fill="white" fill-opacity="0.2"/></g></g></g></g></g></g></g></svg>