<svg viewBox="65.5 52.307692307692264 930.0999999999999 666.9230769230768" fill="none" xmlns="http://www.w3.org/2000/svg" xmlns:xlink="http://www.w3.org/1999/xlink" xmlns:blush="http://design.blush" overflow="visible" width="930.0999999999999px" height="666.9230769230768px"><g id="Master/Scene/3 Characters" blush:has-customizable-colors="true" blush:viewBox="0 -1.0493827160493652 1053.2399999999998 682.0987654320987" blush:i="0"><g id="Background" blush:component="Background" blush:defaultValue="Wireframe" blush:width="1053" blush:height="680" blush:i="0.0" blush:value="Whiteboard" transform="scale(1 1)" blush:viewBox="73.71000000000004 63.68421052631584 921.3750000000002 557.8947368421053"><g id="Background/Whiteboard" blush:viewBox="73.71000000000004 63.68421052631584 921.3750000000002 557.8947368421053" blush:i="0.0.0"><path id="Background Shape" fill-rule="evenodd" clip-rule="evenodd" d="M76.1545 519.875C99.3586 435.901 334.157 483.74 488.088 457.779C642.019 431.819 824.132 310.915 944.658 370.14C1065.18 429.364 936.945 572.527 660.511 604.834C384.077 637.141 52.9503 603.848 76.1545 519.875Z" fill="#F2F2F2" blush:i="0.0.0.0"/><g id="Cells" opacity="0.5" blush:i="0.0.0.1"><path id="Fill 5" fill-rule="evenodd" clip-rule="evenodd" d="M166.908 127.672C165.335 129.243 165.946 134.824 165.913 136.89C165.862 140.106 166.063 143.292 166.331 146.496C166.512 148.642 167.527 169.114 170.353 167.542C171.946 166.656 170.947 160.734 170.944 158.86C170.938 154.696 170.764 150.542 170.487 146.387C170.229 142.529 170.067 138.716 170.215 134.851C170.251 133.908 171.134 123.439 166.908 127.672" fill="#89C5CC" blush:i="0.0.0.1.0"/><path id="Fill 7" fill-rule="evenodd" clip-rule="evenodd" d="M235.409 125.149C221.896 125.256 208.388 125.923 194.881 126.331C188.381 126.528 181.886 126.778 175.394 127.138C173.181 127.261 168.436 126.552 166.593 127.731C162.501 130.348 169.1 130.96 170.859 130.896C197.59 129.927 224.329 128.65 251.082 128.59C264.206 128.561 277.323 128.934 290.448 128.851C295.465 128.819 301.02 126.657 302.287 132.497C303.717 139.086 302.074 146.423 301.627 153.045C301.329 157.465 301.435 161.794 301.634 166.211C301.762 169.04 301.429 172.228 301.93 175.005C302.411 177.679 304.333 179.282 306.095 176.287C307.148 174.497 306.624 170.078 306.694 168.005C306.788 165.213 306.7 162.421 306.7 159.628C306.699 152.811 307.661 146.022 307.534 139.206C307.452 134.811 307.219 126.844 301.676 125.788C295.572 124.625 288.069 125.794 281.822 125.723C266.344 125.546 250.892 125.028 235.409 125.149" fill="#89C5CC" blush:i="0.0.0.1.1"/><path id="Fill 9" fill-rule="evenodd" clip-rule="evenodd" d="M198.174 167.786C193.078 167.786 187.982 167.817 182.887 167.901C178.517 167.973 171.647 167.063 167.58 168.626C164.795 169.696 164.056 172.805 167.58 173.633C171.423 174.536 177.215 173.059 181.237 172.988C201.4 172.632 221.758 172.168 241.894 173.444C260.762 174.638 279.993 175.797 298.888 174.536C300.478 174.43 308.586 174.107 304.886 171.068C302.728 169.294 293.979 170.46 291.174 170.375C281.28 170.077 271.376 170.011 261.485 169.636C251.723 169.265 242.004 168.168 232.238 167.896C220.893 167.58 209.523 167.786 198.174 167.786" fill="#89C5CC" blush:i="0.0.0.1.2"/><path id="face" fill-rule="evenodd" clip-rule="evenodd" d="M193.075 138.804C201.017 139.151 208.875 150.669 200.839 156.235C193.3 161.459 179.172 155.734 183.364 145.606C182.761 147.07 184.126 144.015 184.143 143.995C184.94 143.056 186.371 142.016 187.354 141.276C188.478 140.428 189.649 139.496 191.005 139.071C191.895 138.792 191.755 139.841 193.075 138.804M189.207 134.65C185.49 136.101 183.794 137.738 181.239 140.701C179.472 142.751 177.219 143.83 177.239 146.6C177.243 147.213 178.031 147.887 178.167 148.478C178.355 149.294 178.137 150.34 178.286 151.207C179.824 160.157 190.501 163.174 198.317 161.484C205.125 160.012 210.217 153.477 208.64 146.37C207.052 139.216 196.444 131.819 189.207 134.65" fill="#89C5CC" blush:i="0.0.0.1.3"/><path id="Fill 13" fill-rule="evenodd" clip-rule="evenodd" d="M185.896 147.143C185.896 150.362 190.982 150.362 190.982 147.143C190.982 143.96 185.896 143.823 185.896 147.143" fill="#89C5CC" blush:i="0.0.0.1.4"/><path id="Fill 15" fill-rule="evenodd" clip-rule="evenodd" d="M192.259 146.491C192.259 149.049 196.299 149.049 196.299 146.491C196.299 143.962 192.259 143.854 192.259 146.491" fill="#89C5CC" blush:i="0.0.0.1.5"/><path id="Fill 17" fill-rule="evenodd" clip-rule="evenodd" d="M193.51 151.767C192.216 152.264 190.575 151.233 189.512 151.912C187.631 153.117 189.517 154.206 190.525 154.69C195.066 156.869 195.873 150.861 193.51 151.767" fill="#89C5CC" blush:i="0.0.0.1.6"/><path id="Fill 19" fill-rule="evenodd" clip-rule="evenodd" d="M262.85 144.632C262.715 144.689 262.233 144.893 262.85 144.632ZM243.078 141.742C239.679 142.509 236.81 145.683 233.118 145.258C230.289 144.933 228.373 142.202 225.58 141.806C222.007 141.298 212.282 149.449 217.395 150.847C220.378 151.663 222.033 146.212 224.668 145.922C226.753 145.693 229.588 148.25 231.748 148.614C235.778 149.293 238.546 147.073 242.084 145.641C245.928 144.086 248.115 145.487 251.458 147.216C254.097 148.58 256.583 149.469 259.602 148.906C262.436 148.378 265.997 145.463 268.849 145.762C271.643 146.055 273.637 148.971 276.511 149.242C277.696 149.353 279.46 149.757 279.261 147.929C279.102 146.465 277.468 146.713 276.446 146.181C273.818 144.812 271.36 142.388 268.189 142.595C265.803 142.751 263.632 144.427 261.433 145.229C254.233 147.855 250.185 140.148 243.078 141.742" fill="#89C5CC" blush:i="0.0.0.1.7"/><path id="Fill 21" fill-rule="evenodd" clip-rule="evenodd" d="M249.092 188.111C235.204 188.239 221.268 188.445 207.419 189.558C204.135 189.822 170.608 192.988 170.672 193.216C170.789 193.637 175.102 194.282 175.075 194.381C174.784 193.661 174.12 193.362 173.082 193.487C204.879 193.487 236.576 190.64 268.416 191.152C276.416 191.28 284.446 191.227 292.441 191.479C294.436 191.542 299.382 192.972 300.949 192.071C305.063 189.706 297.589 189.433 296.352 189.334C280.683 188.08 264.805 187.954 249.092 188.111" fill="#56919C" blush:i="0.0.0.1.8"/><path id="Fill 23" fill-rule="evenodd" clip-rule="evenodd" d="M166.556 194.859C164.479 196.941 166.391 204.43 166.473 207.245C166.592 211.314 166.494 215.412 166.851 219.471C167.259 224.107 167.891 229.047 169.107 233.545C169.777 236.023 172.129 239.961 173.061 235.459C173.726 232.242 172.716 227.976 172.364 224.7C171.894 220.317 171.78 215.992 171.763 211.587C171.747 207.75 171.673 203.896 171.358 200.071C171.195 198.085 170.196 191.238 166.556 194.859" fill="#56919C" blush:i="0.0.0.1.9"/><path id="Fill 25" fill-rule="evenodd" clip-rule="evenodd" d="M218.794 232.998C208.938 233.167 199.061 233.4 189.222 234.015C185.189 234.268 181.159 234.644 177.142 235.07C176.322 235.157 167.247 235.525 171.302 238.875C173.132 240.387 180.661 238.296 183.148 238.078C187.33 237.712 191.511 237.473 195.706 237.296C205.424 236.883 215.172 236.519 224.9 236.688C242.667 236.996 260.319 237.134 278.09 236.737C280.615 236.681 300.396 237.21 301.068 234.583C301.609 232.466 294.535 233.437 293.245 233.475C288.514 233.617 283.782 233.584 279.049 233.56C258.997 233.457 238.83 232.659 218.794 232.998" fill="#56919C" blush:i="0.0.0.1.10"/><path id="Fill 27" fill-rule="evenodd" clip-rule="evenodd" d="M297.719 191.347C298.032 200.122 299.526 208.887 300.004 217.689C300.222 221.712 300.479 225.732 300.676 229.757C300.74 231.056 300.217 234.184 301.752 234.931C303.858 235.955 304.142 233.891 304.536 232.495C305.675 228.462 304.904 223.224 304.801 219.081C304.701 215.07 304.694 211.051 304.398 207.047C304.095 202.957 303.272 198.943 302.889 194.867C302.728 193.143 303.293 190.274 301.463 189.204C299.881 188.279 297.65 189.445 297.719 191.347" fill="#56919C" blush:i="0.0.0.1.11"/><path id="face_2" fill-rule="evenodd" clip-rule="evenodd" d="M200.845 205.944C200.882 205.973 200.919 206.002 200.957 206.031C200.919 206.002 200.882 205.973 200.845 205.944M192.469 203.344C195.592 204.236 198.157 203.904 201.141 206.177C203.614 208.063 206.151 210.821 206.971 213.869C208.867 220.911 202.441 224.771 196.418 224.847C190.248 224.924 181.115 223.493 181.431 215.585C181.674 209.509 186.111 203.58 192.469 203.344M192.689 199.364C184.59 199.767 178.057 208.863 178.127 216.518C178.212 225.797 188.725 228.188 196.194 228.252C204.623 228.324 213.028 222.504 210.77 213.025C208.96 205.431 200.477 198.96 192.689 199.364" fill="#56919C" blush:i="0.0.0.1.12"/><path id="Fill 31" fill-rule="evenodd" clip-rule="evenodd" d="M184.542 211.822C184.542 214.41 188.63 214.41 188.63 211.822C188.63 209.265 184.542 209.155 184.542 211.822" fill="#56919C" blush:i="0.0.0.1.13"/><path id="Fill 33" fill-rule="evenodd" clip-rule="evenodd" d="M193.117 210.687C193.117 213.295 197.238 213.295 197.238 210.687C197.238 208.109 193.117 207.998 193.117 210.687" fill="#56919C" blush:i="0.0.0.1.14"/><path id="Fill 35" fill-rule="evenodd" clip-rule="evenodd" d="M188.39 216.589C185.729 219.245 195.076 223.902 197.281 220.207C199.092 217.171 195.149 218.178 193.752 218.014C192.233 217.835 189.629 215.352 188.39 216.589" fill="#56919C" blush:i="0.0.0.1.15"/><path id="Fill 37" fill-rule="evenodd" clip-rule="evenodd" d="M263.124 210.74C262.868 210.848 262.868 210.848 263.124 210.74ZM228.022 206.416C225.328 206.921 216.486 209.904 216.367 213.1C216.149 218.91 224.808 212.959 226.688 212.195C231.796 210.119 234.48 214.354 239.612 214.577C244.068 214.771 248.166 210.957 252.364 211.408C256.763 211.881 258.879 216.56 263.956 214.076C266.643 212.762 266.575 210.735 263.56 210.544C261.737 210.429 260.485 211.182 258.584 210.398C255.612 209.172 254.415 207.176 250.859 207.493C248.175 207.733 245.75 209.245 243.13 209.831C237.132 211.171 233.805 205.332 228.022 206.416" fill="#56919C" blush:i="0.0.0.1.16"/><path id="point" fill-rule="evenodd" clip-rule="evenodd" d="M283.818 213.263C283.632 213.341 283.632 213.341 283.818 213.263ZM284.497 210.844C284.527 210.857 284.73 211.139 284.497 210.844ZM281.409 208.997C281.293 209.087 281.293 209.087 281.409 208.997ZM281.476 208.974C282.075 209.333 286.89 212.625 283.393 213.401C281.617 213.794 280.148 210.222 281.476 208.974M279.882 205.327C272.169 208.844 280.469 221.429 286.522 216.316C289.069 214.164 289.404 209.815 286.926 207.573C285.442 206.23 281.897 204.406 279.882 205.327" fill="#56919C" blush:i="0.0.0.1.17"/><path id="Fill 41" fill-rule="evenodd" clip-rule="evenodd" d="M207.477 254.921C197.852 254.924 188.143 254.722 178.531 255.292C176.914 255.388 170.752 255.08 169.918 256.771C168.394 259.864 174.734 258.329 175.655 258.236C194.793 256.32 214.784 257.423 233.985 257.969C249.689 258.415 265.308 258.692 280.993 259.502C285.116 259.714 289.235 259.949 293.355 260.198C294.698 260.279 298.078 261.169 298.361 259.024C298.623 257.039 294.407 257.488 293.354 257.432C284.979 256.991 276.61 256.529 268.237 256.058C248.085 254.922 227.661 254.917 207.477 254.921" fill="#89C5CC" blush:i="0.0.0.1.18"/><path id="Fill 43" fill-rule="evenodd" clip-rule="evenodd" d="M169.609 258.36C167.812 260.147 168.654 266.971 168.604 269.226C168.516 273.171 168.33 277.113 168.247 281.056C168.16 285.178 168.281 289.319 168.524 293.435C168.626 295.163 170.045 303.515 172.278 298.735C173.276 296.599 172.254 290.65 172.269 288.23C172.297 283.826 172.534 279.44 172.753 275.041C172.942 271.26 172.949 267.475 173.114 263.693C173.166 262.487 173.309 254.649 169.609 258.36" fill="#89C5CC" blush:i="0.0.0.1.19"/><path id="Fill 45" fill-rule="evenodd" clip-rule="evenodd" d="M299.98 293.595C290.613 294.555 281.096 294.102 271.694 294.811C263.591 295.422 255.495 295.672 247.371 295.844C228.975 296.232 210.547 296.611 192.204 298.144C188.024 298.493 183.849 298.864 179.657 299.051C177.561 299.144 168.764 298.19 168.109 300.4C166.994 304.164 176.4 302.674 178.429 302.615C182.891 302.487 187.332 302.164 191.781 301.825C210.485 300.4 229.259 299.974 248.003 299.382C258.196 299.06 268.319 298.314 278.49 297.636C283.56 297.298 288.643 297.287 293.712 296.959C295.039 296.873 299.734 297.042 300.688 295.975C301.343 295.242 301.509 293.453 299.98 293.595" fill="#89C5CC" blush:i="0.0.0.1.20"/><path id="Fill 47" fill-rule="evenodd" clip-rule="evenodd" d="M296.805 259C297.126 267.983 297.634 276.958 297.937 285.94C298.028 288.641 297.212 293.482 298.716 295.865C301.135 299.695 303.023 295.641 303.466 293.254C304.864 285.721 303.361 277.4 302.97 269.82C302.822 266.929 303.72 260.493 302.322 257.905C300.991 255.44 296.686 255.688 296.805 259" fill="#89C5CC" blush:i="0.0.0.1.21"/><path id="hola :)" fill-rule="evenodd" clip-rule="evenodd" d="M281.079 271.794C284.668 272.766 285.192 280.567 281.143 281.145C275.116 282.004 277.752 273.402 281.079 271.794M280.074 268.691C278.979 268.657 276.453 268.355 275.778 269.246C275.214 269.992 275.784 271.565 275.718 272.275C275.481 274.813 273.417 276.279 274.34 279.276C274.966 281.31 276.643 283.221 278.687 283.927C289.472 287.655 289.341 266.816 280.074 268.691" fill="#89C5CC" blush:i="0.0.0.1.22"/><path id="Fill 51" fill-rule="evenodd" clip-rule="evenodd" d="M182.702 270.091C182.675 270.125 182.648 270.159 182.622 270.194C182.648 270.159 182.675 270.125 182.702 270.091M191.173 265.584C191.131 265.223 191.088 264.862 191.046 264.501C196.894 267.261 201.547 272.396 199.605 279.288C198.124 284.546 192.771 286.411 187.784 285.113C182.264 283.675 179.626 279.125 181.114 273.538C181.801 270.96 183.91 267.496 186.635 266.667C187.904 266.281 190.71 267.265 191.173 265.584M187.753 263.401C186.274 263.501 184.834 264.117 183.627 264.96C184.757 264.004 186.263 263.435 187.753 263.401M187.796 260.005C184.142 260.117 181.747 262.329 179.58 264.985C178.9 265.819 176.6 268.03 176.885 269.154C177.11 270.042 177.699 271.341 178.94 270.35C172.442 283.3 189.228 294.346 199.475 285.34C209.039 276.936 199.55 259.611 187.796 260.005" fill="#89C5CC" blush:i="0.0.0.1.23"/><path id="Fill 53" fill-rule="evenodd" clip-rule="evenodd" d="M184.476 272.035C184.476 273.759 187.153 273.759 187.153 272.035C187.153 270.31 184.476 270.31 184.476 272.035" fill="#89C5CC" blush:i="0.0.0.1.24"/><path id="Fill 55" fill-rule="evenodd" clip-rule="evenodd" d="M189.044 272.329C189.044 274.082 191.764 274.082 191.764 272.329C191.764 270.576 189.044 270.576 189.044 272.329" fill="#89C5CC" blush:i="0.0.0.1.25"/><path id="Fill 57" fill-rule="evenodd" clip-rule="evenodd" d="M191.117 278.484C189.845 278.587 185.187 278.155 184.369 279.269C183.003 281.132 185.183 281.197 186.254 281.398C187.219 281.579 191.413 281.477 192.004 280.62C192.526 279.863 192.404 278.374 191.117 278.484" fill="#89C5CC" blush:i="0.0.0.1.26"/><path id="Fill 59" fill-rule="evenodd" clip-rule="evenodd" d="M247.241 273.653C247.022 273.744 247.022 273.744 247.241 273.653ZM229.64 272.366C226.772 272.577 224.344 274.226 221.602 274.884C218.676 275.587 217.409 274.295 214.748 273.449C211.98 272.569 210.011 272.917 207.786 274.807C206.526 275.878 203.76 278.344 204.548 280.247C206.352 284.602 210.436 277.516 212.357 277.186C215.353 276.672 218.019 279.292 221.475 278.543C224.606 277.864 227.384 275.714 230.654 275.691C233.389 275.671 235.966 277.168 238.666 277.53C242.788 278.083 245.494 276.619 249.304 275.533C252.608 274.591 254.924 275.833 258.032 276.878C259.452 277.355 264.191 279.091 263.319 275.944C263.072 275.054 256.827 273.464 255.859 273.159C252.445 272.08 250.283 272.5 247.03 273.74C244.318 274.775 242.036 275.279 239.128 274.71C235.924 274.082 233.01 272.11 229.64 272.366" fill="#89C5CC" blush:i="0.0.0.1.27"/></g><g id="Big Cards" opacity="0.5" blush:i="0.0.0.2"><path id="Fill 67" fill-rule="evenodd" clip-rule="evenodd" d="M448.575 128.012C449.038 118.055 449.674 108.113 450.009 98.1503C450.176 93.2136 450.306 88.2764 450.432 83.3387C450.459 82.2393 450.488 81.1403 450.513 80.0408C450.594 76.3055 450.151 76 453.91 75.6684C470.679 74.1882 487.515 73.6976 504.304 72.3584C524.553 70.7433 544.907 69.628 565.213 69.1281C574.236 68.9056 583.298 68.4446 592.323 68.7252C594.322 68.7873 598.247 68.267 599.035 69.8214C599.375 70.4929 598.661 72.8036 598.571 73.5784C598.288 75.999 598.024 78.428 597.861 80.8606C596.901 95.208 597.473 109.917 600.251 124.047C593.734 120.372 585.5 117.211 577.904 117.838C570.16 118.478 564.367 122.952 558.168 127.07C554.662 129.4 553.481 130.012 549.983 127.756C546.968 125.811 544.116 123.588 541.272 121.405C536.883 118.037 532.741 114.386 528.485 110.855C520.66 104.363 509.878 95.1223 499.07 97.8429C491.348 99.7868 484.218 104.031 477.516 108.184C467.558 114.355 458.545 121.912 448.575 128.012M582.779 64.3036C544.306 64.3036 506.121 68.0333 467.756 70.0509C463.749 70.2615 459.756 70.5717 455.764 70.957C453.103 71.2139 446.596 70.1353 444.852 72.4089C443.688 73.9258 444.688 74.1534 444.852 75.5947C445.058 77.411 444.936 79.5632 444.883 81.4857C444.755 86.1183 444.62 90.7503 444.515 95.3833C444.118 112.893 443.869 130.4 444.578 147.905C444.733 151.723 446.124 157.009 445.363 160.719C444.812 163.405 442.97 165.039 447.218 165.535C451.398 166.024 456.509 164.781 460.693 164.383C464.901 163.983 469.108 163.548 473.321 163.201C491.638 161.692 510.133 161.92 528.499 161.418C547.029 160.912 565.567 160.88 584.104 160.869C591.86 160.865 600.723 161.301 608.291 159.167C610.953 158.415 611.384 158.045 610.727 155.404C610.603 154.902 609.799 154.717 609.563 153.811C609.242 152.578 609.407 151.079 609.332 149.796C609.087 145.604 609.001 141.404 608.804 137.21C608.474 130.201 607.266 123.399 606.372 116.461C605.341 108.449 605.394 100.313 605.373 92.2481C605.361 87.7747 605.476 83.316 605.835 78.8551C606.066 75.9939 607.475 71.7222 606.76 69.0539C606.404 67.7254 605.822 66.6718 604.439 66.1001C603.563 65.7374 602.826 66.0212 601.96 65.9294C600.933 65.8204 600.292 65.6762 599.062 65.3975C593.789 64.2025 588.151 64.3036 582.779 64.3036" fill="#56919C" blush:i="0.0.0.2.0"/><path id="Fill 69" fill-rule="evenodd" clip-rule="evenodd" d="M561.487 83.3524C561.484 86.1407 561.049 90.2553 562.335 92.8809C563.965 96.2113 566.005 95.1702 566.545 92.0406C566.855 90.2474 566.847 84.9406 566.271 83.3524C565.456 81.1043 561.487 79.5731 561.487 83.3524" fill="#89C5CC" blush:i="0.0.0.2.1"/><path id="Fill 71" fill-rule="evenodd" clip-rule="evenodd" d="M566.165 84.429C563.548 84.5213 555.924 83.8929 554.153 85.9977C551.115 89.6078 556.404 90.2472 558.675 90.0451C561.303 89.8113 569.423 90.3817 571.183 88.2746C574.127 84.7494 568.224 84.3539 566.165 84.429" fill="#89C5CC" blush:i="0.0.0.2.2"/><path id="Fill 73" fill-rule="evenodd" clip-rule="evenodd" d="M464.583 177.579C476.091 179.578 472.511 197.125 461.621 193.06C457.827 191.644 452.237 187.552 454.334 182.731C455.9 179.129 461.006 177.236 464.583 177.579M459.818 172.124C452.334 173.384 447.217 181.483 449.783 188.548C452.259 195.363 461.648 200.354 468.573 197.905C475.183 195.566 478.481 186.771 476.253 180.337C473.924 173.615 466.338 171.026 459.818 172.124" fill="#89C5CC" blush:i="0.0.0.2.3"/><path id="Fill 75" fill-rule="evenodd" clip-rule="evenodd" d="M529.816 179.632C526.951 179.869 524.475 181.875 521.592 182.231C518.896 182.563 516.662 181.64 514.138 180.903C511.087 180.012 508.289 179.62 505.171 180.412C502.789 181.017 500.439 182.638 497.964 182.834C493.094 183.218 487.434 177.662 483.632 183.946C481.809 186.959 484.456 188.9 487.182 187.495C490.024 186.03 488.629 185.506 492.155 186.371C495.096 187.092 497.474 187.484 500.42 186.473C503.089 185.558 505.432 183.882 508.333 183.694C511.174 183.51 513.645 184.804 516.36 185.362C519.699 186.048 522.653 185.529 525.817 184.482C528.826 183.487 530.027 182.942 533.064 183.83C534.986 184.393 539.187 186.18 541.058 184.74C544.294 182.251 539.962 181.887 538.256 181.533C535.509 180.964 532.667 179.398 529.816 179.632" fill="#89C5CC" blush:i="0.0.0.2.4"/><path id="Fill 77" fill-rule="evenodd" clip-rule="evenodd" d="M595.384 177.959C595.407 177.977 595.43 177.995 595.452 178.012C595.43 177.995 595.406 177.977 595.384 177.959M592.571 177.371C596.754 177.64 601.277 185.26 595.735 185.53C591.834 185.721 587.469 179.049 592.571 177.371M591.984 171.136C578.758 174.829 584.804 193.477 597.562 191.323C603.357 190.344 605.321 183.631 603.405 178.661C602.582 176.526 600.978 174.727 599.061 173.498C597.647 172.592 593.601 170.686 591.984 171.136" fill="#89C5CC" blush:i="0.0.0.2.5"/><path id="Image Border" fill-rule="evenodd" clip-rule="evenodd" d="M530.276 210.065C541.915 209.666 553.555 209.266 565.206 209.158C571.52 209.1 577.8 209.21 584.105 209.572C586.902 209.732 589.696 209.887 592.495 210.005C592.977 210.026 593.644 209.993 594.38 209.957C596.112 209.872 598.227 209.768 599.222 210.294C604.788 213.238 593.448 213.561 592.07 213.538C588.983 213.486 585.899 213.333 582.815 213.181C580.12 213.048 577.425 212.915 574.727 212.848C557.42 212.423 540.008 213.201 522.671 213.975C518.697 214.152 514.727 214.33 510.763 214.492C506.554 214.665 502.347 214.777 498.14 214.888C492.125 215.048 486.111 215.208 480.097 215.546C477.801 215.675 475.505 215.811 473.208 215.948C469.919 216.144 466.63 216.34 463.339 216.513C460.763 216.649 458.186 216.781 455.607 216.846C455.142 216.857 454.537 216.922 453.876 216.992L453.876 216.992H453.876C452.277 217.163 450.353 217.368 449.313 216.943C448.063 216.432 447.052 215.717 447.739 214.201C448.321 212.92 450.434 213.074 451.974 213.186C452.395 213.217 452.773 213.244 453.065 213.238C457.989 213.143 462.902 212.866 467.817 212.565C469.615 212.455 471.412 212.342 473.209 212.229L473.21 212.229L473.21 212.229L473.21 212.229L473.21 212.229C482.567 211.641 491.915 211.053 501.295 210.893C510.959 210.728 520.617 210.396 530.276 210.065ZM591.065 286.668L594.411 286.628C596.139 286.778 596.912 288.592 595.803 289.986C594.953 291.054 591.684 291.102 589.553 291.133C588.962 291.142 588.459 291.15 588.119 291.177C582.556 291.624 577.004 291.825 571.424 291.879C559.674 291.99 547.968 292.494 536.237 293.163C524.229 293.848 512.211 294.105 500.192 294.363H500.191C491.349 294.552 482.506 294.742 473.667 295.101C468.605 295.307 463.542 295.461 458.478 295.594C457.934 295.608 457.21 295.686 456.391 295.774C453.192 296.12 448.544 296.622 447.491 294.081C446.556 291.827 447.855 290.789 449.755 290.317C449.455 288.982 449.511 287.106 449.543 286.031C449.552 285.708 449.56 285.457 449.555 285.315C449.507 283.968 449.473 282.62 449.44 281.272C449.402 279.745 449.365 278.218 449.306 276.691C449.253 275.306 449.203 273.919 449.153 272.531C448.957 267.059 448.761 261.573 448.34 256.123C448.145 253.607 447.837 251.121 447.529 248.639C447.038 244.676 446.547 240.723 446.525 236.678C446.521 235.95 446.484 235.04 446.443 234.013C446.233 228.761 445.901 220.457 449.161 217.928C454.91 214.573 453.774 224.256 453.266 228.577C453.183 229.291 453.116 229.858 453.1 230.197C452.77 237.382 453.218 244.252 453.942 251.392C454.43 256.214 454.145 261.02 453.859 265.834C453.757 267.553 453.655 269.273 453.588 270.996C453.555 271.848 453.526 272.7 453.496 273.551C453.406 276.172 453.315 278.791 453.118 281.409C453.096 281.692 453.089 282.235 453.08 282.929C453.054 284.886 453.013 288.044 452.594 289.961C453.486 289.922 454.352 289.932 455.067 289.94C455.523 289.945 455.917 289.949 456.219 289.94C457.591 289.898 458.964 289.858 460.337 289.818C464.39 289.699 468.444 289.58 472.497 289.428C482.065 289.068 491.636 288.948 501.207 288.828C512.512 288.686 523.816 288.544 535.115 288.007C553.737 287.122 572.423 286.895 591.065 286.668ZM594.519 216.42C594.509 228.729 595.461 240.7 596.573 252.96C597.261 260.543 597.812 268.155 598.251 275.757C598.272 276.109 598.268 276.696 598.265 277.432V277.433C598.242 281.637 598.194 290.695 602.349 288.528C605.486 286.892 604.28 277.405 603.613 272.155L603.613 272.155C603.467 271.004 603.346 270.056 603.303 269.44C603.212 268.127 603.122 266.814 603.032 265.502C602.614 259.408 602.197 253.318 601.647 247.231L601.531 245.947C600.895 238.917 600.259 231.891 600.146 224.827C600.137 224.243 600.193 223.43 600.257 222.51C600.44 219.851 600.685 216.31 599.58 214.898C598.026 212.911 594.522 213.498 594.519 216.42Z" fill="#56919C" blush:i="0.0.0.2.6"/><path id="Image X" fill-rule="evenodd" clip-rule="evenodd" d="M530.808 246.595C545.674 239.869 560.714 233.065 576.174 228.22C577.291 227.87 577.998 229.022 577.744 229.989C577.482 230.985 575.064 231.835 573.46 232.399C572.98 232.568 572.573 232.711 572.319 232.824C570.16 233.789 567.995 234.741 565.83 235.694C563.613 236.669 561.396 237.645 559.185 238.633C554.587 240.687 549.985 242.732 545.383 244.778C540.454 246.968 535.526 249.158 530.603 251.36C530.416 251.443 530.229 251.526 530.043 251.61C536.737 253.989 543.393 256.474 550.02 259.034C552.285 259.909 554.542 260.802 556.799 261.695C558.076 262.201 559.352 262.706 560.631 263.208C561.047 263.371 561.772 263.593 562.643 263.859C565.481 264.725 569.871 266.066 570.196 267.42C570.724 269.626 564.662 267.492 562.376 266.687C562.072 266.58 561.835 266.497 561.689 266.45C558.314 265.371 554.98 264.17 551.648 262.968L551.187 262.802C548.545 261.851 545.908 260.889 543.271 259.927C538.119 258.049 532.968 256.17 527.788 254.368C527.056 254.113 526.323 253.859 525.59 253.606C517.278 257.339 508.982 261.109 500.714 264.938C496.28 266.991 491.871 269.093 487.473 271.222C486.513 271.687 485.325 272.405 484.033 273.185C480.939 275.056 477.255 277.282 474.721 277.227C473.362 277.197 472.446 276.906 472.304 275.259C472.158 273.559 474.339 272.668 475.907 272.027C476.282 271.873 476.622 271.734 476.887 271.602C481.587 269.251 486.316 266.96 491.059 264.697C500.479 260.205 509.987 255.891 519.529 251.663C519.583 251.639 519.638 251.615 519.693 251.59C514.401 249.799 509.095 248.051 503.777 246.34C503.246 246.169 502.157 245.867 500.726 245.471C493.965 243.599 479.563 239.61 480.204 237.28C480.939 234.615 494.442 239.486 500.419 241.643C501.54 242.047 502.396 242.356 502.854 242.502C510.001 244.779 517.128 247.121 524.218 249.57C526.411 248.584 528.608 247.591 530.808 246.595Z" fill="#89C5CC" blush:i="0.0.0.2.7"/><path id="Fill 117" fill-rule="evenodd" clip-rule="evenodd" d="M467.107 305.133C471.459 305.896 474.529 310.071 474.051 314.442C473.406 320.349 467.519 323.056 462.08 322.286C455.909 321.411 454.611 316.194 457.601 311.176C458.263 310.065 459.024 308.735 460.228 308.15C461.055 307.748 462.109 308.103 462.775 307.779C465.11 306.643 463.706 304.831 467.107 305.133M465.126 301.275C459.816 301.953 450.004 308.098 450.501 314.246C450.932 314.959 451.58 315.25 452.445 315.121C452.237 316.453 452.305 317.77 452.649 319.074C453.153 320.766 454.159 322.153 455.508 323.254C458.285 325.524 462.081 326.081 465.539 325.683C471.995 324.941 477.084 320.528 477.447 313.812C477.801 307.257 472.079 300.397 465.126 301.275" fill="#89C5CC" blush:i="0.0.0.2.8"/><path id="Fill 119" fill-rule="evenodd" clip-rule="evenodd" d="M490.846 309.275C488.463 310.537 484.694 312.477 483.297 314.875C481.821 317.408 483.349 320.179 486.459 318.981C488.928 318.03 490.498 315.008 493.132 314.039C495.456 313.184 496.392 313.62 498.849 314.471C501.38 315.348 503.592 316.196 506.328 315.98C509.767 315.71 512.745 313.716 516.111 313.263C518.945 312.881 521.282 313.983 523.996 314.422C527.145 314.931 529.204 313.739 532.15 313.118C534.154 312.696 537.686 314.414 539.148 313.771C542.434 312.326 538.957 310.56 537.138 309.976C534.073 308.993 532.187 309.86 529.272 310.676C526.107 311.561 524.74 310.895 521.714 310.082C515.593 308.438 510.864 312.415 505.062 311.692C499.691 311.022 496.476 306.293 490.846 309.275" fill="#89C5CC" blush:i="0.0.0.2.9"/><path id="Fill 121" fill-rule="evenodd" clip-rule="evenodd" d="M590.935 306.336C596.827 311.86 590.208 319.719 583.712 315.304C581.426 313.751 581.389 311.255 583.168 309.022C584.796 306.98 588.371 306.184 590.935 306.336V306.336ZM588.751 301.872C583.247 302.943 578.055 305.469 577.556 311.822C577.07 318.02 583.428 320.899 588.769 320.493C600.761 319.579 599.894 299.718 588.751 301.872V301.872Z" fill="#89C5CC" blush:i="0.0.0.2.10"/></g><path id="Fill 79" opacity="0.5" fill-rule="evenodd" clip-rule="evenodd" d="M800.302 96.0057C794.059 96.0908 778.642 97.6923 776.35 102.901C774.61 106.854 779.778 105.986 782.548 104.548C786.295 102.602 789.581 101.438 794.224 100.846C811.91 98.5899 828.904 106.681 846.421 107.704C853.056 108.092 861.064 108.344 867.399 106.829C871.91 105.749 872.499 103.396 867.35 103.038C862.976 102.733 858.135 103.693 853.65 103.666C835.092 103.554 818.595 95.7596 800.302 96.0057" fill="#C1DEE2" blush:i="0.0.0.3"/><g id="Cards" opacity="0.5" blush:i="0.0.0.4"><path id="Fill 173" fill-rule="evenodd" clip-rule="evenodd" d="M154.509 343.362C146.085 343.456 137.665 343.767 129.257 344.299C121.262 344.806 112.587 344.421 104.722 345.971C102.488 346.411 99.4715 348.446 102.441 350.685C104.528 352.259 112.165 350.449 114.657 350.295C123.836 349.731 133.02 349.055 142.212 348.731C150.914 348.423 159.616 348.315 168.322 348.228C169.651 348.215 171.857 347.789 173.181 348.175C175.083 348.729 174.632 348.88 174.774 351.294C175.032 355.668 174.961 360.058 174.874 364.436C174.79 368.673 174.634 372.909 174.649 377.148C174.66 380.172 173.693 386.181 175.21 388.807C177.395 392.588 179.66 388.482 179.823 385.97C180.136 381.165 179.996 376.302 179.997 371.491C179.998 366.976 180.031 362.46 179.872 357.947C179.756 354.687 180.222 348.996 178.466 346.032C176.677 343.013 172.371 343.664 169.228 343.52C164.326 343.295 159.415 343.311 154.509 343.362" fill="#89C5CC" blush:i="0.0.0.4.0"/><path id="Fill 171" fill-rule="evenodd" clip-rule="evenodd" d="M100.91 348.81C100.919 357.294 99.9374 365.722 99.6624 374.196C99.5363 378.093 99.2804 382.371 100.266 386.196C101.261 390.058 104.421 390.895 104.785 386.583C105.522 377.853 105.342 368.8 105.915 359.999C106.118 356.892 107.437 351.198 106.206 348.288C105.122 345.725 100.905 345.234 100.91 348.81" fill="#89C5CC" blush:i="0.0.0.4.1"/><path id="Fill 175" fill-rule="evenodd" clip-rule="evenodd" d="M179.906 386.207C165.276 388.144 149.982 387.438 135.247 387.743C128.178 387.889 121.111 387.898 114.041 387.972C111.573 387.997 105.307 387.059 103.173 388.446C99.7746 390.654 103.461 392.358 105.711 392.407C119.663 392.712 133.771 392.071 147.72 391.613C153.987 391.407 160.275 391.307 166.526 390.774C170.374 390.446 174.579 390.128 178.316 389.094C179.112 388.873 180.846 388.919 181.024 387.833C181.134 387.162 180.935 386.066 179.906 386.207" fill="#89C5CC" blush:i="0.0.0.4.2"/><path id="Fill 177" fill-rule="evenodd" clip-rule="evenodd" d="M119.07 398.54C115.004 398.564 102.751 396.675 101.067 400.64C98.8224 405.928 107.58 404.694 109.935 404.633C115.285 404.496 120.63 404.481 125.981 404.484C131.231 404.486 136.481 404.452 141.73 404.327C143.251 404.291 146.791 404.922 147.666 403.09C148.331 401.699 147.805 400.601 146.579 399.864C143.628 398.091 135.963 399.119 132.509 398.959C128.036 398.754 123.548 398.54 119.07 398.54" fill="#89C5CC" blush:i="0.0.0.4.3"/><path id="Fill 179" fill-rule="evenodd" clip-rule="evenodd" d="M168.537 399.519C166.213 399.657 161.513 398.699 159.431 399.763C157.065 400.972 157.899 402.864 159.941 403.696C161.356 404.272 167.159 403.97 168.537 403.303C169.973 402.607 171.597 399.331 168.537 399.519" fill="#89C5CC" blush:i="0.0.0.4.4"/><path id="Fill 181" fill-rule="evenodd" clip-rule="evenodd" d="M194.013 349.643C191.531 350.324 192.284 364.414 192.22 366.647C192.045 372.767 191.357 380.464 193.39 386.358C194.687 390.115 197.178 389.605 196.753 385.65C196.381 382.178 195.741 378.746 195.464 375.252C194.839 367.345 193.987 358.911 194.578 350.997C194.83 351.457 197.184 355.722 197.738 355.403C197.571 355.503 195.023 349.377 194.013 349.643" fill="#89C5CC" blush:i="0.0.0.4.5"/><path id="Fill 183" fill-rule="evenodd" clip-rule="evenodd" d="M221.93 344.453C216.908 344.528 211.885 344.617 206.864 344.756C202.871 344.867 196.598 344.211 192.937 345.891C188.577 347.89 190.645 352.345 194.74 352.439C198.363 352.523 202.226 351.706 205.881 351.581C215.754 351.242 225.645 351.171 235.522 351.086C244.456 351.009 253.769 351.962 262.624 350.62C263.937 362.283 260.385 373.995 261.593 385.792C261.78 387.623 261.696 390.21 264.028 390.627C266.971 391.154 267.092 388.239 267.204 386.152C267.522 380.193 267.35 374.229 267.786 368.262C268.19 362.732 268.986 357.081 268.313 351.542C267.486 344.727 264.22 345.273 258.447 344.99C246.254 344.392 234.137 344.274 221.93 344.453" fill="#89C5CC" blush:i="0.0.0.4.6"/><path id="Fill 185" fill-rule="evenodd" clip-rule="evenodd" d="M205.098 385.866C202.538 385.931 198.288 385.142 196.648 387.596C194.942 390.15 196.966 392.377 199.447 392.901C202.384 393.521 206.213 392.671 209.261 392.662C212.435 392.652 215.61 392.688 218.784 392.7C232.392 392.753 246.058 392.959 259.657 392.397C261.556 392.318 266.946 392.955 268.26 391.133C269.427 389.518 268.611 388.069 267.074 387.246C264.554 385.895 259.378 386.409 256.575 386.302C253.113 386.17 249.646 386.127 246.183 386.073C232.511 385.862 218.768 385.528 205.098 385.866" fill="#89C5CC" blush:i="0.0.0.4.7"/><path id="Fill 187" fill-rule="evenodd" clip-rule="evenodd" d="M216.609 397.67C211.517 397.757 206.083 397.533 201.041 398.306C196.608 398.985 196.062 403.27 200.834 403.772C205.22 404.233 210.537 403.372 214.944 403.089C216.509 402.988 218.329 403.131 219.079 401.4C219.862 399.593 218.365 397.859 216.609 397.67" fill="#89C5CC" blush:i="0.0.0.4.8"/><path id="Fill 189" fill-rule="evenodd" clip-rule="evenodd" d="M255.108 398.12C252.39 398.188 244.451 397.019 243.104 400.124C240.863 405.292 251.611 403.329 253.673 403.253C256.272 403.157 266.4 404.674 266.402 400.537C266.404 396.481 257.597 398.058 255.108 398.12" fill="#89C5CC" blush:i="0.0.0.4.9"/><path id="Fill 191" fill-rule="evenodd" clip-rule="evenodd" d="M100.47 423.804C100.477 433.206 99.8915 442.697 100.749 452.076C101.104 455.955 101.043 463.386 103.29 466.674C104.885 469.008 107.097 468.845 107.968 466.042C108.55 464.168 107.619 460.421 107.515 458.416C107.415 456.493 107.298 454.57 107.209 452.645C106.98 447.688 106.999 442.739 107.067 437.779C107.125 433.524 108.149 427.895 107.184 423.804C106.283 419.991 100.47 419.099 100.47 423.804" fill="#56919C" blush:i="0.0.0.4.10"/><path id="Fill 193" fill-rule="evenodd" clip-rule="evenodd" d="M194.967 415.532C178.654 415.941 162.304 415.576 146.006 416.383C137.968 416.781 129.961 417.656 121.963 418.527C118.034 418.956 114.107 419.398 110.185 419.881C109.001 420.027 99.1656 420.408 102.865 424.148C104.48 425.782 109.621 424.076 111.655 423.835C115.593 423.37 119.539 422.965 123.482 422.548C130.987 421.754 138.5 421.002 146.037 420.585C163.786 419.601 181.609 419.896 199.375 419.241C204.182 419.064 208.973 418.937 213.781 419.126C215.044 419.175 224.321 419.647 220.293 416.22C218.388 414.6 211.207 415.436 208.827 415.387C204.207 415.292 199.585 415.416 194.967 415.532" fill="#56919C" blush:i="0.0.0.4.11"/><path id="Wireframy Stuff" fill-rule="evenodd" clip-rule="evenodd" d="M217.205 431.373C217.125 427.029 217.044 422.684 216.846 418.344C216.638 413.773 222.865 413.081 224.711 416.781C226.041 419.445 225.807 423.977 225.607 427.862C225.526 429.427 225.45 430.888 225.485 432.078C225.564 434.806 225.765 437.628 225.968 440.486C226.48 447.68 227.009 455.111 225.664 461.902C225.01 465.202 222.227 466.936 220.374 465.138C220.371 465.141 220.369 465.145 220.366 465.149C219.669 466.176 217.5 466.174 215.902 466.172C215.462 466.172 215.065 466.171 214.755 466.192C210.378 466.49 206.082 466.992 201.743 467.642C193.099 468.938 184.53 469.734 175.793 469.95C169.864 470.097 163.927 470.146 157.989 470.195C146.617 470.29 135.24 470.384 123.904 471.162C120.083 471.424 116.319 471.874 112.56 472.594C112.24 472.655 111.884 472.734 111.506 472.818C108.711 473.44 104.665 474.34 104.388 470.434C104.059 465.797 114.108 465.19 119.278 464.878C120.068 464.83 120.744 464.789 121.251 464.742C136.952 463.282 152.899 463.508 168.666 463.731C169.43 463.742 170.194 463.753 170.957 463.764C172.187 463.781 173.417 463.801 174.647 463.821C181.398 463.932 188.141 464.043 194.889 463.631C197.961 463.443 201.072 463.346 204.189 463.25C209.162 463.095 214.149 462.941 219.013 462.414C218.279 459.57 218.151 456.214 218.03 453.05C217.983 451.819 217.937 450.616 217.857 449.485C217.43 443.456 217.318 437.415 217.205 431.373Z" fill="#56919C" blush:i="0.0.0.4.12"/><path id="Fill 199" fill-rule="evenodd" clip-rule="evenodd" d="M230.408 421.693C228.204 421.992 226.366 423.879 227.35 426.271C228.589 429.283 232.28 428.106 234.718 427.915C242.468 427.308 250.56 428.521 258.217 427.606C260.308 427.356 263.341 426.217 261.464 423.407C260.053 421.296 254.911 421.666 252.725 421.464C245.25 420.772 237.873 420.957 230.408 421.693" fill="#C1DEE2" blush:i="0.0.0.4.13"/><path id="Fill 201" fill-rule="evenodd" clip-rule="evenodd" d="M243.488 434.834C240.483 435.036 233.486 434.877 232.219 438.297C229.947 444.432 238.846 442.27 241.556 441.921C244.704 441.516 252.124 442.601 253.8 439.549C256.797 434.091 246.124 434.652 243.488 434.834" fill="#C1DEE2" blush:i="0.0.0.4.14"/><path id="Fill 203" fill-rule="evenodd" clip-rule="evenodd" d="M235.759 448.298C234.333 449.724 234.331 452.271 235.759 453.698C237.507 455.444 241.317 455.082 243.614 455.209C246.818 455.388 256.021 457.083 257.612 453.31C259.759 448.219 251.425 448.326 248.684 448.037C245.516 447.703 238.385 445.671 235.759 448.298" fill="#C1DEE2" blush:i="0.0.0.4.15"/><path id="Fill 205" fill-rule="evenodd" clip-rule="evenodd" d="M123.437 361.159C123.437 366.632 131.985 366.632 131.985 361.159C131.985 355.715 123.437 355.632 123.437 361.159" fill="#89C5CC" blush:i="0.0.0.4.16"/><path id="Fill 207" fill-rule="evenodd" clip-rule="evenodd" d="M139.651 361.221C139.651 367.478 149.388 367.465 149.388 361.221C149.388 354.985 139.651 354.922 139.651 361.221" fill="#89C5CC" blush:i="0.0.0.4.17"/><path id="Fill 209" fill-rule="evenodd" clip-rule="evenodd" d="M129.842 369.54C125.11 370.847 129.47 374.858 131.667 375.774C135.16 377.23 139.927 378.304 143.42 376.12C144.81 375.251 145.938 374.097 144.92 372.411C143.834 370.615 142.349 371.414 140.696 371.579C138.603 371.79 136.911 371.757 134.89 371.086C133.381 370.585 131.488 369.087 129.842 369.54" fill="#89C5CC" blush:i="0.0.0.4.18"/><path id="Fill 211" fill-rule="evenodd" clip-rule="evenodd" d="M215.69 361.505C215.69 365.207 221.438 365.207 221.438 361.505C221.438 357.803 215.69 357.803 215.69 361.505" fill="#89C5CC" blush:i="0.0.0.4.19"/><path id="Fill 213" fill-rule="evenodd" clip-rule="evenodd" d="M228.402 362.062C228.402 366.175 234.788 366.176 234.788 362.062C234.788 357.949 228.402 357.949 228.402 362.062" fill="#89C5CC" blush:i="0.0.0.4.20"/><path id="Fill 215" fill-rule="evenodd" clip-rule="evenodd" d="M227.929 370.988C224.575 371.421 214.873 372.404 214.33 376.539C213.493 382.918 224.123 377.755 226.549 377.254C229.64 376.616 232.399 376.783 235.484 376.907C237.178 376.974 239.431 377.249 239.253 374.669C238.962 370.432 230.861 370.612 227.929 370.988" fill="#89C5CC" blush:i="0.0.0.4.21"/><path id="Fill 217" fill-rule="evenodd" clip-rule="evenodd" d="M143.592 429.814C141.16 430.463 137.98 434.666 139.653 437.239C142.396 441.458 143.605 434.98 144.753 434.356C146.842 433.222 148.537 437.368 150.72 435.193C154.164 431.761 145.76 429.234 143.592 429.814" fill="#56919C" blush:i="0.0.0.4.22"/><path id="eye" fill-rule="evenodd" clip-rule="evenodd" d="M171.45 426.696C168.567 426.722 162.48 430.804 162.049 433.818C161.793 435.609 162.98 437.33 164.911 437.354C167.54 437.386 168.375 433.968 170.654 433.253C173.112 432.482 172.747 434.258 174.87 435.178C176.424 435.852 178.367 435.57 178.907 433.66C179.925 430.057 174.413 426.639 171.45 426.696" fill="#56919C" blush:i="0.0.0.4.23"/><path id="Fill 221" fill-rule="evenodd" clip-rule="evenodd" d="M149.38 443.954C144.768 446.656 152.356 452.449 154.987 453.174C158.958 454.266 166.951 452.226 167.893 447.375C168.267 445.444 167.059 443.695 164.929 444.041C163.174 444.326 162.049 446.526 160.424 447.315C158.23 448.378 156.28 448.306 154.417 446.705C152.898 445.4 152.085 442.376 149.38 443.954" fill="#56919C" blush:i="0.0.0.4.24"/><path id="Fill 223" fill-rule="evenodd" clip-rule="evenodd" d="M152.722 483.885C148.602 484.764 144.413 484.174 140.273 485C136.051 485.843 133.528 487.438 129.606 485.831C129.421 485.753 129.237 485.675 129.053 485.597C126.017 484.29 122.835 483.903 119.658 485.987C117.777 487.22 112.068 491.486 112.756 494.089C114.247 499.731 120.671 490.883 122.309 490.021C125.433 488.376 127.574 490.477 130.79 491.07C134.642 491.78 137.741 489.745 141.37 488.934C145.613 487.986 150.387 487.656 154.705 487.148C156.41 486.948 162.871 488.297 163.454 486.174C164.456 482.527 154.342 483.542 152.722 483.885" fill="#C1DEE2" blush:i="0.0.0.4.25"/><path id="Fill 225" fill-rule="evenodd" clip-rule="evenodd" d="M182.449 495.25C182.719 495.454 182.503 495.29 182.449 495.25ZM193.989 483.665C197.517 483.307 208.802 480.787 211.12 484.432C212.629 486.806 210.234 495.568 207.949 496.702C206.122 497.607 201.869 496.606 199.865 496.535C196.136 496.404 192.4 496.346 188.675 496.113C187.426 496.035 183.407 496.265 182.428 495.159C181.272 493.854 181.323 486.895 181.051 485.169C184.294 486.219 190.598 484.009 193.989 483.665M201.521 480.091C197.004 480.287 192.487 480.626 188.003 481.232C185.504 481.57 182.971 482.468 180.663 482.894C179.919 483.031 178.711 482.65 177.799 483.091C175.132 484.379 177.467 493.089 178.11 495.415C179.098 498.99 181.583 499.569 185.066 499.905C189.653 500.35 194.334 500.21 198.936 500.154C203.371 500.099 209.352 501.082 211.841 496.632C213.45 493.754 215.175 487.053 213.8 483.846C211.991 479.626 205.236 479.935 201.521 480.091" fill="#C1DEE2" blush:i="0.0.0.4.26"/><path id="quare" fill-rule="evenodd" clip-rule="evenodd" d="M252.111 497.644C251.869 497.954 251.869 497.954 252.111 497.644ZM253.101 496.45C253.026 496.564 252.679 496.93 253.101 496.45ZM242.327 496.122C244.319 495.748 246.311 495.377 248.304 495.013C246.416 497.656 244.428 496.564 241.203 496.334C241.578 496.263 241.953 496.193 242.327 496.122M232.826 495.187C233.331 495.018 233.836 494.85 234.341 494.681C234.325 495.065 234.408 495.425 234.588 495.76C233.724 495.666 232.861 495.566 231.998 495.46C232.274 495.369 232.551 495.278 232.826 495.187M228.424 491.936C228.395 491.243 229.438 491.719 230.036 491.672C228.884 492.686 228.346 492.775 228.424 491.936M244.169 484.072C244.321 483.878 244.522 483.888 244.771 484.101C244.499 484.192 243.449 484.638 244.169 484.072M254.38 482.871C254.407 482.871 254.974 483.636 254.38 482.871ZM254.094 482.62C254.242 482.734 254.242 482.734 254.094 482.62ZM252.819 482.471C254.907 482.824 254.748 485.274 252.819 482.471ZM228.291 482.304C227.866 482.657 228.012 482.315 228.291 482.304ZM236.275 477.088C232.73 477.294 226.224 477.087 223.264 478.975C219.401 481.44 221.434 489.926 221.779 493.646C222.29 499.144 224.877 500.71 230.056 501.287C236.236 501.976 242.585 502.104 248.797 501.941C254.391 501.794 257.577 499.87 258.602 493.98C258.916 492.177 259.712 489.389 259.687 487.663C259.67 486.466 259.073 485.92 258.847 484.902C257.563 479.105 255.414 478.417 249.473 478.165C245.1 477.979 240.566 476.863 236.275 477.088" fill="#89C5CC" blush:i="0.0.0.4.27"/></g><g id="Profile" opacity="0.5" blush:i="0.0.0.5"><path id="face_3" fill-rule="evenodd" clip-rule="evenodd" d="M526.032 343.913C535.044 344.105 545.268 349.093 543.843 359.659C542.799 367.399 536.098 373.682 528.336 374.224C519.994 374.806 511.174 368.404 510.041 359.91C508.766 350.357 517.22 343.722 526.032 343.913M521.613 339.612C517.959 340.157 514.468 342.076 511.251 343.794C510.023 344.451 503.798 348.452 508.681 349.446C496.916 368.419 524.603 386.043 540.17 373.712C547.161 368.174 550.841 357.675 546.322 349.457C541.649 340.957 530.566 338.267 521.613 339.612" fill="#89C5CC" blush:i="0.0.0.5.0"/><path id="Fill 231" fill-rule="evenodd" clip-rule="evenodd" d="M519.459 355.762C519.459 359.306 524.96 359.306 524.96 355.762C524.96 352.218 519.459 352.218 519.459 355.762" fill="#89C5CC" blush:i="0.0.0.5.1"/><path id="Fill 233" fill-rule="evenodd" clip-rule="evenodd" d="M529.657 356.329C529.657 360.171 535.621 360.171 535.621 356.329C535.621 352.488 529.657 352.488 529.657 356.329" fill="#89C5CC" blush:i="0.0.0.5.2"/><path id="Fill 235" fill-rule="evenodd" clip-rule="evenodd" d="M522.775 363.927C521.972 366.842 531.123 368.337 531.428 364.964C531.573 363.352 523.333 361.894 522.775 363.927" fill="#89C5CC" blush:i="0.0.0.5.3"/><path id="Fill 237" fill-rule="evenodd" clip-rule="evenodd" d="M549.599 362.126C560.129 360.862 570.985 361.446 581.565 361.749C584.213 361.826 586.86 361.9 589.509 361.944C591.192 361.972 594.828 362.78 596.298 361.992C602.315 358.765 590.511 357.205 588.84 357.057C578.316 356.191 562.075 355.882 551.52 356.29C548.398 356.412 547.723 362.351 549.599 362.126" fill="#89C5CC" blush:i="0.0.0.5.4"/><path id="Hola :)" fill-rule="evenodd" clip-rule="evenodd" d="M596.98 414.469C597.07 403.437 597.466 392.33 598.314 381.33C598.659 376.847 599.074 372.37 599.417 367.886C599.579 365.775 600.329 362.817 599.088 360.964C597.809 359.055 595.003 358.658 593.312 360.35C591.288 362.97 591.876 367.367 591.624 370.537C591.237 375.41 590.77 380.28 590.537 385.164C590.088 394.616 589.983 404.233 590.743 413.673C591.101 418.127 591.879 422.473 592.914 426.817C593.385 428.795 597.132 437.603 596.345 438.818C595.124 440.702 586.099 439.99 584.141 440.042C579.117 440.177 574.092 440.265 569.067 440.361C564.765 440.443 560.463 440.502 556.16 440.54C554.452 440.555 544.414 440.251 546.641 442.784C521.741 444.519 496.366 441.622 471.618 440.629C470.368 440.578 468.323 440.223 466.435 440.121C466.209 439.209 466.023 438.395 465.977 437.828C465.652 433.851 465.567 429.86 465.214 425.884C464.569 418.608 463.318 411.407 462.574 404.144C461.831 396.889 461.906 389.612 461.473 382.339C461.399 381.093 461.224 370.885 458.648 368.404C459.869 368.867 461.839 368.928 462.973 368.836C472.153 368.096 481.266 366.5 490.368 365.131C492.972 364.74 498.881 365.017 501.041 363.716C502.91 362.589 503.65 358.638 500.398 358.958C491.322 359.93 482.296 361.439 473.292 362.924C470.883 363.321 468.481 363.746 466.079 364.18C464.475 364.47 460.241 364.448 458.997 365.415C457.486 366.589 457.326 367.388 457.838 367.919C457.126 367.723 456.273 368.031 455.248 369.056C453.31 371.578 455.132 377.789 455.363 380.746C455.64 384.293 455.777 387.845 455.938 391.399C456.25 398.275 456.97 405.056 458.076 411.85C459.316 419.46 460.371 427.102 461.614 434.71C461.937 436.691 462.359 438.623 462.898 440.537C459.549 442.249 461.826 444.973 464.481 445.456C464.5 445.46 464.52 445.462 464.539 445.466C465.367 447.485 466.525 449.355 467.429 446.65C467.498 446.442 467.531 446.187 467.539 445.9C474.398 446.676 481.938 446.194 488.691 446.47C503.319 447.068 518.037 447.965 532.68 447.51C538.477 447.33 544.291 446.815 550.039 446.042C553.407 445.589 556.788 445.048 560.102 444.297C560.339 444.243 560.7 444.187 561.117 444.118C561.185 444.116 561.254 444.114 561.318 444.114C566.393 444.037 571.463 443.901 576.533 443.69C580.789 443.513 585.064 443.422 589.306 443.021C591.941 442.772 597.51 442.818 599.127 440.168C600.598 437.759 598.139 431.552 597.79 428.846C597.176 424.08 596.941 419.27 596.98 414.469" fill="#C1DEE2" blush:i="0.0.0.5.5"/><path id="Fill 241" fill-rule="evenodd" clip-rule="evenodd" d="M545.556 382.614C541.501 382.961 537.752 384.865 533.66 384.889C530.225 384.908 526.844 383.882 523.39 384.034C519.339 384.21 517.11 386.83 513.562 387.707C510.737 388.404 508.957 386.241 506.472 385.285C503.335 384.077 501.017 384.701 498.328 386.528C496.352 387.87 491.744 390.883 491.78 393.599C491.886 401.825 501.483 390.462 503.417 390.324C505.988 390.141 508.86 393.071 511.595 393.238C515.211 393.459 517.529 391.128 520.859 390.279C524.226 389.42 527.866 390.472 531.242 390.799C535.093 391.171 538.464 390.313 542.19 389.394C545.801 388.503 548.878 388.55 552.547 389.298C555.023 389.803 561.192 392.739 562.276 388.964C563.751 383.823 548.39 382.373 545.556 382.614" fill="#89C5CC" blush:i="0.0.0.5.6"/><path id="Fill 243" fill-rule="evenodd" clip-rule="evenodd" d="M546.79 398.302C538.482 399.109 530.123 399.816 521.777 400.042C518.162 400.141 504.266 398.591 505.498 403.185C506.555 407.123 525.465 404.643 529.317 404.343C533.569 404.013 537.814 403.551 542.046 403.016C543.545 402.826 547.166 403.022 548.224 401.765C549.233 400.565 548.736 398.108 546.79 398.302" fill="#89C5CC" blush:i="0.0.0.5.7"/><path id="have a nice day :)" fill-rule="evenodd" clip-rule="evenodd" d="M489.475 419.221C489.286 419.301 489.286 419.301 489.475 419.221ZM491.228 419.197C493.299 419.132 492.855 418.04 494.921 418.609C495.874 418.871 495.972 418.482 496.711 419.393C498.152 421.17 496.795 425.039 495.374 426.471C490.113 431.773 483.799 419.433 491.228 419.197M491.228 413.995C476.825 414.479 482.851 436.728 495.387 432.186C500.564 430.311 503.818 421.861 500.773 417.112C499.292 414.802 497.403 414.391 494.921 414.231C494.345 414.194 493.62 415.031 493.261 414.993C492.406 414.903 492.486 413.948 491.228 413.995" fill="#89C5CC" blush:i="0.0.0.5.8"/><path id="espero" fill-rule="evenodd" clip-rule="evenodd" d="M525.671 419.983C525.414 419.904 530.219 421.301 529.693 420.754C530.815 421.921 529.306 424.68 528.037 425.161C524.964 426.328 523.24 421.549 525.671 419.983M527.803 413.95C523.293 414.589 519.813 416.467 519.196 421.482C518.628 426.111 521.755 430.799 526.689 430.889C537.442 431.086 537.769 412.56 527.803 413.95" fill="#89C5CC" blush:i="0.0.0.5.9"/><path id="hola" fill-rule="evenodd" clip-rule="evenodd" d="M576.893 420.186C577.522 428.406 568.999 420.882 576.893 420.186ZM573.235 411.392C572.489 412.666 573.125 414.018 574.25 414.759C564.196 416.884 566.473 432.013 576.704 429.778C581.907 428.641 582.863 423.17 582.088 418.653C581.719 416.505 576.366 406.038 573.235 411.392" fill="#89C5CC" blush:i="0.0.0.5.10"/></g><path id="Fill 251" opacity="0.5" fill-rule="evenodd" clip-rule="evenodd" d="M626.16 419.286C621.925 419.819 611.913 423.129 612.001 426.684C612.136 432.234 620.645 426.172 622.538 425.357C632.705 420.978 645.875 426.652 656.462 427.86C661.316 428.413 670.812 429.436 675.1 427.134C682.724 423.04 665.091 424.065 662.845 423.9C650.638 423.008 638.494 417.727 626.16 419.286" fill="#C1DEE2" blush:i="0.0.0.6"/><g id="List" opacity="0.5" blush:i="0.0.0.7"><path id="Fill 253" fill-rule="evenodd" clip-rule="evenodd" d="M850.586 380.268C850.583 385.946 850.296 391.742 851.343 397.352C851.66 399.051 851.91 402.304 853.701 403.185C855.501 404.07 857.246 403.076 857.693 401.231C858.215 399.085 857.071 395.872 856.955 393.619C856.796 390.54 856.785 387.458 856.784 384.376C856.783 382.15 857.515 378.569 854.887 377.424C852.934 376.572 850.586 378.156 850.586 380.268" fill="#C1DEE2" blush:i="0.0.0.7.0"/><path id="Fill 255" fill-rule="evenodd" clip-rule="evenodd" d="M940.353 371.287C921.541 373.176 902.457 373.568 883.576 374.553C874.849 375.008 864.301 374.427 856.079 377.805C854.552 378.433 849.084 381.925 853.523 383.347C854.907 383.79 856.313 382.299 857.449 381.8C859.341 380.969 861.532 380.712 863.55 380.387C880.706 377.632 898.651 378.112 915.984 376.824C920.425 376.494 924.869 376.155 929.301 375.719C932.467 375.407 939.122 373.125 942.044 374.292C947.038 376.287 946.921 389.247 947.019 393.704C947.071 396.009 944.833 404.283 949.281 403.444C952.84 402.773 951.552 394.177 951.274 391.826C950.546 385.662 949.305 370.38 940.353 371.287" fill="#C1DEE2" blush:i="0.0.0.7.1"/><path id="Fill 257" fill-rule="evenodd" clip-rule="evenodd" d="M947.291 403.146C930.95 404.621 914.233 403.173 897.824 403.754C889.224 404.058 880.632 404.543 872.03 404.827C868.31 404.95 864.586 404.955 860.864 404.982C859.084 404.994 850.983 406.073 855.994 409.602C858.213 411.165 865.285 409.906 867.831 409.876C871.656 409.831 875.478 409.672 879.3 409.522C888.152 409.176 896.999 408.696 905.856 408.457C914.328 408.227 922.805 408.178 931.277 407.949C935.492 407.834 939.765 407.705 943.943 407.09C944.886 406.951 947.948 406.84 948.603 405.789C949.222 404.795 948.787 403.001 947.291 403.146" fill="#89C5CC" blush:i="0.0.0.7.2"/><path id="Fill 259" fill-rule="evenodd" clip-rule="evenodd" d="M866.979 390.877C866.891 391.085 866.891 391.085 866.979 390.877ZM874.055 388.726C874.313 388.835 874.313 388.835 874.055 388.726ZM873.724 388.666C877.537 392.553 871.673 397.193 868.101 393.4C864.309 389.373 871.269 388.679 873.724 388.666M869.679 382.786C856.544 385.123 861.194 402.629 873.463 400.099C878.849 398.989 881.929 393.563 880.075 388.351C879.351 386.314 877.772 384.079 875.574 383.438C874.478 383.118 873.508 383.621 872.464 383.503C871.468 383.391 870.915 382.563 869.679 382.786" fill="#C1DEE2" blush:i="0.0.0.7.3"/><path id="Fill 261" fill-rule="evenodd" clip-rule="evenodd" d="M919.95 387.713C912.03 387.738 904.107 388.074 896.187 388.225C893.758 388.27 887.514 387.183 887.505 391.013C887.494 395.105 894.449 393.594 896.763 393.539C904.619 393.351 912.495 393.007 920.319 392.259C922.296 392.07 929.138 392.396 929.131 389.708C929.123 386.86 921.546 387.713 919.95 387.713" fill="#C1DEE2" blush:i="0.0.0.7.4"/><path id="Fill 263" fill-rule="evenodd" clip-rule="evenodd" d="M938.869 414.421C919.279 414.947 899.718 415.13 880.144 416.133C872.822 416.508 865.51 416.787 858.178 416.787C856.766 416.787 853.922 416.24 852.593 417.129C848.986 419.541 853.093 421.612 855.444 421.742C871.525 422.634 887.838 420.413 903.909 419.912C913.318 419.619 922.728 419.532 932.131 419.053C934.696 418.923 937.262 418.771 939.823 418.572C941.296 418.458 945.191 418.771 946.381 417.909C951.579 414.147 940.621 414.374 938.869 414.421" fill="#89C5CC" blush:i="0.0.0.7.5"/><path id="Fill 265" fill-rule="evenodd" clip-rule="evenodd" d="M848.986 424C848.801 429.079 848.782 434.07 849.447 439.121C849.708 441.108 849.828 443.364 852.158 443.869C854.274 444.327 855.347 442.727 855.785 440.953C856.855 436.62 855.914 430.384 855.901 425.883C855.896 423.657 855.893 421.166 853.143 420.663C851.045 420.279 849.066 421.795 848.986 424" fill="#89C5CC" blush:i="0.0.0.7.6"/><path id="Fill 267" fill-rule="evenodd" clip-rule="evenodd" d="M959.634 436.245C927.922 437.916 896.252 439.375 864.518 440.716C862.043 440.821 842.817 440.611 849.538 447.316C851.614 449.387 856.963 447.984 859.648 447.853C863.682 447.654 867.719 447.503 871.754 447.298C887.75 446.483 903.789 446.264 919.773 445.35C928.57 444.847 937.346 444.06 946.097 443.036C950.259 442.549 955.426 442.599 959.324 440.968C961.33 440.129 963.494 436.04 959.634 436.245" fill="#89C5CC" blush:i="0.0.0.7.7"/><path id="Fill 269" fill-rule="evenodd" clip-rule="evenodd" d="M941.4 410.48C938.988 412.882 940.228 417.62 940.41 420.589C940.66 424.674 940.964 428.762 941.474 432.825C941.806 435.464 941.63 439.571 943.038 441.851C944.687 444.521 948.317 444.225 949.808 441.646C951.127 439.365 950.459 434.566 950.425 432.038C950.378 428.542 950.16 425.041 949.953 421.552C949.779 418.637 950.44 413.964 948.836 411.469C947.207 408.933 943.66 408.232 941.4 410.48" fill="#89C5CC" blush:i="0.0.0.7.8"/><path id="Fill 271" fill-rule="evenodd" clip-rule="evenodd" d="M868.917 429.119C868.634 429.337 868.634 429.337 868.917 429.119ZM874.549 428.413C879.805 429.47 871.307 435.606 868.621 431.395C868.202 430.737 867.983 429.928 868.657 429.356C869.271 428.834 869.658 429.758 870.238 429.51C871.238 429.082 873.482 428.373 874.549 428.413M873.824 423.375C870.236 423.659 865.303 423.881 863.527 427.478C861.141 432.309 865.221 437.04 869.942 437.775C874.485 438.483 881.267 435.967 881.631 430.669C881.924 426.397 877.861 423.048 873.824 423.375" fill="#89C5CC" blush:i="0.0.0.7.9"/><path id="Fill 273" fill-rule="evenodd" clip-rule="evenodd" d="M903.781 425.93C900.067 425.99 892.765 424.892 889.529 426.702C886.327 428.494 887.755 431.684 890.676 432.447C892.607 432.951 895.763 432.138 897.773 432.056C900.418 431.948 903.064 431.925 905.711 431.888C910.161 431.828 914.609 431.879 919.06 431.879C923.605 431.879 928.229 432.003 932.766 431.669C938.508 431.246 938.353 426.947 932.738 426.41C923.2 425.497 913.351 425.78 903.781 425.93" fill="#89C5CC" blush:i="0.0.0.7.10"/><path id="Fill 275" fill-rule="evenodd" clip-rule="evenodd" d="M894.293 474.08C894.293 476.122 896.105 474.08 896.092 474.08C896.105 474.08 894.293 472.037 894.293 474.08" fill="#89C5CC" blush:i="0.0.0.7.11"/><path id="Fill 277" fill-rule="evenodd" clip-rule="evenodd" d="M853.297 457.637C853.414 463.574 853.491 469.517 853.744 475.45C853.825 477.326 853.287 480.989 855.561 481.945C858.092 483.01 858.879 480.356 859.171 478.558C860.094 472.862 859.189 466.358 859.1 460.594C859.07 458.659 859.489 455.965 857.291 455C855.498 454.212 853.261 455.674 853.297 457.637" fill="#89C5CC" blush:i="0.0.0.7.12"/><path id="Fill 279" fill-rule="evenodd" clip-rule="evenodd" d="M950.935 457.73C951.085 458.084 951.085 458.084 950.935 457.73ZM951.147 457.67C951.269 457.721 951.76 457.927 951.147 457.67ZM903.183 452.871C894.069 453.014 884.948 453.122 875.839 453.512C871.952 453.679 868.019 453.814 864.145 454.18C861.401 454.44 854.585 454.548 852.805 456.79C849.132 461.419 856.92 460.156 858.598 459.78C861.651 459.096 864.767 458.877 867.886 458.712C874.653 458.355 881.423 458.165 888.199 458.028C906.574 457.658 924.962 457.715 943.34 457.632C945.119 457.624 948.335 456.908 949.978 457.628C951.625 458.349 951.532 460.123 951.703 462.182C951.93 464.922 950.123 470.143 951.5 472.448C953.636 476.023 956.742 472.987 957.217 470.381C957.873 466.78 956.833 462.456 955.815 459.013C954.379 454.157 952.385 453.964 947.688 453.584C942.199 453.141 936.731 452.872 931.224 452.821C921.879 452.735 912.528 452.726 903.183 452.871" fill="#89C5CC" blush:i="0.0.0.7.13"/><path id="Fill 281" fill-rule="evenodd" clip-rule="evenodd" d="M939.234 477.414C919.464 479.71 899.132 478.357 879.257 478.438C874.424 478.458 869.587 478.497 864.758 478.731C862.208 478.854 856.163 478.151 854.416 480.119C850.733 484.266 857.367 484.869 859.789 484.698C864.686 484.349 869.594 484.191 874.504 484.153C891.796 484.019 909.187 484.826 926.465 483.973C933.704 483.615 940.781 482.377 947.886 480.993C949.46 480.687 960.235 478.638 954.091 476.183C950.46 474.732 943.048 476.969 939.234 477.414" fill="#89C5CC" blush:i="0.0.0.7.14"/><path id="Fill 284" fill-rule="evenodd" clip-rule="evenodd" d="M881.512 469.822C881.374 469.999 881.374 469.999 881.512 469.822ZM881.38 469.791C881.333 469.918 881.187 470.232 881.38 469.791ZM880.133 468.183C880.161 468.22 880.279 468.371 880.133 468.183ZM880.085 468.171C880.561 468.739 880.881 469.373 881.046 470.072C876.95 471.182 875.372 467.868 880.085 468.171M879.825 468.016C879.827 468.017 880.403 468.259 879.825 468.016ZM873.097 463.079C870.446 466.38 868.257 470.227 871.563 473.998C874.518 477.37 880.463 477.805 884.214 475.554C888.077 473.235 887.744 468.352 885.048 465.165C883.313 463.113 881.907 463.17 879.389 462.835C877.675 462.607 874.551 461.274 873.097 463.079" fill="#89C5CC" blush:i="0.0.0.7.15"/><path id="Fill 286" fill-rule="evenodd" clip-rule="evenodd" d="M900.5 469.189C900.5 473.585 919.481 471.693 922.858 471.688C925.687 471.684 942.791 473.244 941.563 468.72C940.554 465.003 923.707 466.851 920.119 466.845C917.018 466.841 900.5 464.712 900.5 469.189" fill="#89C5CC" blush:i="0.0.0.7.16"/></g><g id="Checkmark!" opacity="0.5" blush:i="0.0.0.8"><path id="Fill 292" fill-rule="evenodd" clip-rule="evenodd" d="M545.7 510.376C555.206 511.756 565.094 516.227 565.011 527.292C564.941 536.595 557.139 546.496 547.119 545.94C538.103 545.441 529.612 535.58 528.483 527.13C527.898 522.752 528.993 518.039 531.568 514.437C534.942 509.719 540.296 509.726 545.7 510.376M541.21 504.362C534.334 504.399 529.304 506.886 525.049 512.136C523.523 514.018 521.748 516.044 520.586 518.177C519.501 520.169 519.691 525.234 523.415 522.859C522.498 532.665 528.229 542.182 536.467 547.207C545.422 552.669 555.544 551.604 562.997 543.948C569.819 536.94 572.22 525.103 567.229 516.436C562.241 507.774 550.683 504.269 541.21 504.362" fill="#89C5CC" blush:i="0.0.0.8.0"/><path id="Fill 294" fill-rule="evenodd" clip-rule="evenodd" d="M561.826 501.733C557.424 504.96 553.405 509.208 550.067 513.517C546.804 517.728 544.647 522.987 540.727 526.66C538.748 524.504 536.429 518.681 532.48 520.991C529.203 522.908 531.313 526.204 532.909 528.369C537.03 533.958 541.606 536.208 546.891 530.685C551.691 525.67 554.417 518.98 558.905 513.676C560.874 511.349 563.915 509.04 565.482 506.47C566.903 504.141 565.146 499.294 561.826 501.733" fill="#89C5CC" blush:i="0.0.0.8.1"/></g><g id="Whiteboard Stuff" opacity="0.5" blush:i="0.0.0.9"><path id="Wireframy Stuff_2" fill-rule="evenodd" clip-rule="evenodd" d="M811.175 151.878C811.182 152.318 811.188 152.731 811.197 153.112C811.403 161.416 811.284 170.146 810.609 178.431C810.376 181.292 808.295 184.917 805.921 180.974C804.877 179.24 805.024 175.68 805.131 173.061C805.16 172.358 805.186 171.724 805.186 171.21C805.184 168.288 805.337 165.336 805.491 162.375C805.792 156.588 806.095 150.77 805.238 145.086C805.221 144.971 805.204 144.861 805.189 144.754C804.816 142.255 804.791 142.082 802.042 142.139C800.896 142.163 799.75 142.194 798.605 142.225C797.478 142.255 796.351 142.286 795.224 142.309C794.104 142.333 792.985 142.354 791.866 142.376C788.356 142.443 784.846 142.511 781.337 142.639C780.752 142.661 779.659 142.798 778.281 142.971C775.524 143.316 771.624 143.806 768.342 143.803C768.343 143.817 768.344 143.831 768.345 143.845C768.347 143.871 768.349 143.896 768.349 143.922C768.386 145.734 767.919 147.756 767.45 149.788C767.058 151.49 766.664 153.199 766.563 154.795C766.322 158.594 766.319 162.433 766.317 166.273C766.313 170.948 766.31 175.623 765.877 180.225C765.856 180.45 765.843 180.687 765.83 180.927C765.829 180.959 765.827 180.991 765.825 181.023C765.974 181 766.118 180.984 766.257 180.975C768.623 180.825 771.008 180.812 773.39 180.798C774.704 180.791 776.016 180.784 777.323 180.753C779.671 180.699 782.048 180.702 784.434 180.704C789.701 180.71 795.015 180.716 800.167 180.109C801.689 179.912 802.221 181.863 801.538 182.875C800.927 183.781 799.244 183.928 798.012 184.035C797.699 184.063 797.415 184.087 797.185 184.121C793.862 184.613 790.495 184.785 787.142 184.934C783.621 185.09 780.096 185.206 776.573 185.304C775.734 185.328 774.615 185.441 773.374 185.566C770.097 185.897 765.972 186.314 763.925 185.388C761.724 184.392 761.776 183.287 762.674 182.431C762.28 181.564 762.218 180.299 762.169 179.309C762.151 178.931 762.134 178.593 762.102 178.333C761.614 174.392 761.319 170.501 761.312 166.526C761.298 158.74 761.314 150.653 763.468 143.116C762.605 142.738 762.085 142.181 762.087 141.379C762.097 137.335 774.682 137.541 780.665 137.639C781.735 137.656 782.593 137.67 783.131 137.656C787.489 137.542 791.848 137.527 796.207 137.551C797.128 137.556 798.153 137.495 799.215 137.433C801.474 137.3 803.901 137.158 805.852 137.611C810.978 138.801 811.101 146.965 811.175 151.878Z" fill="#89C5CC" blush:i="0.0.0.9.0"/><path id="Wireframy Stuff_3" fill-rule="evenodd" clip-rule="evenodd" d="M843.235 138.497C847.994 138.245 852.756 138.188 857.521 138.17C862.566 138.145 867.618 138.235 872.661 138.39L872.778 138.394C875.012 138.461 887.432 138.834 881.726 141.929C881.393 142.11 881.019 142.26 880.61 142.386C880.852 143.819 880.881 145.298 880.842 146.011C880.695 148.714 880.598 151.421 880.5 154.127C880.435 155.961 880.369 157.795 880.287 159.628C880.063 164.692 879.849 169.757 879.675 174.824C879.653 175.446 879.686 176.259 879.723 177.166C879.844 180.163 880.006 184.18 878.379 185.665C876.95 186.968 875.974 186.707 875.316 185.821C871.228 187.009 862.832 186.623 858.61 186.429C857.593 186.382 856.818 186.346 856.404 186.346C855.664 186.347 854.289 186.439 852.553 186.556C845.323 187.041 831.829 187.948 831.802 184.384C831.799 184.041 831.91 183.734 832.12 183.458C831.547 182.874 831.032 182.016 830.701 180.945C829.513 177.101 829.401 172.954 829.313 168.968C829.188 163.34 829.187 157.705 829.186 152.072C829.185 149.178 829.184 146.285 829.167 143.394C828.394 142.356 828.853 141.169 829.817 140.341C831.87 138.579 836.965 138.558 840.652 138.542C841.644 138.538 842.534 138.534 843.235 138.497ZM835.491 181.895C840.078 180.916 847.807 181.231 851.947 181.4C853.032 181.444 853.87 181.478 854.342 181.476C858.571 181.46 862.801 181.519 867.027 181.688C867.465 181.705 868.113 181.689 868.877 181.669C870.411 181.631 872.412 181.58 874.111 181.769C874.088 181.538 874.073 181.328 874.063 181.146C873.873 177.384 874.011 173.59 874.147 169.817V169.817C874.176 169.015 874.205 168.214 874.231 167.415C874.322 164.594 874.442 161.774 874.563 158.955L874.563 158.955L874.563 158.953C874.639 157.178 874.714 155.403 874.783 153.628C874.813 152.849 874.768 151.79 874.718 150.6V150.6C874.615 148.178 874.49 145.208 874.924 142.926C873.359 142.897 871.756 142.786 870.285 142.684C868.868 142.586 867.575 142.497 866.558 142.496C865.268 142.496 863.978 142.492 862.689 142.488H862.689H862.689H862.689C859.115 142.477 855.543 142.466 851.969 142.537C851.63 142.544 851.291 142.55 850.952 142.557L850.952 142.557L850.952 142.557C846.031 142.652 841.07 142.748 836.191 143.396C835.905 143.434 835.561 143.507 835.181 143.596C835.716 145.832 835.454 148.983 835.225 151.742C835.113 153.082 835.009 154.33 835.008 155.336C835.001 161.592 835.166 167.823 835.331 174.048L835.331 174.049L835.331 174.049C835.394 176.404 835.456 178.757 835.509 181.111C835.516 181.392 835.509 181.653 835.491 181.895Z" fill="#89C5CC" blush:i="0.0.0.9.1"/><path id="Fill 135" fill-rule="evenodd" clip-rule="evenodd" d="M783.284 185.123C780.156 186.95 781.843 194.259 782.927 196.786C784.708 200.943 788.322 204.195 792.222 206.352C800.104 210.712 811.466 209.554 817.427 217.114C817.489 217.192 819.549 219.232 820.018 216.59C820.403 214.422 816.557 211.111 815.066 210.025C810.827 206.934 805.391 205.938 800.488 204.394C795.259 202.748 789.52 199.713 787.328 194.322C786.552 192.413 788.032 182.337 783.284 185.123" fill="#C1DEE2" blush:i="0.0.0.9.2"/><path id="Fill 137" fill-rule="evenodd" clip-rule="evenodd" d="M854.779 188.637C851.913 189.427 853.809 193.371 853.804 195.345C853.799 197.809 853.011 200.387 851.493 202.353C847.643 207.338 840.104 208.085 834.452 209.515C830.348 210.553 820.529 212.78 820.145 218.331C819.716 224.529 828.384 216.986 829.117 216.677C837.219 213.705 847.701 213.131 853.955 206.589C856.537 203.888 858.062 200.284 858.305 196.564C858.441 194.469 858.465 187.63 854.779 188.637" fill="#C1DEE2" blush:i="0.0.0.9.3"/><path id="Fill 139" fill-rule="evenodd" clip-rule="evenodd" d="M795.561 243.616C795.494 232.148 806.469 225.211 816.393 222.601C828.322 219.458 839.434 227.817 840.84 239.84C842.324 252.529 832.76 262.744 820.149 263.304C809.054 263.796 795.632 255.853 795.561 243.616ZM822.207 228.115C822.852 228.992 823.435 230.392 822.135 231.154C820.884 231.883 820.26 231.007 819.631 230.125C819.234 229.568 818.835 229.009 818.276 228.851C816.826 228.443 814.496 229.968 813.288 230.857C812.798 231.218 812.1 231.995 811.284 232.904C808.688 235.795 804.897 240.017 802.802 236.384C794.446 250.813 815.278 261.612 827.124 256.151C840.134 250.154 837.602 228.229 822.207 228.115Z" fill="#89C5CC" blush:i="0.0.0.9.4"/><path id="Fill 141" fill-rule="evenodd" clip-rule="evenodd" d="M811.289 239.777C811.289 242.409 815.446 242.409 815.446 239.777C815.446 237.174 811.289 237.063 811.289 239.777" fill="#89C5CC" blush:i="0.0.0.9.5"/><path id="Fill 143" fill-rule="evenodd" clip-rule="evenodd" d="M818.603 239.283C818.603 242.507 823.697 242.507 823.697 239.283C823.697 236.095 818.603 235.959 818.603 239.283" fill="#89C5CC" blush:i="0.0.0.9.6"/><path id="Fill 145" fill-rule="evenodd" clip-rule="evenodd" d="M813.369 246.796C809.203 249.247 821.117 254.116 821.587 249.14C821.79 246.993 819.711 247.572 818.325 247.415C816.999 247.263 814.627 246.064 813.369 246.796" fill="#89C5CC" blush:i="0.0.0.9.7"/><path id="Fill 147" fill-rule="evenodd" clip-rule="evenodd" d="M811.562 264.181C811.743 270.44 811.656 276.696 812.843 282.867C813.069 284.039 813.225 288.291 814.152 289.162C816.431 291.304 816.468 287.199 816.557 285.625C816.873 279.99 816.281 274.179 816.151 268.532C816.122 267.316 816.444 264.799 815.871 263.622C814.96 261.755 811.473 261.2 811.562 264.181" fill="#C1DEE2" blush:i="0.0.0.9.8"/><path id="Fill 149" fill-rule="evenodd" clip-rule="evenodd" d="M807.106 259.106C797.973 269.357 785.396 268.602 772.726 269.5C766.031 269.974 759.262 270.948 753.876 275.278C751.37 277.293 749.21 279.816 747.758 282.691C747.124 283.948 744.114 291.201 748.634 289.481C750.237 288.87 751.815 284.074 752.852 282.655C754.827 279.953 757.354 277.722 760.385 276.272C766.232 273.475 773.214 273.523 779.554 273.168C786.181 272.797 793.294 272.45 799.386 269.568C802.252 268.212 804.94 266.522 807.246 264.343C808.071 263.564 809.838 262.241 809.969 261.05C810.12 259.689 808.812 257.197 807.106 259.106" fill="#C1DEE2" blush:i="0.0.0.9.9"/><path id="Fill 151" fill-rule="evenodd" clip-rule="evenodd" d="M761 290.569C752.421 290.856 743.852 291.203 735.285 291.746C733.53 291.857 727.676 291.502 729.167 295.1C730.362 297.983 737.501 296.076 739.862 295.936C748.789 295.406 757.753 295.222 766.662 294.419C768.663 294.239 777.709 294.31 773.973 290.764C772.196 289.076 763.455 290.486 761 290.569" fill="#89C5CC" blush:i="0.0.0.9.10"/><path id="Fill 153" fill-rule="evenodd" clip-rule="evenodd" d="M723.719 294.707C721.015 298.259 722.258 306.891 722.462 311.161C722.66 315.298 721.856 322.863 727.257 323.505C725.542 323.28 728.559 323.609 729.05 323.635C730.146 323.694 731.248 323.713 732.346 323.725C734.883 323.753 737.421 323.719 739.957 323.668C745.702 323.554 751.462 323.386 757.2 323.069C759.612 322.935 772.696 323.047 773.214 320.541C773.876 317.339 761.331 319.151 759.085 319.253C753.616 319.504 748.138 319.557 742.664 319.628C739.951 319.664 737.235 319.691 734.522 319.638C733.401 319.616 728.965 320.076 728.284 319.328C727.703 318.692 728.156 312.842 728.144 311.947C728.104 309.03 728.107 306.107 728.211 303.191C728.281 301.228 729.342 297.493 728.477 295.649C727.636 293.856 725.185 293.244 723.719 294.707" fill="#89C5CC" blush:i="0.0.0.9.11"/><path id="Fill 155" fill-rule="evenodd" clip-rule="evenodd" d="M767.895 294.873C768.052 301.371 768.1 307.999 769.635 314.354C770.146 316.468 770.861 320.829 772.986 321.924C775.215 323.073 777.141 321.433 777.286 319.223C777.47 316.446 775.982 312.799 775.677 309.949C775.321 306.624 775.114 303.296 774.992 299.954C774.9 297.441 775.664 293.673 773.268 292.053C771.116 290.597 767.825 292.063 767.895 294.873" fill="#89C5CC" blush:i="0.0.0.9.12"/><path id="Fill 157" fill-rule="evenodd" clip-rule="evenodd" d="M784.968 293.287C782.3 295.945 783.492 304.36 783.826 307.775C784.07 310.276 786.808 322.581 790.91 316.164C792.725 313.326 790.419 305.821 790.436 302.511C790.446 300.403 791.192 297.738 790.832 295.713C790.356 293.037 787.388 290.87 784.968 293.287" fill="#89C5CC" blush:i="0.0.0.9.13"/><path id="Wireframy Stuff_4" fill-rule="evenodd" clip-rule="evenodd" d="M803.443 291.093C811.457 290.266 819.481 289.646 827.539 289.569C827.926 289.566 828.333 289.561 828.756 289.556C834.279 289.486 842.579 289.38 846.296 293.528C848.321 295.787 849.238 299.28 850.038 302.325C850.187 302.892 850.332 303.445 850.479 303.971C850.605 304.42 850.769 304.932 850.946 305.486C851.781 308.1 852.91 311.637 851.765 313.826C851.137 315.027 850.126 316.051 848.591 315.626C848.233 315.526 847.952 315.399 847.731 315.249C848.319 315.885 848.58 316.792 848.198 317.678C847.46 319.392 845.128 319.429 843.291 319.457C842.846 319.464 842.429 319.471 842.072 319.501C835.953 320.011 829.806 320.351 823.665 320.405C820.742 320.43 817.818 320.406 814.894 320.383C811.884 320.358 808.875 320.333 805.865 320.363C803.681 320.384 801.456 320.592 799.231 320.8C796.421 321.062 793.611 321.324 790.878 321.212C788.834 321.128 786.651 320.459 787.169 317.817C787.592 315.66 789.622 315.472 791.441 315.303C791.599 315.289 791.756 315.274 791.91 315.258C797.702 314.669 803.498 314.46 809.32 314.481C821.551 314.523 833.772 314.46 846.003 314.396C846.506 314.438 846.979 314.63 847.369 314.922C846.929 314.388 846.937 313.676 846.946 312.919C846.951 312.576 846.955 312.223 846.918 311.874C846.843 311.171 846.774 310.471 846.706 309.772C846.48 307.463 846.255 305.171 845.815 302.849C845.748 302.498 845.684 302.112 845.617 301.704C845.216 299.293 844.686 296.098 842.769 294.796C840.841 293.487 837.061 293.55 834.115 293.599C833.319 293.612 832.585 293.624 831.964 293.608C824.103 293.405 816.196 293.964 808.371 294.675C807.77 294.73 807.168 294.782 806.565 294.835C803.588 295.094 800.595 295.355 797.661 295.887C797.124 295.985 796.304 296.271 795.363 296.6C792.859 297.473 789.503 298.644 788.362 297.354C784.584 293.081 801.188 291.326 803.443 291.093Z" fill="#89C5CC" blush:i="0.0.0.9.14"/><path id="Line" fill-rule="evenodd" clip-rule="evenodd" d="M888.707 281.363C889.056 281.811 889.056 281.811 888.707 281.363ZM834.473 254.887C829.605 257.748 838.614 266.143 840.909 267.441C846.073 270.363 853.17 270.804 858.936 271.625C866.234 272.666 874.176 273.049 881.19 275.44C884.178 276.459 886.077 278.049 888.034 280.493C889.025 281.732 891.413 287.069 893.587 285.805C897.964 283.261 886.169 272.583 883.57 271.435C877.662 268.825 870.678 268.094 864.36 267.081C858.486 266.138 852.486 265.437 846.757 263.775C843.607 262.862 841.368 261.388 839.552 258.567C838.42 256.809 837.492 253.121 834.473 254.887" fill="#C1DEE2" blush:i="0.0.0.9.15"/><path id="Wireframy Stuff_5" fill-rule="evenodd" clip-rule="evenodd" d="M909.091 287.681C903.479 287.806 897.878 288.238 892.278 288.669C889.136 288.911 885.995 289.153 882.853 289.341C881.87 289.4 880.886 289.453 879.902 289.506L879.901 289.506L879.901 289.506C877.133 289.655 874.361 289.804 871.606 290.083C871.187 290.125 870.702 290.165 870.174 290.208C867.834 290.4 864.644 290.662 862.605 291.516C860.736 290.102 857.851 291.304 857.806 293.824C857.729 298.414 857.771 302.923 858.331 307.485C858.461 308.544 859.13 313.905 860.586 316.696C860.068 319.332 862.315 320.07 864.406 320.272C872.505 321.054 880.999 320.447 889.377 319.849C893.639 319.544 897.871 319.242 902.006 319.125C903.381 319.086 904.774 319.071 906.175 319.055C910.747 319.004 915.407 318.952 919.833 318.087C920.011 318.052 920.202 318.018 920.402 317.982C922.152 317.669 924.565 317.236 924.749 315.31C924.859 314.154 924.207 313.096 923.116 312.947C923.191 311.984 923.07 310.933 922.981 310.161L922.98 310.161C922.96 309.981 922.941 309.816 922.926 309.671C922.661 306.993 921.994 304.332 921.335 301.705L921.335 301.705L921.335 301.705C921.187 301.114 921.039 300.525 920.897 299.939C920.739 299.289 920.593 298.515 920.435 297.682C919.879 294.739 919.179 291.042 917.319 289.325C915.369 287.525 912.194 287.604 909.65 287.668C909.46 287.673 909.273 287.678 909.091 287.681ZM918.966 313.235C918.301 311.493 918.106 309.138 917.921 306.899V306.899C917.805 305.494 917.692 304.134 917.47 303.001C917.302 302.151 917.165 301.255 917.026 300.344L917.026 300.344C916.688 298.131 916.337 295.832 915.506 293.893C914.394 291.296 913.404 291.395 911.062 291.63C910.626 291.674 910.144 291.722 909.605 291.759C907.219 291.921 904.834 292.127 902.449 292.334L902.449 292.334C901.305 292.433 900.161 292.532 899.017 292.626C894.122 293.028 889.223 293.338 884.324 293.647L884.324 293.647C881.462 293.828 878.599 294.008 875.737 294.208C873.49 294.364 871.298 294.791 869.115 295.216C867.386 295.553 865.662 295.889 863.922 296.088C863.897 296.683 863.847 297.28 863.799 297.849C863.734 298.624 863.674 299.346 863.687 299.937C863.744 302.559 863.975 305.164 864.207 307.774C864.243 308.175 864.278 308.576 864.313 308.978C864.355 309.459 864.459 310.077 864.573 310.763C864.751 311.824 864.955 313.046 865.001 314.171C865.213 314.17 865.424 314.171 865.631 314.171C865.899 314.172 866.162 314.173 866.414 314.169C872.583 314.061 878.747 313.874 884.912 313.637C885.699 313.607 886.486 313.576 887.273 313.546C892.773 313.332 898.273 313.117 903.778 313.054C905.965 313.029 908.18 313.098 910.403 313.167C913.262 313.255 916.132 313.344 918.966 313.235Z" fill="#89C5CC" blush:i="0.0.0.9.16"/></g></g></g><g id="Master/Pose/Standing" blush:has-customizable-colors="true" blush:component="Master/Pose/Standing" blush:width="300" blush:height="426" transform="matrix(-1 0 0 1 878 214) scale(1 1)" blush:i="0.1" blush:value="Standing" blush:viewBox="-1.2784090909090935 0 302.55681818181813 425.9999999999999"><g id="Master/Pose/Standing" blush:has-customizable-colors="true" blush:viewBox="-1.2784090909090935 0 302.55681818181813 425.9999999999999" blush:i="0.1.0"><g id="Head/Front" blush:component="Head/Front" blush:defaultValue="Afro" blush:width="136" blush:height="104" transform="translate(82 0) scale(1 1)" blush:i="0.1.0.0" blush:value="Wavy" blush:viewBox="15.639999999999986 22.732984293193724 80.92 81.67539267015704"><g id="Head/Front/Wavy" blush:viewBox="15.639999999999986 22.732984293193724 80.92 81.67539267015704" blush:i="0.1.0.0.0"><g id="Head" blush:i="0.1.0.0.0.0"><path id="SKIN" fill-rule="evenodd" clip-rule="evenodd" d="M92.1433 40.1339C97.9382 50.9351 97.2496 78.333 89.7603 80.2635C86.7737 81.0333 80.4113 79.1476 73.9359 75.2446L78 104H54L62.2616 65.4893C57.6541 60.0807 54.5357 53.4525 55.0568 46.0255C56.5583 24.625 86.3485 29.3328 92.1433 40.1339Z" fill="#dcae92" blush:color="Skin-500" blush:i="0.1.0.0.0.0.0"/></g><path id="hair" fill-rule="evenodd" clip-rule="evenodd" d="M94.4091 44.9836C94.1714 43.5836 93.5904 42.0288 93.1216 40.7043C92.5172 38.9967 91.6025 37.4571 90.5959 36.0061C88.7009 33.2744 86.4276 30.8075 83.9176 28.7601C79.3328 25.0202 73.4966 22.8631 67.7574 23.5636C64.8597 23.9173 62.0468 25.0226 59.6525 26.8624C57.4894 28.5246 55.4087 30.9716 52.6077 31.1474C49.56 31.3385 46.7662 28.6485 44.322 26.9871C41.566 25.1141 38.6342 23.7493 35.4132 23.2188C30.0173 22.3304 24.9482 24.1534 21.2294 28.5805C17.2722 33.2916 14.3955 40.2003 16.9943 46.4425C17.4773 47.6028 18.0988 48.581 18.9907 49.3918C19.8086 50.1353 21.0579 50.9263 21.3895 52.1142C21.7418 53.3769 20.6895 55.006 20.2815 56.1454C19.6969 57.7778 19.2169 59.4913 19.3876 61.2656C19.6679 64.1795 21.4991 66.9612 23.4327 68.8765C25.4004 70.8254 27.8222 71.943 30.4089 72.4582C32.1361 72.8022 33.9013 72.992 35.6567 72.8628C36.5281 72.7988 37.2971 72.5567 38.1414 72.3642C38.9625 72.1769 39.4213 72.395 40.1179 72.8453C43.354 74.9373 46.8335 75.7467 50.5701 75.4356C53.7237 75.1729 57.3584 74.4087 59.931 72.248C62.788 69.8482 62.7311 66.5391 62.0588 63.0035C62.7711 63.3565 64.7416 63.5751 63.5641 62.1681C63.0976 61.6108 62.2163 61.384 61.6178 61.0563C60.9209 60.6747 60.2132 60.1814 59.6721 59.5589C57.4869 57.0454 59.6939 51.93 62.4404 51.0871C66.5209 49.8347 67.4345 55.6055 70.3474 57.0982C72.0222 57.9565 73.7742 56.7834 75.029 55.5855C76.7099 53.9809 77.8554 51.8551 78.8445 49.6918C79.6592 47.9103 80.4173 46.1038 81.2477 44.3311C81.6354 43.5033 82.9778 41.1632 82.3037 40.2272C85.2264 39.6444 88.4816 40.859 90.9987 42.4517C92.0391 43.1101 92.8322 43.8361 93.3872 44.9985C93.5061 45.2475 93.7649 45.9879 94.0899 46.0183C94.6949 46.0748 94.4688 45.3354 94.4091 44.9836" fill="#b58143" blush:color="Hair-500" blush:i="0.1.0.0.0.1"/></g></g><g id="Lower Body/Standing" blush:component="Lower Body/Standing" blush:defaultValue="Jogging" blush:width="300" blush:height="239" transform="translate(0 187) scale(1 1)" blush:i="0.1.0.1" blush:value="Sprint" blush:viewBox="24 -0.6005025125627981 241.50000000000006 240.2010050251256"><g id="Lower Body/Standing/Sprint" blush:viewBox="24 -0.6005025125627981 241.50000000000006 240.2010050251256" blush:i="0.1.0.1.0"><path id="SKIN" fill-rule="evenodd" clip-rule="evenodd" d="M116.644 9.27652e-05C118.447 24.6097 234.607 97.0636 235.284 99.0965C235.736 100.452 199.128 184.778 199.128 184.778L209.282 188.724C209.282 188.724 265.433 99.4162 262.549 89.9001C258.419 76.2758 172.422 0.261797 172.422 0.261797L116.644 9.27652e-05Z" fill="#dcae92" blush:color="Skin-500" blush:i="0.1.0.1.0.0"/><path id="shadow" fill-rule="evenodd" clip-rule="evenodd" d="M116.644 9.27652e-05C118.447 24.6097 234.607 97.0636 235.284 99.0965C235.736 100.452 199.128 184.778 199.128 184.778L209.282 188.724C209.282 188.724 265.433 99.4162 262.549 89.9001C258.419 76.2758 172.422 0.261797 172.422 0.261797L116.644 9.27652e-05Z" fill="black" fill-opacity="0.1" blush:i="0.1.0.1.0.1"/><path id="Pant" fill-rule="evenodd" clip-rule="evenodd" d="M201.8 172.082L218.379 178.117C253.336 138.674 267.038 106.131 264.54 89.5493C262.042 72.9678 174.724 0.0603902 174.724 0.0603902L115.455 0.0603841C117.477 57.0526 225.143 99.3135 226.583 101.742C228.023 104.171 213.851 127.957 201.8 172.082Z" fill="#615639" blush:color="Bottom-700" blush:i="0.1.0.1.0.2"/><g id="Right [shoe]" blush:i="0.1.0.1.0.3"><path id="shoe" fill-rule="evenodd" clip-rule="evenodd" d="M198.379 182.737C197.533 181.927 196.173 181.94 195.421 182.838C194.051 184.476 192.103 186.97 191.522 188.565C190.597 191.107 189.669 196.292 189.669 196.292C192.618 197.365 242.67 215.582 242.67 215.582C242.67 215.582 247.222 209.504 242.969 207.339C238.716 205.175 235.931 203.664 235.931 203.664L215.294 183.716C214.889 183.325 214.241 183.345 213.861 183.761L210.88 187.026C210.88 187.026 206.059 187.449 203.483 186.511C201.915 185.94 199.796 184.094 198.379 182.737Z" fill="#E4E4E4" blush:i="0.1.0.1.0.3.0"/></g><path id="SKIN" fill-rule="evenodd" clip-rule="evenodd" d="M130 0L78.254 124.227L27.3958 229.25H39.3949L170.674 0H130Z" fill="#dcae92" blush:color="Skin-500" blush:i="0.1.0.1.0.4"/><g id="Left [shoe]" blush:i="0.1.0.1.0.5"><path id="shoe_2" fill-rule="evenodd" clip-rule="evenodd" d="M29.4496 223.284C28.3779 222.813 27.1043 223.29 26.7051 224.391C25.977 226.398 25 229.409 25 231.106C25 233.811 25.9012 239 25.9012 239C29.0392 239 82.3031 239 82.3031 239C82.3031 239 84.5016 231.732 79.7648 231.152C75.0281 230.573 71.895 230.106 71.895 230.106L45.68 218.419C45.1654 218.189 44.563 218.43 44.3483 218.951L42.6632 223.039C42.6632 223.039 38.2782 225.085 35.5367 225.085C33.8677 225.085 31.2457 224.074 29.4496 223.284Z" fill="#E4E4E4" blush:i="0.1.0.1.0.5.0"/></g><path id="Pant" fill-rule="evenodd" clip-rule="evenodd" d="M31.9885 207.433L58.6507 212.433C79.2658 182.125 165.541 57.8518 175 0H115.644C84.0549 41.821 51.639 176.624 31.9885 207.433Z" fill="#6c603f" blush:color="Bottom-500" blush:i="0.1.0.1.0.6"/></g></g><g id="Upper Body" blush:component="Upper Body" blush:defaultValue="Jacket" blush:width="256" blush:height="187" transform="translate(22 82) scale(1 1)" blush:i="0.1.0.2" blush:value="Hoodie" blush:viewBox="33.27999999999997 -4.482876712328789 212.48000000000005 185.7191780821918"><g id="Upper Body/Hoodie" blush:viewBox="33.27999999999997 -4.482876712328789 212.48000000000005 185.7191780821918" blush:i="0.1.0.2.0"><path id="SKIN" fill-rule="evenodd" clip-rule="evenodd" d="M222.68 115.635L190.781 92.2115L183.73 109.642L215.318 122.741C224.251 133.235 229.246 137.61 230.304 135.865C231.195 134.394 230.499 133.017 229.857 131.749C229.357 130.76 228.89 129.838 229.233 128.989C230.018 127.049 236.019 127.254 241.705 127.691C247.392 128.128 245.735 125.598 244.364 124.349C238.559 120.874 231.331 117.97 222.68 115.635ZM55.398 156.908C58.3285 150.963 68.308 93.0199 68.308 93.0199L89.2054 93.1021C89.2054 93.1021 69.8506 155.583 68.308 159.406C66.3041 164.372 69.708 171.587 72.0162 176.48C72.3733 177.237 72.7041 177.938 72.9847 178.567C69.782 180 68.2435 178.268 66.6216 176.442C64.7896 174.379 62.8512 172.197 58.288 174.319C56.525 175.14 54.8568 176.109 53.2269 177.057C47.5969 180.329 42.4249 183.336 35.3891 178.994C34.2737 178.306 33.0514 175.715 36.0047 173.69C43.3624 168.645 53.9654 159.815 55.398 156.908Z" fill="#dcae92" blush:color="Skin-500" blush:i="0.1.0.2.0.0"/><path id="Coat Back" fill-rule="evenodd" clip-rule="evenodd" d="M127.695 5.33203L136.342 3.84886C168.425 31.5643 181.603 84.8089 220.929 113.015L211.464 124.748C143.24 116.3 126.33 51.3548 127.695 5.33203Z" fill="#000000" blush:color="Top-700" blush:i="0.1.0.2.0.1"/><path id="Shirt" fill-rule="evenodd" clip-rule="evenodd" d="M90 114C90 114 142.008 114 166.511 114C170.008 114 169.349 108.952 168.843 106.404C163.011 77.0038 140.241 45.3115 140.241 3.46073L118.172 0C99.9175 29.3584 93.6048 65.5046 90 114Z" fill="#C7D1D9" blush:i="0.1.0.2.0.2"/><path id="Coat Front" fill-rule="evenodd" clip-rule="evenodd" d="M81.3968 135C77.9582 143.259 74.5862 150.465 71.4089 156H54.9999C53.2345 98.9186 74.8454 54.9964 92.9315 28.5129C88.9158 28.2259 85.2911 26.5455 82.9999 22.4112C74.9335 7.85608 77.8467 -0.157593 86.4671 -2.79173C91.2074 -4.24021 95.6656 -3.25154 101.002 -2.06804C105.369 -1.09961 110.325 -0.000719281 116.504 2.76336e-08C116.506 2.76336e-08 116.508 2.76336e-08 116.51 2.76336e-08C117.109 2.76336e-08 117.654 0.0401216 118.148 0.116866L125.472 0.53474C125.472 0.53474 155.205 101.305 141.872 135H81.3968Z" fill="#0078E8" blush:color="Top-500" blush:i="0.1.0.2.0.3"/><path id="Shade" fill-rule="evenodd" clip-rule="evenodd" d="M81.397 135C85.9087 124.164 90.5352 111.516 94.9874 98.4544C96.6448 112.839 99.4048 127.286 104 135H81.397Z" fill="black" fill-opacity="0.1" blush:i="0.1.0.2.0.4"/></g></g></g></g><g id="Master/Pose/Sitting" blush:has-customizable-colors="true" blush:component="Master/Pose/Sitting" blush:width="300" blush:height="426" transform="translate(378 214) scale(1 1)" blush:i="0.2" blush:value="Sitting" blush:viewBox="-46.02272727272725 72.42000000000002 302.5568181818182 428.13000000000005"><g id="Master/Pose/Sitting" blush:has-customizable-colors="true" blush:viewBox="-46.02272727272725 72.42000000000002 302.5568181818182 428.13000000000005" blush:i="0.2.0"><g id="Head/Front" blush:component="Head/Front" blush:defaultValue="Bun and Mullet" blush:width="136" blush:height="104" transform="translate(38 73) scale(1 1)" blush:i="0.2.0.0" blush:value="No Hair" blush:viewBox="53.72 30.90052356020942 42.83999999999996 73.50785340314135"><g id="Head/Front/No Hair" blush:viewBox="53.72 30.90052356020942 42.83999999999996 73.50785340314135" blush:i="0.2.0.0.0"><g id="Head" blush:i="0.2.0.0.0.0"><path id="SKIN" fill-rule="evenodd" clip-rule="evenodd" d="M73.9354 75.2443C80.411 79.1475 86.7736 81.0333 89.7603 80.2635C97.2496 78.333 97.9382 50.9351 92.1433 40.1339C86.3485 29.3328 56.5583 24.625 55.0568 46.0255C54.5356 53.4529 57.6544 60.0814 62.2623 65.4901L54 104H78L73.9354 75.2443Z" fill="#dcae92" blush:color="Skin-500" blush:i="0.2.0.0.0.0.0"/></g></g></g><g id="Lower Body/Sitting" blush:component="Lower Body/Sitting" blush:defaultValue="Skinny Jeans 1" blush:width="300" blush:height="239" transform="translate(-44 260) scale(1 1)" blush:i="0.2.0.1" blush:value="Sweat Pants" blush:viewBox="48 -0.6005025125627981 274.5 175.64698492462313"><g id="Lower Body/Sitting/Sweat Pants" blush:viewBox="48 -0.6005025125627981 274.5 175.64698492462313" blush:i="0.2.0.1.0"><g id="Seat" blush:i="0.2.0.1.0.0"><ellipse id="Ballsy Ball" cx="126" cy="100.5" rx="77" ry="73.5" fill="#C5CFD6" blush:i="0.2.0.1.0.0.0"/></g><path id="SKIN" fill-rule="evenodd" clip-rule="evenodd" d="M245.711 96.5801C249.43 109.608 258.697 134.302 271.509 162.66L283.685 159.107C273.033 93.8526 264.168 50.6508 259.09 37.5018C255.735 28.8143 230.353 29.8322 233.273 47.3128C234.498 54.6433 239.343 74.2726 245.711 96.5801ZM195.667 50.3613C175.812 54.4749 134.644 69.0168 122.888 73.6636C115.5 76.5839 120.263 86.488 126.566 85.6215C127.633 85.4748 131.41 85.0523 137.044 84.422C155.142 82.3973 192.412 78.2278 220.679 74.1596C235.563 72.0174 227.556 44.138 212.102 47.0883C206.903 48.0808 201.373 49.1792 195.667 50.3613Z" fill="#dcae92" blush:color="Skin-500" blush:i="0.2.0.1.0.1"/><path id="Leg Back" fill-rule="evenodd" clip-rule="evenodd" d="M259.869 30.1378C257.839 23.5136 165.562 0 165.562 0H158V7.04672L221.587 39.4163C221.503 40.4607 221.554 41.5648 221.759 42.729C221.3 66.7257 231.571 84.6527 241.739 102.402C248.389 114.008 254.994 125.539 258.528 138.641L281.889 135.156C281.209 133.416 280.133 125.568 278.661 114.839C274.952 87.7851 268.729 42.4086 260 30.4032C259.97 30.3613 259.939 30.3197 259.907 30.2783C259.896 30.2314 259.883 30.1846 259.869 30.1378Z" fill="#191847" blush:color="Bottom-700" blush:i="0.2.0.1.0.2"/><path id="Leg Front" fill-rule="evenodd" clip-rule="evenodd" d="M163.283 58.6405C157.465 57.4758 152.107 56.4364 147.523 55.6323C117.909 50.4381 109.274 34.5863 114.38 0H168.942C177.855 2.56032 224.174 21.9848 248.207 32.3163C264.113 39.1543 259.099 63.8045 250.091 70.2195C250.042 70.613 249.88 70.8804 249.591 71C215.44 85.1543 186.318 84.0982 167.617 83.4201C159.784 83.136 153.78 82.9183 150 83.9122L144.077 65.2284L163.283 58.6405Z" fill="#393f82" blush:color="Bottom-500" blush:i="0.2.0.1.0.3"/><g id="Left [shoe]" blush:i="0.2.0.1.0.4"><path id="shoe" fill-rule="evenodd" clip-rule="evenodd" d="M129.127 72.6947C129.081 71.5247 128.094 70.5893 126.93 70.7131C124.806 70.9388 121.672 71.3803 120.147 72.1242C117.716 73.3099 113.446 76.3949 113.446 76.3949C114.822 79.2152 138.171 127.088 138.171 127.088C138.171 127.088 145.668 125.878 144.112 121.367C142.557 116.855 141.603 113.835 141.603 113.835L140.615 85.1497C140.596 84.5867 140.115 84.1508 139.553 84.1861L135.14 84.4634C135.14 84.4634 131.379 81.4191 130.177 78.955C129.446 77.4549 129.204 74.6555 129.127 72.6947Z" fill="#E4E4E4" blush:i="0.2.0.1.0.4.0"/></g><g id="Right [shoe]" blush:i="0.2.0.1.0.5"><path id="shoe_2" fill-rule="evenodd" clip-rule="evenodd" d="M268.45 156.284C267.378 155.813 266.104 156.29 265.705 157.391C264.977 159.398 264 162.409 264 164.106C264 166.811 264.901 172 264.901 172C268.039 172 321.303 172 321.303 172C321.303 172 323.502 164.732 318.765 164.152C314.028 163.573 310.895 163.106 310.895 163.106L284.68 151.419C284.165 151.189 283.563 151.43 283.348 151.951L281.663 156.039C281.663 156.039 277.278 158.085 274.537 158.085C272.868 158.085 270.246 157.074 268.45 156.284Z" fill="#E4E4E4" blush:i="0.2.0.1.0.5.0"/></g></g></g><g id="Upper Body" blush:component="Upper Body" blush:defaultValue="Long Sleeve" blush:width="256" blush:height="187" transform="translate(-22 155) scale(1 1)" blush:i="0.2.0.2" blush:value="Jacket 2" blush:viewBox="1.2800000000000011 -0.6404109589041127 254.71999999999994 167.7876712328767"><g id="Upper Body/Jacket 2" blush:viewBox="1.2800000000000011 -0.6404109589041127 254.71999999999994 167.7876712328767" blush:i="0.2.0.2.0"><path id="SKIN" fill-rule="evenodd" clip-rule="evenodd" d="M234.235 61.7042L198 77.6171L209.57 92.4393L236.707 71.6329C250.262 69.1432 256.549 67.0043 255.566 65.2163C254.738 63.7087 253.197 63.6237 251.778 63.5454C250.672 63.4844 249.64 63.4275 249.076 62.7053C247.789 61.056 250.966 55.9611 254.188 51.2552C257.41 46.5492 254.39 46.7192 252.623 47.282C246.711 50.5716 240.582 55.379 234.235 61.7042ZM72 86.0658L51.5083 82C37.6109 118.63 29.3256 138.702 26.6523 142.218C24.692 144.796 12.6026 151.437 4.41982 154.984C1.13535 156.407 1.84055 159.183 2.80388 160.071C8.88024 165.672 14.5292 163.709 20.6783 161.572C22.4585 160.953 24.2806 160.32 26.1672 159.851C31.0502 158.639 32.5361 161.15 33.9404 163.523C35.1837 165.624 36.363 167.616 39.7793 166.821C39.6239 166.151 39.433 165.4 39.227 164.589C37.8952 159.349 35.9312 151.62 38.845 147.13C40.3404 144.826 51.3921 124.471 72 86.0658Z" fill="#dcae92" blush:color="Skin-500" blush:i="0.2.0.2.0.0"/><path id="Coat Back" fill-rule="evenodd" clip-rule="evenodd" d="M127.695 5.33206L136.342 3.84889C155.176 22.119 162.862 66.0125 175.414 71.8225C187.281 77.3157 204.104 72 224.1 64.8225L230.223 78.5046C212.055 98.1606 173.349 114.767 157.66 105.287C132.576 90.1298 126.786 35.9937 127.695 5.33206Z" fill="#e87613" blush:color="Top-700" blush:i="0.2.0.2.0.1"/><path id="Shirt" fill-rule="evenodd" clip-rule="evenodd" d="M90 114C90 114 142.008 114 166.511 114C170.008 114 169.349 108.952 168.843 106.404C163.011 77.0038 140.241 45.3115 140.241 3.46073L118.172 0C99.9175 29.3584 93.6048 65.5046 90 114Z" fill="#C7D1D9" blush:i="0.2.0.2.0.2"/><path id="Coat Front" fill-rule="evenodd" clip-rule="evenodd" d="M117 0H116.748C67.2466 30.5044 37.3306 77.7907 27 141.859L43.0374 145C53.6609 132.623 66.7714 112.368 82.3688 84.2332C77.5834 101.181 74.0896 118.563 73 135H141.872C155.205 101.305 125.486 0 125.486 0H120.731H117Z" fill="#ffa434" blush:color="Top-500" blush:i="0.2.0.2.0.3"/></g></g></g></g><g id="Master/Pose/Standing" blush:has-customizable-colors="true" blush:component="Master/Pose/Standing" blush:width="300" blush:height="426" transform="translate(170 214) scale(1 1)" blush:i="0.3" blush:value="Standing" blush:viewBox="-1.2784090909090935 0 302.55681818181813 425.9999999999999"><g id="Master/Pose/Standing" blush:has-customizable-colors="true" blush:viewBox="-1.2784090909090935 0 302.55681818181813 425.9999999999999" blush:i="0.3.0"><g id="Head/Front" blush:component="Head/Front" blush:defaultValue="Afro" blush:width="136" blush:height="104" transform="translate(82 0) scale(1 1)" blush:i="0.3.0.0" blush:value="Afro" blush:viewBox="29.24000000000001 12.52356020942409 70.03999999999999 91.88481675392669"><g id="Head/Front/Afro" blush:viewBox="29.24000000000001 12.52356020942409 70.03999999999999 91.88481675392669" blush:i="0.3.0.0.0"><ellipse id="Hair Back" cx="64.4157" cy="45.3534" rx="34.8346" ry="32.3534" fill="#181658" blush:color="Hair-500" blush:i="0.3.0.0.0.0"/><g id="Head" blush:i="0.3.0.0.0.1"><path id="SKIN" fill-rule="evenodd" clip-rule="evenodd" d="M73.9354 75.2443C80.411 79.1475 86.7736 81.0333 89.7603 80.2635C97.2496 78.333 97.9382 50.9351 92.1433 40.1339C86.3485 29.3328 56.5583 24.625 55.0568 46.0255C54.5356 53.4529 57.6544 60.0814 62.2623 65.4901L54 104H78L73.9354 75.2443Z" fill="#d4a181" blush:color="Skin-500" blush:i="0.3.0.0.0.1.0"/></g><path id="Hair" fill-rule="evenodd" clip-rule="evenodd" d="M56.6167 31C38.2335 49 56.687 68.1318 61.7432 68.1318C62.0695 65.5347 63.0651 63.0084 64.5239 60.6039C63.7492 59.6005 63.29 58.3525 63.29 57C63.29 53.6863 66.0464 51 69.4466 51C70.5086 51 71.5077 51.262 72.3797 51.7234C79.7498 45.4379 88.9934 41.0561 93.5831 40.1945C101.566 38.696 74.9999 13 56.6167 31Z" fill="#181658" blush:color="Hair-500" blush:i="0.3.0.0.0.2"/></g></g><g id="Lower Body/Standing" blush:component="Lower Body/Standing" blush:defaultValue="Jogging" blush:width="300" blush:height="239" transform="translate(0 187) scale(1 1)" blush:i="0.3.0.1" blush:value="Skirt" blush:viewBox="0 -5.104271356783926 267.00000000000006 244.70477386934675"><g id="Lower Body/Standing/Skirt" blush:viewBox="0 -5.104271356783926 267.00000000000006 244.70477386934675" blush:i="0.3.0.1.0"><path id="Skirt Shadow" fill-rule="evenodd" clip-rule="evenodd" d="M97.4077 98.0881C97.4077 98.0881 133.392 108.153 159.5 108.153C185.607 108.153 208 92.6533 208 92.6533C208 92.6533 172.786 82.3228 150 82.3228C127.214 82.3228 97.4077 98.0881 97.4077 98.0881Z" fill="#00305C" blush:color="Bottom-700" blush:i="0.3.0.1.0.0"/><path id="SKIN" fill-rule="evenodd" clip-rule="evenodd" d="M180.267 117.824C180.036 117.477 179.84 117.098 179.685 116.689C176.479 108.208 125.117 16.7255 120 0H177.826C181.717 12.7167 199.227 92.5198 201.691 108.442C209.467 133.557 225.475 214.895 227.519 220.53C229.669 226.458 217.572 232.633 214.349 225.346C209.22 213.75 196.999 181.665 191.557 162.074C186.456 143.708 182.302 127.184 180.267 117.824Z" fill="#d4a181" blush:color="Skin-500" blush:i="0.3.0.1.0.1"/><path id="Shadow" fill-rule="evenodd" clip-rule="evenodd" d="M180.267 117.824C180.036 117.477 179.84 117.098 179.685 116.689C176.479 108.208 125.117 16.7255 120 0H177.826C181.717 12.7167 199.227 92.5198 201.691 108.442C209.467 133.557 225.475 214.895 227.519 220.53C229.669 226.458 217.572 232.633 214.349 225.346C209.22 213.75 196.999 181.665 191.557 162.074C186.456 143.708 182.302 127.184 180.267 117.824Z" fill="black" fill-opacity="0.1" blush:i="0.3.0.1.0.2"/><path id="SKIN" fill-rule="evenodd" clip-rule="evenodd" d="M132.957 128.994C109.475 134.928 23.5841 145.658 17.6899 147.341C11.6265 149.072 6.31016 136.574 13.8048 133.867C25.7299 129.559 58.5892 119.606 78.5119 115.544C94.5365 112.277 109.159 109.611 118.976 108.05C118.145 80.4734 114.343 14.2935 116.835 0H168C165.61 13.7065 145.41 113.718 141.656 123.729C140.464 127.302 136.909 128.882 132.957 128.994V128.994Z" fill="#d4a181" blush:color="Skin-500" blush:i="0.3.0.1.0.3"/><g id="Left [shoe]" blush:i="0.3.0.1.0.4"><path id="shoe" fill-rule="evenodd" clip-rule="evenodd" d="M15.9311 133.074C16.2095 131.937 15.5182 130.765 14.3648 130.563C12.2611 130.195 9.12692 129.756 7.45574 130.05C4.7919 130.52 -0.162158 132.309 -0.162158 132.309C0.382733 135.399 9.63191 187.854 9.63191 187.854C9.63191 187.854 17.1715 188.757 16.9197 183.991C16.6679 179.226 16.5838 176.059 16.5838 176.059L23.5408 148.213C23.6774 147.667 23.3357 147.115 22.7854 146.994L18.4673 146.044C18.4673 146.044 15.691 142.081 15.215 139.381C14.9252 137.738 15.4647 134.98 15.9311 133.074Z" fill="#E4E4E4" blush:i="0.3.0.1.0.4.0"/></g><g id="Right [shoe]" blush:i="0.3.0.1.0.5"><path id="shoe_2" fill-rule="evenodd" clip-rule="evenodd" d="M213.45 223.284C212.378 222.813 211.104 223.29 210.705 224.391C209.977 226.398 209 229.409 209 231.106C209 233.811 209.901 239 209.901 239C213.039 239 266.303 239 266.303 239C266.303 239 268.502 231.732 263.765 231.152C259.028 230.573 255.895 230.106 255.895 230.106L229.68 218.419C229.165 218.189 228.563 218.43 228.348 218.951L226.663 223.039C226.663 223.039 222.278 225.085 219.537 225.085C217.868 225.085 215.246 224.074 213.45 223.284Z" fill="#E4E4E4" blush:i="0.3.0.1.0.5.0"/></g><path id="Skirt" fill-rule="evenodd" clip-rule="evenodd" d="M117 4.14848e-05C117 4.14848e-05 150.82 -9.67607 181 4.14848e-05C188 31.9375 205.009 44.6135 208 93.579C174 110.473 132 81.5305 97.0001 98.0054C87.0001 74.9612 101 19.4646 117 4.14848e-05Z" fill="#0078E8" blush:color="Bottom-500" blush:i="0.3.0.1.0.6"/></g></g><g id="Upper Body" blush:component="Upper Body" blush:defaultValue="Jacket" blush:width="256" blush:height="187" transform="translate(22 82) scale(1 1)" blush:i="0.3.0.2" blush:value="Long Sleeve" blush:viewBox="17.920000000000016 -0.6404109589041127 238.07999999999993 181.8767123287671"><g id="Upper Body/Long Sleeve" blush:viewBox="17.920000000000016 -0.6404109589041127 238.07999999999993 181.8767123287671" blush:i="0.3.0.2.0"><path id="SKIN" fill-rule="evenodd" clip-rule="evenodd" d="M231.483 59.9252L192 65.3108L199.084 83L231.121 70.2987C244.93 71.6611 251.607 71.3331 251.153 69.3149C250.77 67.6131 249.302 67.0993 247.95 66.6261C246.897 66.2574 245.914 65.9134 245.569 65.0515C244.78 63.0832 249.269 59.0033 253.693 55.3152C258.117 51.6271 255.148 50.9484 253.281 51.0029C246.647 52.5579 239.381 55.532 231.483 59.9252ZM39.398 156.908C42.3285 150.963 67.9699 74.4497 67.9699 74.4497L89.8673 74.5319C89.8673 74.5319 53.8506 155.583 52.308 159.406C50.3041 164.372 53.708 171.587 56.0162 176.48C56.3733 177.237 56.7041 177.938 56.9847 178.567C53.782 180 52.2435 178.268 50.6216 176.442C48.7896 174.379 46.8512 172.197 42.288 174.319C40.525 175.14 38.8568 176.109 37.2269 177.057C31.5969 180.329 26.4249 183.336 19.3891 178.994C18.2737 178.306 17.0514 175.715 20.0047 173.69C27.3624 168.645 37.9654 159.815 39.398 156.908Z" fill="#ba8b72" blush:color="Skin-700" blush:i="0.3.0.2.0.0"/><path id="Clothes Back" fill-rule="evenodd" clip-rule="evenodd" d="M127.949 5.00001L145.094 6.14217C149.317 44.3434 172.316 68.4728 223.811 60.304L230.652 109.499C182.523 115.719 140.313 96.4498 131.662 44.2785C129.423 30.7729 127.655 16.7178 127.949 5.00001Z" fill="#122439" blush:color="Top-700" blush:i="0.3.0.2.0.1"/><path id="Clothes" fill-rule="evenodd" clip-rule="evenodd" d="M42.4016 147C54.3053 83.664 79.4301 34.664 117.776 0H119.421H119.477L119.491 0.0159384L145.468 5.96528C145.468 37.1692 152.41 60.4845 159.084 82.9002C161.966 92.5803 164.798 102.093 167 112H96.8436C95.8554 123.351 95.2485 135.018 94.9322 147H42.4016Z" fill="#1F3C5F" blush:color="Top-500" blush:i="0.3.0.2.0.2"/><path id="Shade" fill-rule="evenodd" clip-rule="evenodd" d="M96.8438 112C98.8558 88.8905 102.449 67.0899 108.388 46.5981C107.086 68.5123 106.725 95.6979 111.103 112H96.8438Z" fill="black" fill-opacity="0.1" blush:i="0.3.0.2.0.3"/></g></g></g></g></g></svg>