<svg viewBox="120 90 2160.0000000000005 1470" fill="none" xmlns="http://www.w3.org/2000/svg" xmlns:xlink="http://www.w3.org/1999/xlink" xmlns:blush="http://design.blush" overflow="visible" width="2160.0000000000005px" height="1470px"><g id="Master/Scenes/Keeping in Touch" blush:has-customizable-colors="true" blush:viewBox="0 102 2399.9999999999995 1679.9999999999998" blush:i="0"><g id="Plant" blush:component="Plant" blush:defaultValue="Plant 6" blush:width="645" blush:height="854" transform="matrix(-1 0 0 1 645 659) scale(1 1)" blush:i="0.0" blush:value="Plant 6" blush:viewBox="134.80158730158735 354.4100000000001 375.39682539682536 499.59"><g id="Plant/Plant 6" blush:viewBox="134.80158730158735 354.4100000000001 375.39682539682536 499.59" blush:i="0.0.0"><g id="Plant" blush:i="0.0.0.0"><path id="Fill 1" fill-rule="evenodd" clip-rule="evenodd" d="M226.829 426.385C178.48 432.74 140.157 520.068 304.291 608.259C309.19 483.322 286.165 418.584 226.829 426.385" fill="#FFC81A" blush:i="0.0.0.0.0"/><path id="Fill 3" fill-rule="evenodd" clip-rule="evenodd" d="M152.789 595.688C116.696 611.566 139.253 688.867 266.977 722.927C270.938 621.904 196.305 576.545 152.789 595.688" fill="#FFC81A" blush:i="0.0.0.0.1"/><path id="Fill 5" fill-rule="evenodd" clip-rule="evenodd" d="M453.604 656.688C465.962 619.244 403.605 571.099 292.816 643.207C365.227 713.761 438.704 701.833 453.604 656.688" fill="#FFC81A" blush:i="0.0.0.0.2"/><path id="Fill 7" fill-rule="evenodd" clip-rule="evenodd" d="M499.721 376.808C473.27 332.932 373.03 353.652 350.336 523.898C481.178 512.236 531.612 429.708 499.721 376.808" fill="#FFC81A" blush:i="0.0.0.0.3"/><path id="Fill 10" fill-rule="evenodd" clip-rule="evenodd" d="M252.792 853.29H252.812C253.916 853.279 254.803 852.375 254.792 851.27C254.786 850.642 254.421 787.41 274.359 706.204C286.061 658.545 302.363 614.109 322.813 574.132C348.355 524.203 380.476 481.126 418.285 446.097C419.096 445.347 419.144 444.081 418.393 443.27C417.642 442.461 416.375 442.412 415.566 443.163C377.397 478.525 344.982 521.997 319.222 572.37C298.629 612.639 282.219 657.382 270.448 705.359C250.409 787.032 250.786 850.676 250.792 851.31C250.803 852.407 251.696 853.29 252.792 853.29" fill="#141414" blush:i="0.0.0.0.4"/></g></g></g><g id="Seat" blush:component="Seat" blush:defaultValue="Bench" blush:width="670.2384643554688" blush:height="675.43408203125" transform="matrix(-1 0 0 1 2008.24 871) scale(1.0391294021015018 1.039129356971154)" blush:i="0.1" blush:value="Bench" blush:viewBox="29.909274193548413 6.5 533.165322580645 627.2499999999999"><g id="Seat/Bench" blush:viewBox="29.909274193548413 6.5 533.165322580645 627.2499999999999" blush:i="0.1.0"><g id="Chair" blush:i="0.1.0.0"><path id="Fill 1" fill-rule="evenodd" clip-rule="evenodd" d="M173.653 399.414L108.762 632H136.543L231.465 399.414H173.653Z" fill="#FF4B33" blush:i="0.1.0.0.0"/><path id="Fill 2" fill-rule="evenodd" clip-rule="evenodd" d="M440.148 399.414L545.266 632.414H563.032L499.369 399.414H440.148Z" fill="#FF4B33" blush:i="0.1.0.0.1"/><path id="Path" fill-rule="evenodd" clip-rule="evenodd" d="M501.255 402.388H167.24C166.397 402.388 165.644 401.859 165.358 401.066C164.485 398.64 77.5138 157.125 34.8978 37.8012C30.3708 25.1252 34.1008 14.2822 44.3998 10.1762C63.0888 2.7292 105.054 18.8112 138.099 93.6882L220.811 307.133H501.255C502.359 307.133 503.255 308.029 503.255 309.133V400.388C503.255 401.492 502.359 402.388 501.255 402.388" fill="#141414" blush:i="0.1.0.0.2"/><path id="Path_2" fill-rule="evenodd" clip-rule="evenodd" d="M168.647 398.388H499.256V311.133H219.442C218.616 311.133 217.876 310.625 217.577 309.856L134.405 95.2192C104.229 26.8452 64.4705 6.4802 45.8825 13.8922C37.6355 17.1802 34.8705 25.8262 38.6665 36.4552C79.6395 151.18 161.617 378.865 168.647 398.388" fill="white" blush:i="0.1.0.0.3"/></g></g></g><g id="Master/Character/Sitting" blush:has-customizable-colors="true" blush:component="Master/Character/Sitting" blush:width="1163" blush:height="1300" transform="matrix(-1 0 0 1 2255 480) scale(1 1)" blush:i="0.2" blush:value="Sitting" blush:viewBox="259.5285234899329 91 910.6263982102907 981.5000000000001"><g id="Master/Character/Sitting" blush:has-customizable-colors="true" blush:viewBox="259.5285234899329 91 910.6263982102907 981.5000000000001" blush:i="0.2.0"><g id="Lower Body Sit" blush:component="Lower Body Sit" blush:defaultValue="Sitting" blush:width="900" blush:height="614" transform="translate(264 454) scale(1 1)" blush:i="0.2.0.0" blush:value="Sitting" blush:viewBox="153 115.68768328445742 540 477.15542521994126"><g id="Lower Body Sit/Sitting" blush:viewBox="153 115.68768328445742 540 477.15542521994126" blush:i="0.2.0.0.0"><g id="Sitting" blush:i="0.2.0.0.0.0"><g id="Assets 38" blush:i="0.2.0.0.0.0.0"><path id="SKIN" fill-rule="evenodd" clip-rule="evenodd" d="M521.7 491.689L535.26 542.336L605.766 548.21L601.875 499.08" fill="white" blush:i="0.2.0.0.0.0.0.0"/><path id="Fill 2" fill-rule="evenodd" clip-rule="evenodd" d="M605.768 550.208C605.712 550.208 605.657 550.206 605.601 550.201L535.094 544.329C534.55 544.284 534.049 544.019 533.705 543.595C533.363 543.171 533.207 542.625 533.276 542.084L519.716 491.437C519.856 490.339 520.876 489.564 521.953 489.704C523.048 489.844 523.824 490.845 523.685 491.94L537.507 540.517L604.359 546.084L599.975 498.456C600.319 497.407 601.446 496.833 602.498 497.179C603.548 497.522 604.12 498.652 603.776 499.702L607.667 548.831C607.397 549.658 606.625 550.208 605.768 550.208" fill="#141414" blush:i="0.2.0.0.0.0.0.1"/><path id="Fill 4" fill-rule="evenodd" clip-rule="evenodd" d="M532.376 539.599C532.634 538.582 533.634 537.939 534.667 538.123C535.65 538.3 536.895 538.539 538.36 538.822C547.342 540.55 566.031 544.147 583.742 544.161H583.787C594.221 544.161 603.397 541.307 609.625 536.122C610.12 535.71 610.782 535.564 611.408 535.724C641.806 543.638 663.769 549.356 680.045 560.211C682.905 562.12 693.222 570.448 691.437 576.338C690.612 579.062 687.674 580.443 682.704 580.443C664.56 580.443 625.469 580.544 590.98 580.634C563.073 580.707 538.973 580.77 529.899 580.77C528.94 580.77 528.075 580.335 527.462 579.546C523.889 574.95 529.708 550.078 532.376 539.599" fill="#02bad3" blush:color="Clothing-500" blush:i="0.2.0.0.0.0.0.2"/><path id="Fill 6" fill-rule="evenodd" clip-rule="evenodd" d="M530.264 589.577H687.101C689.707 589.577 691.82 587.464 691.82 584.857V583.298C691.82 580.691 689.707 578.579 687.101 578.579H530.264C527.659 578.579 525.545 580.691 525.545 583.298V584.857C525.545 587.464 527.659 589.577 530.264 589.577" fill="#141414" blush:i="0.2.0.0.0.0.0.3"/><path id="Fill 8" fill-rule="evenodd" clip-rule="evenodd" d="M642.56 554.567C643.355 554.567 644.117 554.12 644.481 553.354C647.818 546.346 654.229 548.061 654.95 548.282C656.068 548.621 657.257 547.996 657.605 546.88C657.952 545.762 657.337 544.577 656.223 544.223C652.587 543.069 644.649 543.111 640.641 551.526C640.136 552.587 640.586 553.855 641.647 554.36C641.942 554.501 642.253 554.567 642.56 554.567" fill="#141414" blush:i="0.2.0.0.0.0.0.4"/><path id="Fill 10" fill-rule="evenodd" clip-rule="evenodd" d="M623.778 549.444C624.573 549.444 625.336 548.997 625.7 548.231C629.037 541.223 635.448 542.938 636.168 543.159C637.287 543.499 638.476 542.873 638.823 541.757C639.17 540.639 638.555 539.454 637.441 539.1C633.801 537.947 625.865 537.99 621.86 546.403C621.355 547.464 621.805 548.732 622.866 549.237C623.161 549.378 623.471 549.444 623.778 549.444" fill="#141414" blush:i="0.2.0.0.0.0.0.5"/></g><g id="Assets 39" blush:i="0.2.0.0.0.0.1"><path id="SKIN_2" fill-rule="evenodd" clip-rule="evenodd" d="M354.859 492.695L348.419 543.342L418.925 549.216L435.034 500.086" fill="white" blush:i="0.2.0.0.0.0.1.0"/><path id="Fill 14" fill-rule="evenodd" clip-rule="evenodd" d="M418.926 551.214C418.87 551.214 418.815 551.212 418.759 551.207L348.252 545.335C347.708 545.29 347.207 545.025 346.863 544.601C346.521 544.177 346.365 543.631 346.434 543.09L352.874 492.443C353.014 491.345 354.034 490.57 355.111 490.71C356.206 490.85 356.982 491.851 356.843 492.946L350.665 541.523L417.517 547.09L433.133 499.462C433.477 498.413 434.604 497.839 435.656 498.185C436.706 498.528 437.278 499.658 436.934 500.708L420.825 549.837C420.555 550.664 419.783 551.214 418.926 551.214" fill="#141414" blush:i="0.2.0.0.0.0.1.1"/><path id="Fill 16" fill-rule="evenodd" clip-rule="evenodd" d="M345.534 540.605C345.792 539.588 346.792 538.945 347.825 539.129C348.808 539.306 350.053 539.545 351.518 539.828C360.5 541.556 379.189 545.153 396.9 545.167H396.945C407.379 545.167 416.555 542.313 422.783 537.128C423.278 536.716 423.94 536.57 424.566 536.73C454.964 544.644 476.927 550.362 493.203 561.217C496.063 563.126 506.38 571.454 504.596 577.344C503.77 580.068 500.832 581.449 495.862 581.449C477.718 581.449 438.627 581.55 404.138 581.64C376.231 581.713 352.131 581.776 343.057 581.776C342.098 581.776 341.233 581.341 340.62 580.552C337.047 575.956 342.866 551.084 345.534 540.605" fill="#02bad3" blush:color="Clothing-500" blush:i="0.2.0.0.0.0.1.2"/><path id="Fill 18" fill-rule="evenodd" clip-rule="evenodd" d="M343.422 590.583H500.259C502.865 590.583 504.978 588.47 504.978 585.863V584.304C504.978 581.697 502.865 579.585 500.259 579.585H343.422C340.817 579.585 338.703 581.697 338.703 584.304V585.863C338.703 588.47 340.817 590.583 343.422 590.583" fill="#141414" blush:i="0.2.0.0.0.0.1.3"/><path id="Fill 21" fill-rule="evenodd" clip-rule="evenodd" d="M455.718 555.572C456.513 555.572 457.275 555.125 457.639 554.359C460.976 547.351 467.387 549.066 468.108 549.287C469.226 549.626 470.415 549.001 470.763 547.885C471.11 546.767 470.495 545.582 469.381 545.228C465.745 544.074 457.807 544.116 453.799 552.531C453.294 553.592 453.744 554.86 454.805 555.365C455.1 555.506 455.411 555.572 455.718 555.572" fill="#141414" blush:i="0.2.0.0.0.0.1.4"/><path id="Fill 23" fill-rule="evenodd" clip-rule="evenodd" d="M436.937 550.45C437.732 550.45 438.495 550.003 438.859 549.237C442.196 542.229 448.607 543.944 449.327 544.165C450.446 544.505 451.635 543.879 451.982 542.763C452.329 541.645 451.714 540.46 450.6 540.106C446.96 538.953 439.024 538.996 435.019 547.409C434.514 548.47 434.964 549.738 436.025 550.243C436.32 550.384 436.63 550.45 436.937 550.45" fill="#141414" blush:i="0.2.0.0.0.0.1.5"/></g><g id="Pant 2" blush:i="0.2.0.0.0.0.2"><path id="Fill 25" fill-rule="evenodd" clip-rule="evenodd" d="M472.057 120H357.391C327.02 120 435.016 255.826 435.016 255.826C435.54 268.396 436.998 495.136 436.998 495.136C510.551 510.252 570.338 514.593 620.763 506.561C620.763 506.561 594.334 309.901 572.444 196.945C561.108 138.45 512.953 120 472.057 120" fill="#141414" blush:i="0.2.0.0.0.0.2.0"/><g id="Combined Shape" blush:i="0.2.0.0.0.0.2.1"><path fill-rule="evenodd" clip-rule="evenodd" d="M498.197 273.613C499.287 273.436 500.027 272.408 499.849 271.318L497.924 259.473C497.747 258.383 496.726 257.644 495.629 257.82C494.539 257.997 493.799 259.025 493.976 260.115L495.902 271.96C496.061 272.942 496.91 273.639 497.873 273.639C497.98 273.639 498.088 273.631 498.197 273.613ZM502.049 297.302C503.139 297.125 503.879 296.098 503.701 295.007L501.776 283.163C501.599 282.073 500.581 281.334 499.481 281.51C498.391 281.687 497.651 282.715 497.828 283.804L499.754 295.65C499.913 296.631 500.762 297.328 501.725 297.328C501.832 297.328 501.94 297.321 502.049 297.302ZM522.957 413.451C523.135 414.542 522.395 415.569 521.305 415.746C521.196 415.765 521.088 415.772 520.982 415.772C520.018 415.772 519.169 415.075 519.01 414.094L517.084 402.25C516.907 401.159 517.647 400.132 518.737 399.955C519.827 399.773 520.855 400.517 521.032 401.607L522.957 413.451ZM525.156 439.436C526.246 439.259 526.986 438.232 526.808 437.141L524.883 425.296C524.706 424.206 523.679 423.462 522.588 423.644C521.498 423.821 520.758 424.848 520.935 425.939L522.861 437.784C523.02 438.765 523.869 439.462 524.833 439.462C524.939 439.462 525.047 439.455 525.156 439.436ZM536.71 510.502C537.8 510.325 538.54 509.298 538.362 508.207L536.437 496.363C536.26 495.273 535.243 494.523 534.142 494.711C533.052 494.888 532.312 495.915 532.489 497.006L534.415 508.85C534.574 509.831 535.423 510.528 536.387 510.528C536.493 510.528 536.601 510.521 536.71 510.502ZM532.858 486.814C533.948 486.637 534.688 485.61 534.51 484.519L532.585 472.674C532.408 471.584 531.38 470.838 530.29 471.022C529.2 471.199 528.46 472.226 528.637 473.317L530.563 485.162C530.722 486.143 531.571 486.84 532.535 486.84C532.641 486.84 532.749 486.833 532.858 486.814ZM530.659 460.829C530.837 461.92 530.097 462.947 529.007 463.124C528.898 463.143 528.79 463.15 528.684 463.15C527.72 463.15 526.871 462.453 526.712 461.472L524.787 449.628C524.61 448.537 525.35 447.51 526.44 447.333C527.528 447.149 528.558 447.895 528.735 448.985L530.659 460.829ZM507.551 318.695C507.729 319.786 506.989 320.813 505.899 320.99C505.79 321.009 505.682 321.016 505.576 321.016C504.612 321.016 503.763 320.319 503.604 319.338L501.678 307.494C501.501 306.403 502.241 305.376 503.331 305.199C504.43 305.012 505.449 305.761 505.626 306.851L507.551 318.695ZM519.105 389.763C519.283 390.854 518.543 391.881 517.453 392.058C517.344 392.077 517.236 392.084 517.13 392.084C516.166 392.084 515.317 391.387 515.158 390.406L513.232 378.561C513.055 377.47 513.795 376.443 514.885 376.266C515.974 376.081 517.003 376.828 517.18 377.918L519.105 389.763ZM509.751 344.68C510.841 344.503 511.581 343.476 511.403 342.385L509.478 330.54C509.301 329.45 508.272 328.705 507.183 328.888C506.093 329.065 505.353 330.092 505.53 331.183L507.456 343.028C507.615 344.009 508.464 344.706 509.428 344.706C509.534 344.706 509.642 344.699 509.751 344.68ZM515.255 366.073C515.433 367.164 514.693 368.191 513.603 368.368C513.494 368.387 513.386 368.394 513.28 368.394C512.316 368.394 511.467 367.697 511.308 366.716L509.382 354.872C509.205 353.781 509.945 352.754 511.035 352.577C512.134 352.391 513.153 353.139 513.33 354.229L515.255 366.073Z" fill="white" fill-opacity="0.8" style="mix-blend-mode:overlay" blush:i="0.2.0.0.0.0.2.1.0"/></g></g><g id="Pant 1" blush:i="0.2.0.0.0.0.3"><path id="Fill 1" fill-rule="evenodd" clip-rule="evenodd" d="M394.453 120H162.768C162.768 120 139.333 203.554 186.939 249.256C230.816 291.379 331.095 276.308 352.09 272.593L355.538 250.897C355.711 249.806 356.749 249.064 357.827 249.235C358.917 249.409 359.662 250.434 359.489 251.525L355.932 273.906C354.257 299.842 322.931 513.136 322.931 513.136C382.761 530.69 459.88 532.324 499.943 524.561C499.943 524.561 500.676 324.292 492.645 201.026C489.188 147.972 447.017 120 394.453 120Z" fill="#0B379B" blush:i="0.2.0.0.0.0.3.0"/><g id="Combined Shape_2" blush:i="0.2.0.0.0.0.3.1"><path fill-rule="evenodd" clip-rule="evenodd" d="M201.133 132.369C200.718 128.867 200.685 126.626 200.685 126.603C200.671 125.508 199.778 124.629 198.685 124.629H198.66C197.556 124.642 196.672 125.548 196.685 126.652C196.686 126.75 196.718 129.107 197.16 132.84C197.281 133.857 198.145 134.604 199.144 134.604C199.223 134.604 199.302 134.6 199.382 134.591C200.479 134.461 201.263 133.466 201.133 132.369ZM385.308 442.829C384.218 442.744 383.246 443.57 383.163 444.673C382.854 448.765 382.549 452.764 382.251 456.652C382.167 457.753 382.992 458.715 384.093 458.799C384.145 458.803 384.197 458.805 384.247 458.805C385.283 458.805 386.16 458.007 386.24 456.957C386.537 453.068 386.842 449.067 387.152 444.974C387.235 443.873 386.41 442.912 385.308 442.829ZM379.436 492.594C379.523 491.493 380.482 490.683 381.588 490.759C382.69 490.848 383.511 491.812 383.423 492.912C383.068 497.341 382.745 501.359 382.458 504.899C382.373 505.945 381.498 506.737 380.467 506.737C380.44 506.737 380.414 506.736 380.386 506.735L380.36 506.734L380.341 506.733C380.329 506.732 380.316 506.731 380.303 506.73C379.202 506.641 378.382 505.676 378.472 504.574C378.759 501.036 379.082 497.021 379.436 492.594ZM383.475 466.793C382.371 466.721 381.412 467.53 381.326 468.632C381 472.807 380.687 476.811 380.387 480.612C380.3 481.714 381.122 482.677 382.224 482.764C382.243 482.766 382.262 482.767 382.281 482.768C382.303 482.769 382.325 482.769 382.347 482.77C382.359 482.77 382.371 482.77 382.383 482.77C383.416 482.77 384.292 481.975 384.375 480.927C384.675 477.123 384.989 473.119 385.314 468.942C385.4 467.841 384.577 466.879 383.475 466.793ZM388.311 372.783C388.384 371.682 389.323 370.826 390.44 370.922C391.542 370.995 392.376 371.948 392.301 373.051C392.034 377.048 391.762 381.052 391.487 385.048C391.415 386.103 390.536 386.91 389.494 386.91C389.448 386.91 389.401 386.908 389.354 386.905C388.252 386.829 387.42 385.875 387.497 384.773C387.772 380.779 388.044 376.778 388.311 372.783ZM380.171 226.516C380.9 226.516 381.601 226.117 381.954 225.424C382.456 224.44 382.066 223.236 381.082 222.734C377.875 221.098 374.145 219.404 369.994 217.697C368.971 217.276 367.803 217.766 367.384 218.787C366.964 219.808 367.451 220.976 368.473 221.396C372.524 223.062 376.154 224.711 379.264 226.297C379.555 226.446 379.865 226.516 380.171 226.516ZM384.944 420.715C385.025 419.613 385.977 418.793 387.085 418.865C388.187 418.946 389.015 419.904 388.935 421.006C388.638 425.055 388.343 429.056 388.049 432.991C387.971 434.042 387.094 434.842 386.057 434.842C386.032 434.842 386.007 434.842 385.982 434.841L385.957 434.84C385.94 434.839 385.923 434.838 385.905 434.836C384.804 434.754 383.978 433.794 384.061 432.692C384.355 428.76 384.649 424.762 384.944 420.715ZM388.799 394.899C387.713 394.835 386.742 395.653 386.664 396.754C386.382 400.771 386.098 404.769 385.813 408.734C385.734 409.836 386.563 410.794 387.664 410.873C387.688 410.874 387.711 410.875 387.734 410.876C387.747 410.877 387.759 410.877 387.772 410.877C387.785 410.877 387.797 410.878 387.81 410.878C388.849 410.878 389.727 410.074 389.803 409.021C390.088 405.054 390.372 401.054 390.654 397.034C390.732 395.932 389.902 394.976 388.799 394.899ZM231.305 177.892C234.019 178.819 237.754 179.929 242.722 181.286C243.788 181.577 244.415 182.677 244.124 183.742C243.882 184.631 243.076 185.216 242.196 185.216C242.022 185.216 241.845 185.193 241.668 185.144C236.618 183.765 232.806 182.631 230.013 181.677C228.968 181.32 228.409 180.183 228.766 179.138C229.123 178.093 230.259 177.535 231.305 177.892ZM203.316 143.869C203.033 142.801 201.94 142.167 200.871 142.447C199.803 142.73 199.167 143.825 199.449 144.892C200.543 149.027 201.925 152.936 203.556 156.512C203.892 157.247 204.618 157.682 205.377 157.682C205.654 157.682 205.937 157.624 206.206 157.501C207.211 157.043 207.653 155.856 207.195 154.851C205.658 151.481 204.353 147.786 203.316 143.869ZM254.319 184.338C257.973 185.275 261.874 186.261 265.964 187.29C267.035 187.56 267.685 188.646 267.416 189.717C267.188 190.625 266.373 191.23 265.478 191.23C265.316 191.23 265.152 191.21 264.988 191.169C260.891 190.139 256.985 189.151 253.325 188.212C252.256 187.938 251.61 186.848 251.885 185.778C252.159 184.708 253.247 184.061 254.319 184.338ZM391.986 346.959C390.904 346.894 389.934 347.729 389.865 348.83C389.616 352.798 389.361 356.798 389.099 360.814C389.028 361.917 389.863 362.868 390.965 362.94C391.009 362.943 391.053 362.944 391.097 362.944C392.142 362.944 393.022 362.132 393.091 361.074C393.353 357.054 393.608 353.052 393.857 349.08C393.926 347.978 393.089 347.028 391.986 346.959ZM347.244 209.484C351.299 210.8 355.147 212.108 358.681 213.374C359.721 213.746 360.262 214.891 359.89 215.931C359.598 216.748 358.827 217.257 358.007 217.257C357.784 217.257 357.556 217.22 357.333 217.14C353.836 215.888 350.027 214.592 346.01 213.289C344.959 212.948 344.384 211.82 344.725 210.77C345.066 209.719 346.192 209.145 347.244 209.484ZM335.729 205.891C332.083 204.793 328.19 203.656 324.163 202.511C323.099 202.208 321.994 202.826 321.692 203.888C321.39 204.951 322.006 206.057 323.069 206.359C327.077 207.498 330.949 208.629 334.577 209.721C334.768 209.779 334.962 209.807 335.154 209.807C336.013 209.807 336.807 209.248 337.068 208.383C337.386 207.325 336.787 206.209 335.729 205.891ZM300.934 196.192C304.791 197.204 308.677 198.237 312.557 199.291C313.623 199.581 314.253 200.679 313.963 201.745C313.722 202.636 312.915 203.222 312.034 203.222C311.861 203.222 311.684 203.199 311.509 203.151C307.64 202.101 303.766 201.07 299.919 200.062C298.851 199.781 298.212 198.688 298.492 197.62C298.772 196.551 299.863 195.915 300.934 196.192ZM289.284 193.179C285.319 192.165 281.42 191.179 277.625 190.222C276.551 189.949 275.466 190.601 275.197 191.673C274.927 192.744 275.576 193.831 276.647 194.101C280.439 195.056 284.333 196.042 288.293 197.054C288.459 197.096 288.626 197.117 288.79 197.117C289.682 197.117 290.495 196.516 290.726 195.612C291 194.542 290.354 193.452 289.284 193.179ZM392.749 235.911C391.915 234.813 390.687 233.607 389.135 232.378C388.27 231.692 388.123 230.434 388.81 229.568C389.495 228.702 390.753 228.557 391.619 229.242C393.435 230.681 394.9 232.128 395.974 233.545C396.569 234.361 397.205 235.83 397.602 240.773C397.691 241.874 396.869 242.838 395.769 242.926C395.714 242.931 395.66 242.933 395.607 242.933C394.574 242.933 393.699 242.139 393.615 241.093C393.277 236.885 392.803 235.998 392.749 235.911ZM396.004 250.921H395.996C394.892 250.924 394 251.824 394.004 252.928L394.007 254.546C394.007 257.607 393.968 261.09 393.892 264.9C393.87 266.005 394.747 266.919 395.852 266.941H395.893C396.979 266.941 397.869 266.072 397.892 264.98C397.968 261.145 398.007 257.633 398.007 254.546L398.004 252.913C398 251.812 397.106 250.921 396.004 250.921ZM393.566 276.89C393.603 275.786 394.543 274.905 395.631 274.957C396.735 274.994 397.6 275.919 397.564 277.022C397.437 280.848 397.282 284.866 397.108 289.05C397.063 290.125 396.177 290.966 395.11 290.966C395.103 290.966 395.097 290.966 395.09 290.966C395.082 290.966 395.075 290.966 395.067 290.965L395.031 290.964L395.026 290.964C393.922 290.918 393.065 289.985 393.111 288.882C393.286 284.711 393.439 280.703 393.566 276.89ZM393.411 322.972C392.296 322.92 391.363 323.753 391.301 324.856C391.077 328.794 390.844 332.795 390.6 336.843C390.534 337.946 391.374 338.894 392.476 338.959C392.517 338.962 392.558 338.963 392.599 338.963C393.648 338.963 394.529 338.145 394.593 337.083C394.836 333.03 395.071 329.025 395.295 325.082C395.357 323.98 394.514 323.034 393.411 322.972ZM392.568 300.875C392.621 299.771 393.556 298.929 394.663 298.974C395.767 299.028 396.617 299.965 396.564 301.069C396.375 304.97 396.172 308.979 395.955 313.078C395.898 314.145 395.016 314.972 393.96 314.972C393.924 314.972 393.889 314.971 393.852 314.969C392.749 314.911 391.902 313.969 391.961 312.867C392.178 308.774 392.381 304.771 392.568 300.875ZM379.712 513.97C378.605 513.868 377.645 514.699 377.555 515.799L377.06 521.773C376.968 522.873 377.785 523.841 378.886 523.933C378.942 523.938 378.999 523.94 379.055 523.94C380.084 523.94 380.958 523.151 381.046 522.107L381.541 516.127C381.632 515.027 380.813 514.061 379.712 513.97ZM237.527 126.377C237.576 126.765 238.71 136.012 236.87 146.34C234.604 159.057 228.759 167.757 219.904 171.739C220.017 171.83 220.13 171.921 220.243 172.012C220.551 172.261 220.858 172.509 221.175 172.739C222.069 173.388 222.267 174.639 221.618 175.532C221.227 176.071 220.617 176.357 219.998 176.357C219.591 176.357 219.18 176.233 218.825 175.975C215.526 173.58 212.521 170.625 209.892 167.192C209.221 166.315 209.388 165.059 210.265 164.388C211.142 163.717 212.398 163.883 213.068 164.76C214.166 166.194 215.343 167.523 216.574 168.764C237.611 161.317 233.602 127.225 233.558 126.878C233.42 125.782 234.197 124.782 235.292 124.644C236.391 124.511 237.388 125.281 237.527 126.377Z" fill="white" fill-opacity="0.8" style="mix-blend-mode:overlay" blush:i="0.2.0.0.0.0.3.1.0"/></g></g></g></g></g><g id="Upper Body" blush:component="Upper Body" blush:defaultValue="Arms Crossed" blush:width="600" blush:height="550" transform="translate(272 187) scale(1 1)" blush:i="0.2.0.1" blush:value="Recording" blush:viewBox="141 31.823144104803475 375 366.26637554585164"><g id="Upper Body/Recording" blush:viewBox="141 31.823144104803475 375 366.26637554585164" blush:i="0.2.0.1.0"><g id="Hand 2" blush:i="0.2.0.1.0.0"><path id="SKIN" fill-rule="evenodd" clip-rule="evenodd" d="M451.522 102.348C445.326 122.645 418.117 193.86 399.303 200.614L336.449 250.647C346.182 271.736 381.289 297.7 399.643 297.7C417.996 297.7 477.046 283.969 501.517 124.141C506.962 100.149 497.635 69.0493 491.516 75.5083C478.275 89.4833 451.522 102.348 451.522 102.348" fill="white" blush:i="0.2.0.1.0.0.0"/><path id="Fill 3" fill-rule="evenodd" clip-rule="evenodd" d="M339.11 251.248C349.346 271.128 382.455 295.573 399.644 295.573C421.849 295.573 439.931 277.319 446.674 269.471C471.254 240.864 488.999 191.86 499.417 123.82C499.424 123.77 499.434 123.72 499.445 123.671C503.378 106.342 499.339 85.3107 494.832 78.4457C493.957 77.1137 493.393 76.8307 493.26 76.7797C493.247 76.8007 493.171 76.8547 493.061 76.9707C480.871 89.8377 458.02 101.511 453.282 103.856C448.217 119.91 421.089 194.331 400.367 202.486L339.11 251.248ZM399.644 299.827C380.427 299.827 344.517 273.2 334.52 251.539C334.109 250.649 334.359 249.594 335.126 248.983L397.98 198.95C398.162 198.806 398.367 198.691 398.586 198.612C415.415 192.571 441.819 126.856 449.489 101.727C449.663 101.16 450.067 100.69 450.602 100.432C450.866 100.305 477.16 87.5707 489.973 74.0457C491.491 72.4437 493.502 72.0797 495.352 73.0677C502.688 76.9877 508.186 104.247 503.61 124.538C478.69 287.198 417.735 299.827 399.644 299.827V299.827Z" fill="#141414" blush:i="0.2.0.1.0.0.1"/><g id="Phone" blush:i="0.2.0.1.0.0.2"><path id="Fill 5" fill-rule="evenodd" clip-rule="evenodd" d="M508.704 130.705L474.751 141.625C470.444 143.01 465.829 140.642 464.443 136.334L438.485 55.6227C437.1 51.3157 439.468 46.7007 443.775 45.3157L477.728 34.3957C482.036 33.0097 486.651 35.3787 488.036 39.6857L513.995 120.397C515.38 124.705 513.012 129.319 508.704 130.705" fill="#141414" blush:i="0.2.0.1.0.0.2.0"/><circle id="Oval" cx="479.289" cy="47.75" r="3.75" fill="#13D6C3" blush:i="0.2.0.1.0.0.2.1"/></g><g id="palm" blush:i="0.2.0.1.0.0.3"><path id="SKIN_2" fill-rule="evenodd" clip-rule="evenodd" d="M508.405 105.404C504.072 104.497 498.066 107.552 498.329 112.155C498.53 115.681 502.964 118.553 509.211 115.279C513.795 112.876 512.335 106.227 508.405 105.404" fill="white" blush:i="0.2.0.1.0.0.3.0"/><path id="SKIN_3" fill-rule="evenodd" clip-rule="evenodd" d="M501.058 75.8014C502.574 69.6034 497.558 65.3934 490.548 68.6844C488.57 69.6134 485.557 71.7994 485.427 75.2694C485.094 84.1154 499.981 80.2024 501.058 75.8014" fill="white" blush:i="0.2.0.1.0.0.3.1"/><path id="SKIN_4" fill-rule="evenodd" clip-rule="evenodd" d="M507.63 103.648C512.079 100.775 510.186 92.4986 504.878 91.7156C503.653 91.5346 502.386 91.6096 501.148 91.8836C503.223 90.8756 504.718 89.5626 505.304 88.2836C507.782 82.8726 502.619 75.2246 491.128 81.9906C484.859 85.6816 487.302 93.4306 492.451 93.6266C494.442 93.7016 496.328 93.4686 498.018 93.0306C493.933 95.1566 491.07 99.3336 492.866 103.131C494.877 107.382 501.055 107.894 507.63 103.648" fill="white" blush:i="0.2.0.1.0.0.3.2"/><path id="Fill 14" fill-rule="evenodd" clip-rule="evenodd" d="M508.227 113.395C505.72 114.709 503.386 114.955 501.822 114.069C501.001 113.604 500.502 112.862 500.455 112.034C500.381 110.738 501.192 109.754 501.886 109.157C503.179 108.045 505.104 107.372 506.816 107.372C507.217 107.372 507.606 107.409 507.973 107.486C508.924 107.685 509.715 108.731 509.896 110.03C509.993 110.728 510.025 112.453 508.227 113.395M494.789 102.222C493.976 100.501 494.766 98.8437 495.571 97.7567C496.404 96.6327 497.564 95.6947 498.852 95.0017C499.885 94.7157 500.851 94.3587 501.74 93.9467C502.335 93.8247 502.93 93.7437 503.511 93.7437C503.87 93.7437 504.224 93.7687 504.568 93.8197C506.476 94.1007 507.532 95.9497 507.856 97.4467C508.165 98.8727 507.989 100.884 506.476 101.861C503.112 104.034 499.662 104.918 497.256 104.233C496.093 103.901 495.263 103.225 494.789 102.222M489.644 88.9297C489.458 88.1947 489.095 85.6547 492.207 83.8227C494.865 82.2577 497.313 81.4587 499.284 81.4587C500.608 81.4587 501.717 81.8197 502.528 82.5517C503.804 83.7037 504.151 85.6957 503.371 87.3977C503.036 88.1297 501.956 89.0987 500.323 89.9137C499.306 90.1687 498.303 90.5347 497.346 91.0027C495.923 91.3607 494.304 91.5667 492.532 91.5007C490.863 91.4377 489.933 90.0767 489.644 88.9297M491.455 70.6087C494.063 69.3847 496.472 69.3497 497.895 70.5147C499.097 71.4987 499.498 73.2407 498.995 75.2957C498.752 76.2867 494.421 78.9637 490.269 78.3837C487.79 78.0377 487.505 76.6557 487.554 75.3497C487.66 72.5317 490.822 70.9067 491.455 70.6087M514.108 109.444C513.768 106.996 512.362 104.961 510.445 103.93C512.001 102.022 512.616 99.3277 512.013 96.5457C511.337 93.4247 509.334 91.0257 506.737 90.0367C506.93 89.7487 507.105 89.4597 507.238 89.1697C508.808 85.7427 508.06 81.8137 505.377 79.3947C504.806 78.8787 503.852 78.1997 502.503 77.7337C502.789 77.2787 503.005 76.8037 503.126 76.3067C504.02 72.6517 503.072 69.2557 500.589 67.2237C497.866 64.9947 493.775 64.8217 489.647 66.7587V66.7597C488.207 67.4357 483.498 70.0407 483.304 75.1887C483.179 78.5257 484.77 80.9877 487.643 82.0817C485.625 84.2617 484.805 87.1367 485.519 89.9707C486.315 93.1227 488.826 95.3467 491.85 95.6867C490.044 98.3897 489.697 101.404 490.944 104.04C491.951 106.169 493.73 107.65 496.09 108.323C496.397 108.41 496.721 108.461 497.041 108.519C496.431 109.692 496.134 110.965 496.209 112.277C496.338 114.542 497.653 116.596 499.726 117.77C500.985 118.483 502.435 118.838 503.991 118.838C505.95 118.838 508.077 118.276 510.202 117.162C513.065 115.661 514.562 112.704 514.108 109.444" fill="#141414" blush:i="0.2.0.1.0.0.3.3"/><path id="SKIN_5" fill-rule="evenodd" clip-rule="evenodd" d="M472.99 135.328C471.484 127.612 464.212 124.771 459.885 124.083C461.489 111.89 455.927 101.452 453.974 98.6859C450.999 94.4709 440.097 92.2039 442.109 103.38C443.668 112.043 445.903 116.97 444.115 124.346L452.983 130.111C452.592 131.227 452.266 132.371 452.044 133.427C449.011 147.861 467.07 152.62 472.435 149.082C475.308 147.188 474.552 143.335 472.99 135.328" fill="white" blush:i="0.2.0.1.0.0.3.4"/><path id="Fill 18" fill-rule="evenodd" clip-rule="evenodd" d="M476.035 141.052C476.035 142.422 475.974 143.722 475.745 145.162C475.625 145.922 474.915 146.432 474.155 146.312C473.435 146.192 472.935 145.532 473.005 144.812L473.014 144.722C473.235 142.422 473.115 139.872 472.605 137.552C472.135 135.202 471.235 132.972 469.925 131.092C469.275 130.142 468.514 129.282 467.695 128.632C466.855 127.952 465.885 127.392 464.825 126.962C463.795 126.542 462.685 126.212 461.565 125.972C461.325 127.042 461.025 128.102 460.675 129.152C460.385 130.002 459.455 130.472 458.595 130.182C457.755 129.892 457.295 128.972 457.565 128.122C457.835 127.272 458.065 126.422 458.264 125.552C458.575 124.172 458.795 122.772 458.925 121.352C459.235 117.952 459.014 114.492 458.325 111.132C457.755 108.322 456.865 105.532 455.595 103.072C455.285 102.472 454.935 101.882 454.585 101.432C454.275 101.032 453.795 100.592 453.295 100.202C452.264 99.4219 451.055 98.7619 449.825 98.2919C448.605 97.8219 447.305 97.5419 446.235 97.6319C445.715 97.6719 445.285 97.8119 444.985 98.0019C444.695 98.1919 444.485 98.4419 444.315 98.8419C443.974 99.6319 443.965 100.942 444.165 102.232C444.215 102.562 444.285 102.892 444.355 103.222L444.595 104.302L445.115 106.462C445.805 109.352 446.685 112.342 446.945 115.652C447.065 117.292 447.014 118.982 446.764 120.622C446.505 122.252 446.085 123.822 445.595 125.352C445.235 126.472 444.045 127.082 442.925 126.722C441.805 126.372 441.185 125.172 441.545 124.052L441.555 124.042L441.565 123.982C442.014 122.652 442.385 121.312 442.615 119.972C442.845 118.622 442.905 117.292 442.825 115.932C442.655 113.212 441.895 110.362 441.205 107.402L440.705 105.162L440.465 104.032C440.385 103.632 440.315 103.222 440.255 102.802C440.055 101.142 439.915 99.3019 440.745 97.3019C441.165 96.3119 441.945 95.3319 442.935 94.7319C443.925 94.1219 444.995 93.8719 445.965 93.8119C447.925 93.7019 449.615 94.1719 451.195 94.7819C452.764 95.4119 454.215 96.2219 455.575 97.2819C456.255 97.8219 456.895 98.4019 457.505 99.2019C458.065 99.9519 458.465 100.672 458.835 101.412C460.285 104.332 461.185 107.352 461.775 110.452C462.485 114.222 462.675 118.122 462.245 121.952C462.305 121.972 462.375 121.982 462.435 122.002C463.785 122.352 465.125 122.812 466.425 123.422C467.715 124.032 468.965 124.812 470.085 125.802C471.224 126.822 472.115 127.962 472.855 129.162C474.375 131.582 475.285 134.282 475.695 136.982C475.925 138.332 476.035 139.692 476.035 141.052" fill="#141414" blush:i="0.2.0.1.0.0.3.5"/></g></g><g id="T Shirt" blush:i="0.2.0.1.0.1"><path id="Fill 1" fill-rule="evenodd" clip-rule="evenodd" d="M155.976 395C153.9 360.757 133.33 174.519 155.976 138.194C191.192 81.7047 282.75 86.3977 282.75 86.3977C282.75 86.3977 329.197 81.5837 362.574 119.297C372.479 130.488 395.954 183.53 400.526 200.125C397.816 208.903 376.927 228.542 366.474 235.236C384.177 310.945 384.979 394.352 384.979 394.352C384.979 394.352 191.452 398.254 155.976 395Z" fill="#02bad3" blush:color="Clothing-500" blush:i="0.2.0.1.0.1.0"/><path id="Fill 3_2" fill-rule="evenodd" clip-rule="evenodd" d="M356.122 184.488C355.476 182.768 352.729 183.977 353.53 185.699C356.52 194.928 363.304 231.047 364.356 235.061C376.995 300.78 382.998 379.532 382.866 392.315C362.992 392.479 198.712 396.129 158.272 393.541C157.998 353 131.998 184 157.82 139.255C174.593 110.191 207.488 97.9178 232.154 92.7658C259.114 87.1338 282.385 88.5058 282.618 88.5208C283.815 88.3368 328.23 84.2498 360.983 120.706C370.269 131.198 393.302 182.705 398.301 200.061C395.326 207.802 378.137 224.404 367.583 231.913C366.603 228.561 358.52 193.928 356.122 184.488ZM364.168 117.887C331.529 81.0088 286.013 83.9958 282.718 84.2668C243.387 81.8978 176.547 94.9828 154.135 137.134C128.01 191.268 151.583 322.081 153.539 371.371C154.245 380.387 153.473 397.097 155.397 397.147C207.784 397.814 366.071 396.505 385.076 396.477C386.2 396.426 387.091 395.508 387.107 394.383C387.119 393.582 381.059 307.663 368.113 236.249C378.522 228.684 401.001 209.961 402.578 199.561C398.253 183.862 374.685 129.77 364.168 117.887Z" fill="#141414" blush:i="0.2.0.1.0.1.1"/></g><g id="neck" blush:i="0.2.0.1.0.2"><path id="SKIN_6" fill-rule="evenodd" clip-rule="evenodd" d="M244.135 56.8269C244.135 56.8269 242.777 91.2659 228.548 96.1829C224.677 115.539 250.909 128.756 270.849 127.82C309.45 126.008 297.437 94.4569 294.782 94.3709C294.859 90.4159 296.991 60.8339 296.991 60.8339L244.135 56.8269Z" fill="white" blush:i="0.2.0.1.0.2.0"/><path id="Fill 27" fill-rule="evenodd" clip-rule="evenodd" d="M230.446 97.7058C229.755 102.768 231.324 107.565 235.121 111.981C242.489 120.552 257.469 126.329 270.749 125.696C284.016 125.073 292.545 120.657 295.412 112.926C298.106 105.665 295.139 97.7908 293.941 96.3258C293.17 95.9938 292.637 95.2198 292.654 94.3298C292.721 90.9438 294.225 69.6848 294.718 62.7938L246.128 59.1108C245.563 66.8108 242.787 91.9588 230.446 97.7058M268.819 129.994C254.89 129.994 239.651 123.774 231.896 114.754C226.996 109.056 225.117 102.489 226.462 95.7668C226.61 95.0258 227.139 94.4198 227.852 94.1738C238.387 90.5328 241.643 65.9188 242.009 56.7428C242.032 56.1658 242.288 55.6228 242.719 55.2388C243.151 54.8548 243.724 54.6678 244.295 54.7058L297.151 58.7128C298.319 58.8018 299.196 59.8178 299.112 60.9868C299.092 61.2628 297.244 86.9208 296.946 93.3708C299.261 95.8658 300.73 101.981 300.761 106.312C300.806 112.38 298.725 117.675 294.742 121.624C289.683 126.642 281.677 129.441 270.948 129.945C270.243 129.977 269.532 129.994 268.819 129.994" fill="#141414" blush:i="0.2.0.1.0.2.1"/></g><g id="Hand 1" blush:i="0.2.0.1.0.3"><path id="Fill 29" fill-rule="evenodd" clip-rule="evenodd" d="M232.75 189.505C231.656 198.008 230.677 206.546 229.8 215.078C228.937 223.613 228.176 232.16 227.713 240.691V240.698C227.653 241.802 226.71 242.648 225.607 242.587C224.504 242.527 223.659 241.585 223.718 240.482C223.719 240.476 223.72 240.459 223.72 240.452C224.316 231.819 225.207 223.244 226.198 214.685C227.205 206.126 228.31 197.594 229.535 189.058C229.663 188.171 230.485 187.555 231.372 187.682C232.251 187.809 232.864 188.617 232.751 189.494L232.75 189.505Z" fill="#141414" blush:i="0.2.0.1.0.3.0"/><path id="SKIN_7" fill-rule="evenodd" clip-rule="evenodd" d="M452.935 335.888C451.678 330.323 438.487 326.247 428.106 322.354C428.023 322.106 427.953 321.852 427.866 321.605C420.52 300.865 243.771 296.937 233.645 289.75C225.571 284.02 225.858 249.584 225.716 240.571C210.159 241.64 143.621 247.271 143.621 247.271C146.466 342.467 176.378 353.648 197.563 360.492C233.775 372.191 345.337 356.049 370.013 362.503C391.108 368.02 402.004 347.83 415.933 362.351C420.554 367.168 426.751 361.94 428.621 356.053C429.747 352.511 430.688 346.61 430.698 340.007C444.451 342.589 454.328 342.056 452.935 335.888" fill="white" blush:i="0.2.0.1.0.3.1"/><path id="Fill 33" fill-rule="evenodd" clip-rule="evenodd" d="M391.516 350.659C393.539 352.437 395.518 356.189 395.519 362.557C395.521 368.322 396.976 370.487 399.981 370.818C404.049 371.265 405.866 367.685 406.822 361.233C407.209 358.618 407.224 353.835 406.472 350.663" fill="white" blush:i="0.2.0.1.0.3.2"/><path id="Fill 35" fill-rule="evenodd" clip-rule="evenodd" d="M417.939 337.421C419.677 349.371 418.293 362.439 414.729 366.15C410.876 370.164 405.864 368.677 406.573 362.876C407.277 357.123 406.641 348.72 404.902 343.505" fill="white" blush:i="0.2.0.1.0.3.3"/><path id="Fill 37" fill-rule="evenodd" clip-rule="evenodd" d="M450.587 337.892C449.097 339.382 443.657 340.102 432.817 338.222C432.727 334.192 432.267 329.942 431.287 325.802C439.003 328.87 452.668 332.864 450.587 337.892M426.597 355.412C425.234 359.149 422.424 362.766 418.997 361.942C420.959 353.824 420.509 345.359 419.067 337.251C418.841 335.927 416.769 336.125 416.797 337.472C417.464 344.723 417.353 352.136 415.677 359.182C415.013 361.498 414.377 363.957 412.367 365.382C411.176 366.184 409.728 366.759 408.977 365.462C408.321 362.249 409.227 356.308 408.247 350.852C407.88 348.812 407.326 341.919 404.608 342.221C403.857 342.402 403.397 343.152 403.577 343.892C405.139 350.298 404.95 357.165 404.347 363.722C403.435 366.194 401.98 369.926 398.947 368.162C396.357 364.664 398.141 359.116 396.246 355.082C395.462 353.196 393.163 347.455 390.317 349.522C389.687 350.192 389.717 351.242 390.377 351.871C391.872 353.244 392.804 355.565 393.197 357.692C386.416 360.168 379.607 362.813 370.547 360.442C336.162 354.258 228.31 369.833 198.217 358.47C178.597 352.132 149.017 342.572 145.807 249.222C156.527 248.312 206.887 244.072 223.617 242.852C223.816 263.86 225.035 286.266 232.417 291.482C236.337 294.272 255.987 296.072 293.287 299.282C330.855 302.882 384.726 306.06 416.357 316.291C423.237 318.772 425.357 320.892 425.857 322.312C429.406 332.031 429.297 346.417 426.597 355.412M455.007 335.422C453.95 329.045 440.274 324.541 430.259 320.881C430.105 320.825 430.198 320.87 429.797 320.712C429.129 317.92 426.56 315.082 419.65 312.681C384.272 300.384 267.24 294.797 234.875 288.015C230.497 284.912 228.147 269.742 227.867 242.922C227.905 240.929 228.108 238.413 225.566 238.452C210.177 239.512 144.107 245.092 143.447 245.152C142.317 245.251 141.467 246.202 141.497 247.331C144.402 331.328 163.381 370.26 242.657 367C276.27 367.889 344.96 359.876 369.477 364.561C379.287 367.132 386.887 364.541 393.577 362.072C393.574 365.328 393.415 368.827 396.037 371.452C399.352 374.435 404.795 373.281 406.757 369.462C410.532 372.255 415.594 369.442 417.477 365.902C429.629 368.394 432.413 353.387 432.787 342.541C440.707 343.615 456.386 346.259 455.007 335.422" fill="#141414" blush:i="0.2.0.1.0.3.4"/></g></g></g><g id="Head" blush:component="Head" blush:defaultValue="Short Hair 4" blush:width="180" blush:height="200" transform="translate(439 92) scale(1 1)" blush:i="0.2.0.2" blush:value="Bun 1" blush:viewBox="11 2 161 186.00000000000006"><g id="Head/Bun 1" blush:viewBox="11 2 161 186.00000000000006" blush:i="0.2.0.2.0"><path id="SKIN" fill-rule="evenodd" clip-rule="evenodd" d="M149.882 102.094C143.885 52.3538 111.153 49.4878 87.5365 53.7808C68.7135 57.2038 44.6345 72.7648 46.7665 104.073C37.3415 101.013 30.4605 106.742 29.2365 114.189C27.8495 122.64 32.2855 136.935 46.2375 134.473C49.2925 158.699 66.0495 186.607 111.579 181.938C146.05 178.402 155.34 147.368 149.882 102.094" fill="white" blush:i="0.2.0.2.0.0"/><path id="Combined Shape" fill-rule="evenodd" clip-rule="evenodd" d="M48.2218 134.223C50.0038 147.852 56.1648 161.361 67.2638 169.967C80.2308 182.118 123.203 187.006 138.219 166.456C150.998 153.433 152.906 108.249 143.117 82.1546C136.341 82.9006 125.94 83.7646 116.458 83.3946C114.284 80.3254 111.939 74.4372 110.251 70.2005C109.438 68.1591 108.778 66.5011 108.363 65.7266C107.149 67.3883 108.797 76.1561 109.788 81.4324C109.982 82.462 110.15 83.3587 110.268 84.0436C97.0758 90.4936 68.8828 93.7306 53.0198 90.8096C52.8477 93.8559 53.3909 97.1587 53.8662 100.049C54.9346 106.546 55.6603 110.959 47.1488 105.69C33.7148 97.3736 26.8068 119.976 36.0728 128.937C41.1758 133.873 44.9738 134.217 48.2218 134.223ZM68.0298 20.0796C63.1798 22.1526 50.3648 27.8466 50.1838 33.2466C71.0618 15.7416 140.214 7.6086 161.314 70.6596C168.06 92.5106 172.203 170.211 170.874 177.185C159.948 179.461 143.566 181.963 128.953 181.631C128.698 180.908 128.536 180.137 128.41 179.347C110.504 187.697 84.463 186.383 69 176C69.4059 179.508 69.358 181.906 69.3227 183.671C69.2949 185.064 69.275 186.062 69.4918 186.9C54.2508 189.358 31.6008 183.212 31.6008 183.212C31.6008 183.212 -7.27916 103.685 29.5848 57.1906C20.9498 55.1986 2.86084 42.6746 15.1488 16.7706C24.6558 -3.2704 58.7758 -3.6294 68.0298 20.0796ZM43.8325 118.933C43.6189 119.964 43.4228 120.91 42.3775 120.698C39.1875 120.05 38.7805 115.497 41.6905 114.023C44.0785 112.814 44.8125 115.511 44.0495 118.022C43.9606 118.314 43.8958 118.627 43.8325 118.933Z" fill="#141414" blush:i="0.2.0.2.0.1"/></g></g><g id="Face" blush:component="Face" blush:defaultValue="Surprise" blush:width="90" blush:height="90" transform="translate(499 178) scale(1 1)" blush:i="0.2.0.3" blush:value="Happy Teeth" blush:viewBox="11.699999999999989 10.799999999999997 66.15 70.20000000000002"><g id="Face/Happy Teeth" blush:viewBox="11.699999999999989 10.799999999999997 66.15 70.20000000000002" blush:i="0.2.0.3.0"><path id="happy" fill-rule="evenodd" clip-rule="evenodd" d="M22.0073 16.1298C21.2611 16.03 20.5134 15.93 19.7634 15.946C17.7104 15.896 15.8084 16.321 13.8334 16.983C12.4564 17.451 11.3764 15.585 12.4114 14.616C15.1454 11.727 19.4234 10.675 23.2934 11.086C25.6994 10.977 29.5814 14.227 26.1914 15.923C24.7997 16.5034 23.4063 16.317 22.0073 16.1298ZM62.1316 28.901C65.8716 26.102 71.0336 26.767 74.5036 29.366C76.3106 30.622 74.4186 33.473 72.5656 32.328C71.2706 31.551 69.8196 31.109 68.4416 31.133C67.3189 30.9731 66.3557 31.5613 65.4444 32.1178C64.2119 32.8704 63.0742 33.5652 61.7646 32.274C60.8406 31.285 61.0226 29.67 62.1316 28.901ZM50.972 39.9271C63.513 44.9991 58.198 58.2721 45.571 53.1821C43.602 51.5601 45.875 49.8141 47.75 50.6141L47.9028 50.6233L48.0142 50.6302C50.409 50.7781 55.1459 51.0708 54.046 47.4831C53.6944 46.0007 52.2187 45.1294 50.7351 44.2535C49.2482 43.3757 47.7534 42.4932 47.374 40.9861C46.543 38.9921 45.668 27.3381 48.466 27.5051C49.058 27.5951 49.477 28.1211 49.447 28.7061C49.4474 29.1003 49.4452 29.4998 49.4429 29.9031C49.4237 33.3028 49.4031 36.9654 50.972 39.9271ZM32.1852 34.1042C32.8422 34.4982 33.7062 34.4282 34.2982 33.8822C36.7002 30.5912 29.0312 27.0892 26.1792 27.3372C22.9342 26.7482 12.4212 31.8242 14.8212 35.6072C15.4982 36.3332 16.6452 36.3592 17.3572 35.6662C19.4462 33.7012 21.8632 32.1702 24.6752 31.8182C27.5382 31.3312 29.6352 32.5622 32.1852 34.1042ZM77.2292 16.3435C73.1682 12.7715 67.0922 10.5375 61.8292 12.9185C60.3132 13.5675 60.6732 16.0275 62.3572 16.1655C63.4751 16.2892 64.5859 16.3152 65.6902 16.341C67.9772 16.3945 70.2363 16.4473 72.4732 17.3665L75.9492 18.6135C77.2762 19.1385 78.3892 17.2305 77.2292 16.3435ZM46.4511 65.3132C44.6891 65.2012 42.9131 65.0152 41.1951 64.7702C41.1171 66.2652 41.1151 67.8362 41.4401 69.2822C43.3725 69.5861 45.3739 69.4425 47.3318 69.3019C47.4287 69.295 47.5254 69.288 47.6221 69.2812C46.6373 68.1783 46.5514 66.856 46.4643 65.5146C46.4599 65.4475 46.4556 65.3803 46.4511 65.3132ZM49.4221 65.4443C49.5687 66.6128 49.7409 67.9857 49.0491 68.9752C49.0248 69.0223 48.9908 69.0588 48.9565 69.0955C48.9429 69.1101 48.9292 69.1248 48.9161 69.1402C49.3214 69.0874 49.7493 69.0407 50.1872 68.9929C51.7511 68.822 53.4429 68.6373 54.6921 68.1162C55.1486 67.4498 55.0629 66.3083 54.9938 65.3889C54.9898 65.3355 54.9859 65.2829 54.9821 65.2312C53.2821 65.3592 51.3401 65.4542 49.4201 65.4282L49.4221 65.4443ZM66.2871 59.6602C66.6831 59.1322 67.3751 58.8652 68.0241 59.0022C69.3891 59.3022 69.7971 60.5432 69.4141 61.5862C69.0501 70.9412 62.7521 80.6062 45.9841 80.6062C37.4081 80.6062 28.1781 74.3822 28.1781 60.7182C28.0561 59.6192 28.3241 58.2482 29.6121 58.0462C37.5791 61.9012 55.8621 63.5012 66.2871 59.6602Z" fill="#141414" blush:i="0.2.0.3.0.0"/></g></g><g id="Accessories" blush:component="Accessories" blush:defaultValue="None" blush:width="103" blush:height="60" transform="translate(491 176) scale(103 60)" blush:i="0.2.0.4" blush:value="None" blush:viewBox="1.75 1.75 0 0"><g id="Accessories/None" stroke="none" stroke-width="1" fill="none" fill-rule="evenodd" fill-opacity="0" blush:viewBox="1.75 1.75 0 0" blush:i="0.2.0.4.0"/></g><g id="Facial Hair" blush:component="Facial Hair" blush:defaultValue="None" blush:width="90" blush:height="60" transform="translate(501 234) scale(90 60)" blush:i="0.2.0.5" blush:value="None" blush:viewBox="1.75 1.75 0 0"><g id="Facial Hair/None" stroke="none" stroke-width="1" fill="none" fill-rule="evenodd" fill-opacity="0" blush:viewBox="1.75 1.75 0 0" blush:i="0.2.0.5.0"/></g></g></g><g id="Chat Window" blush:i="0.3"><g id="Border Box" blush:i="0.3.0"><g id="mask" blush:i="0.3.0.0"><path id="Path" fill-rule="evenodd" clip-rule="evenodd" d="M408.885 733.94C395.163 733.94 384 722.776 384 709.054V136.819C384 123.097 395.163 111.933 408.885 111.933H966.746C980.468 111.933 991.632 123.097 991.632 136.819V709.054C991.632 722.776 980.468 733.94 966.746 733.94H408.885Z" fill="white" blush:i="0.3.0.0.0"/><mask id="mask0_306_194140b4a396d-c224-41e9-a44b-932de0bfe25c" style="mask-type:alpha" maskUnits="userSpaceOnUse" x="384" y="111" width="608" height="623" blush:i="0.3.0.0.1" fill="#ffffff"><path id="Path_2" fill-rule="evenodd" clip-rule="evenodd" d="M408.885 733.94C395.163 733.94 384 722.776 384 709.054V136.819C384 123.097 395.163 111.933 408.885 111.933H966.746C980.468 111.933 991.632 123.097 991.632 136.819V709.054C991.632 722.776 980.468 733.94 966.746 733.94H408.885Z" fill="#ffffff" blush:i="0.3.0.0.1.0"/></mask><g mask="url(#mask0_306_194140b4a396d-c224-41e9-a44b-932de0bfe25c)" blush:i="0.3.0.0.2"><g id="Master/Character/Standing" blush:has-customizable-colors="true" blush:component="Master/Character/Standing" blush:width="1163" blush:height="1300" transform="translate(84 67.6021) scale(1 1)" blush:i="0.3.0.0.2.0" blush:value="Standing" blush:viewBox="-0.650447427293102 91 1112.265100671141 1208.9999999999995"><g id="Master/Character/Standing" blush:has-customizable-colors="true" blush:viewBox="-0.650447427293102 91 1112.265100671141 1208.9999999999995" blush:i="0.3.0.0.2.0.0"><g id="Lower Body" blush:component="Lower Body" blush:defaultValue="Jeans" blush:width="1110" blush:height="729" transform="translate(0 569) scale(1 1)" blush:i="0.3.0.0.2.0.0.0" blush:value="Jeans" blush:viewBox="360.75 -2.222560975609781 466.1999999999998 733.4451219512193"><g id="Lower Body/Jeans" blush:viewBox="360.75 -2.222560975609781 466.1999999999998 733.4451219512193" blush:i="0.3.0.0.2.0.0.0.0"><g id="shoe 2" blush:i="0.3.0.0.2.0.0.0.0.0"><path id="SKIN" fill-rule="evenodd" clip-rule="evenodd" d="M662.405 631.541L670.484 686.721L749.846 694.919L737.541 638.068L662.405 631.541Z" fill="white" blush:i="0.3.0.0.2.0.0.0.0.0.0"/><path id="path 6" fill-rule="evenodd" clip-rule="evenodd" d="M750.107 696.919L670.087 689.063C669.115 688.967 668.333 688.221 668.191 687.254L660.023 631.433C659.853 630.271 660.658 629.191 661.82 629.021C662.984 628.858 664.061 629.657 664.232 630.818L672.159 684.992L747.598 692.4L735.561 638.621C735.304 637.475 736.026 636.338 737.171 636.081C738.322 635.824 739.456 636.547 739.711 637.692L752.39 694.338C752.54 695.004 752.36 695.701 751.908 696.212C751.502 696.67 750.921 696.93 750.315 696.93C750.246 696.93 750.176 696.926 750.107 696.919Z" fill="#141414" blush:i="0.3.0.0.2.0.0.0.0.0.1"/><path id="path 23" fill-rule="evenodd" clip-rule="evenodd" d="M666.891 680.25C667.149 679.233 668.149 678.59 669.182 678.774C670.165 678.951 671.41 679.19 672.875 679.473C681.857 681.201 700.546 684.798 718.257 684.812H718.302C728.736 684.812 737.912 681.958 744.14 676.773C744.635 676.361 745.297 676.215 745.923 676.375C776.321 684.289 798.284 690.007 814.56 700.862C817.42 702.771 827.737 711.099 825.953 716.989C825.127 719.713 822.189 721.094 817.219 721.094C799.075 721.094 759.984 721.195 725.495 721.285C697.588 721.358 673.488 721.421 664.414 721.421C663.455 721.421 662.59 720.986 661.977 720.197C658.404 715.601 664.223 690.729 666.891 680.25" fill="#ff4b33" blush:color="Clothing-500" blush:i="0.3.0.0.2.0.0.0.0.0.2"/><path id="Fill 47" fill-rule="evenodd" clip-rule="evenodd" d="M664.78 730.227H821.616C824.222 730.227 826.336 728.115 826.336 725.508V723.949C826.336 721.342 824.222 719.229 821.616 719.229H664.78C662.174 719.229 660.06 721.342 660.06 723.949V725.508C660.06 728.115 662.174 730.227 664.78 730.227" fill="#141414" blush:i="0.3.0.0.2.0.0.0.0.0.3"/><path id="path 25" fill-rule="evenodd" clip-rule="evenodd" d="M777.074 695.217C777.869 695.217 778.631 694.77 778.995 694.004C782.332 686.996 788.743 688.711 789.464 688.932C790.582 689.271 791.771 688.646 792.119 687.53C792.466 686.412 791.851 685.227 790.737 684.873C787.101 683.719 779.163 683.761 775.155 692.176C774.65 693.237 775.1 694.505 776.161 695.01C776.456 695.151 776.767 695.217 777.074 695.217" fill="#141414" blush:i="0.3.0.0.2.0.0.0.0.0.4"/><path id="path 26" fill-rule="evenodd" clip-rule="evenodd" d="M758.293 690.095C759.088 690.095 759.851 689.648 760.215 688.882C763.552 681.874 769.963 683.589 770.683 683.81C771.802 684.15 772.991 683.524 773.338 682.408C773.685 681.29 773.07 680.105 771.956 679.751C768.316 678.598 760.38 678.641 756.375 687.054C755.87 688.115 756.32 689.383 757.381 689.888C757.676 690.029 757.986 690.095 758.293 690.095" fill="#141414" blush:i="0.3.0.0.2.0.0.0.0.0.5"/></g><g id="shoe 1" blush:i="0.3.0.0.2.0.0.0.0.1"><path id="SKIN_2" fill-rule="evenodd" clip-rule="evenodd" d="M519.973 631.395L517.596 687.152L447.699 693.144L448.766 637.159L519.973 631.395Z" fill="white" blush:i="0.3.0.0.2.0.0.0.0.1.0"/><path id="path 1" fill-rule="evenodd" clip-rule="evenodd" d="M447.536 695.259C446.998 695.259 446.478 695.055 446.082 694.684C445.643 694.273 445.399 693.695 445.41 693.093L446.429 637.094C446.451 635.92 447.454 634.978 448.594 635.007C449.768 635.029 450.703 635.997 450.682 637.172L449.705 690.817L515.548 685.307L517.896 631.035C517.946 629.863 518.936 628.948 520.112 629.002C521.286 629.053 522.196 630.046 522.145 631.219L519.717 687.362C519.671 688.431 518.836 689.3 517.769 689.389L447.713 695.251C447.654 695.256 447.595 695.259 447.536 695.259" fill="#141414" blush:i="0.3.0.0.2.0.0.0.0.1.1"/><path id="path 2" fill-rule="evenodd" clip-rule="evenodd" d="M522.445 680.573C522.187 679.556 521.187 678.913 520.154 679.097C519.17 679.274 517.926 679.513 516.46 679.796C507.479 681.524 488.79 685.121 471.079 685.135H471.033C460.6 685.135 451.424 682.281 445.195 677.096C444.701 676.684 444.038 676.538 443.412 676.698C413.015 684.612 391.052 690.33 374.776 701.185C371.915 703.094 361.599 711.422 363.383 717.312C364.209 720.036 367.147 721.417 372.116 721.417C390.261 721.417 429.352 721.518 463.841 721.608C491.747 721.681 515.848 721.744 524.922 721.744C525.88 721.744 526.746 721.309 527.359 720.52C530.932 715.924 525.113 691.052 522.445 680.573" fill="#ff4b33" blush:color="Clothing-500" blush:i="0.3.0.0.2.0.0.0.0.1.2"/><path id="path 3" fill-rule="evenodd" clip-rule="evenodd" d="M524.556 730.55H367.72C365.113 730.55 363 728.438 363 725.831V724.272C363 721.665 365.113 719.552 367.72 719.552H524.556C527.162 719.552 529.275 721.665 529.275 724.272V725.831C529.275 728.438 527.162 730.55 524.556 730.55" fill="#141414" blush:i="0.3.0.0.2.0.0.0.0.1.3"/><path id="path 4" fill-rule="evenodd" clip-rule="evenodd" d="M412.261 695.541C411.466 695.541 410.704 695.094 410.34 694.328C407.003 687.32 400.592 689.035 399.871 689.256C398.753 689.595 397.563 688.97 397.216 687.854C396.869 686.736 397.483 685.551 398.598 685.197C402.234 684.043 410.172 684.085 414.179 692.5C414.684 693.561 414.234 694.829 413.174 695.334C412.879 695.475 412.568 695.541 412.261 695.541" fill="#141414" blush:i="0.3.0.0.2.0.0.0.0.1.4"/><path id="path 5" fill-rule="evenodd" clip-rule="evenodd" d="M431.042 690.418C430.247 690.418 429.485 689.971 429.121 689.205C425.783 682.197 419.372 683.912 418.653 684.133C417.534 684.473 416.344 683.847 415.997 682.731C415.65 681.613 416.265 680.428 417.379 680.074C421.019 678.921 428.955 678.964 432.96 687.377C433.465 688.438 433.015 689.706 431.955 690.211C431.66 690.352 431.349 690.418 431.042 690.418" fill="#141414" blush:i="0.3.0.0.2.0.0.0.0.1.5"/></g><g id="pant" blush:i="0.3.0.0.2.0.0.0.0.2"><path id="path 10" fill-rule="evenodd" clip-rule="evenodd" d="M427.273 2.94933L375 662.091C426.539 666.307 481.337 665.697 538.159 662.091C538.159 662.091 547.164 111.164 552.11 110.605C561.369 109.561 606.852 662.091 606.852 662.091C658.259 670.419 708.68 667.882 758.805 662.091C758.805 662.091 720.659 173.983 655.364 0.486328C552.164 5.07233 427.273 2.94933 427.273 2.94933" fill="#0B379B" blush:i="0.3.0.0.2.0.0.0.0.2.0"/><path id="path 21" fill-rule="evenodd" clip-rule="evenodd" d="M484.299 24.4327C483.072 23.7977 481.563 24.2757 480.929 25.5017C464.357 57.4647 428.583 54.4417 427.025 54.2907C425.641 54.1567 424.427 55.1617 424.292 56.5357C424.157 57.9097 425.162 59.1327 426.536 59.2677C426.606 59.2747 427.845 59.3837 429.944 59.3837C440.092 59.3837 470.319 56.8287 485.367 27.8027C486.003 26.5777 485.525 25.0687 484.299 24.4327" fill="white" blush:i="0.3.0.0.2.0.0.0.0.2.1"/><path id="path 22" fill-rule="evenodd" clip-rule="evenodd" d="M667.829 49.5812C666.357 49.7272 631.643 52.7752 615.567 20.7922C614.949 19.5652 613.486 19.0882 612.3 19.7232C611.111 20.3582 610.647 21.8672 611.263 23.0932C625.854 52.1222 655.159 54.6742 664.997 54.6742C667.03 54.6742 668.232 54.5642 668.3 54.5582C669.631 54.4232 670.603 53.2012 670.475 51.8282C670.345 50.4552 669.157 49.4502 667.829 49.5812" fill="white" blush:i="0.3.0.0.2.0.0.0.0.2.2"/></g></g></g><g id="Upper Body" blush:component="Upper Body" blush:defaultValue="Arms Crossed" blush:width="600" blush:height="550" transform="translate(272 187) scale(1 1)" blush:i="0.3.0.0.2.0.0.1" blush:value="Say Hi" blush:viewBox="-117 40.82969432314411 660.0000000000001 549.3995633187774"><g id="Upper Body/Say Hi" blush:viewBox="-117 40.82969432314411 660.0000000000001 549.3995633187774" blush:i="0.3.0.0.2.0.0.1.0"><g id="hand2" blush:i="0.3.0.0.2.0.0.1.0.0"><path id="SKIN" fill-rule="evenodd" clip-rule="evenodd" d="M435.137 445.911C440.067 461.953 455.928 517.507 452.02 534.021C447.087 554.875 444.67 569.462 451.674 571.761C459.482 574.322 464.26 563.401 467.53 561.641C468.739 560.991 470.545 563.645 475.134 569.333C484.476 580.913 493.016 589.407 499.246 585.435C503.892 582.474 500.203 576.289 500.203 576.289C500.203 576.289 509.076 588.647 516.736 585.514C520.4 584.015 522.731 581.35 517.489 573.037C521.596 579.21 529.13 581.707 532.587 577.003C533.634 575.578 535.485 572.474 530.621 563.73C536.633 569.507 541.554 560.209 539.451 553.651C534.549 538.353 522.399 530.354 512.582 515.224C503.647 501.454 492.565 436.893 492.565 436.893" fill="white" blush:i="0.3.0.0.2.0.0.1.0.0.0"/><path id="Assets 112" fill-rule="evenodd" clip-rule="evenodd" d="M540.57 553.065C535.842 536.651 519.969 526.999 512.365 512.4C505.554 499.323 498.025 454.522 494.661 436.534C494.203 433.869 490.007 434.467 490.469 437.253C494.815 461.534 499.044 485.878 507.173 509.26C509.245 515.308 513.219 520.527 517.206 525.419C524.581 534.542 533.359 542.461 537.195 553.686C538.891 556.821 537.092 566.361 532.304 562.621C530.178 559.768 516.792 541.08 513.459 545.586C513.009 546.396 513.301 547.418 514.111 547.867C520.418 552.042 524.774 559.114 529.199 565.161C536.574 576.971 527.009 582.593 519.031 572.02C517.217 569.744 504.45 550.138 502.003 553.761C501.399 554.413 501.445 555.434 502.103 556.03C507.468 561.316 511.755 567.808 515.947 574.053C517.233 576.106 518.733 578.736 518.703 581.037C518.69 582.229 517.708 583.062 516.562 583.579C513.406 585.123 510.26 583.372 507.413 581.169C503.419 579.129 489.711 557.512 486.711 561.006C486.096 561.66 486.138 562.694 486.802 563.296C491.185 567.5 495.055 572.589 498.725 577.481C499.952 579.856 500.441 583.009 497.692 584.122C490.967 586.359 482.95 575.17 478.767 570.634C476.839 568.312 474.746 565.617 472.835 563.239C471.372 561.577 469.308 558.424 466.477 559.896C462.124 562.796 459.767 569.341 454.322 570.022C450.593 570.253 449.674 566.907 449.612 563.473C449.63 553.759 452.719 544.117 454.905 534.666C456.019 529.577 455.628 524.325 455.165 519.519C452.104 494.086 444.946 469.552 437.171 445.286C436.364 442.803 432.336 443.83 433.105 446.536C439.551 470.714 447.798 494.891 450.658 519.755C451.1 524.915 451.172 530.378 449.977 535.148C448.567 543.932 439.472 570.886 451.562 573.913C458.965 575.993 463.781 568.452 467.964 563.877C475.416 571.654 483.926 586.501 495.286 588.282C498.839 588.515 502.737 586.229 503.307 582.515C506.33 585.251 509.844 587.825 514.194 587.858C518.402 587.878 523.137 584.504 522.314 579.877C531.437 584.81 538.001 575.914 534.513 567.493C541.304 566.371 541.918 558.349 540.57 553.065" fill="#141414" blush:i="0.3.0.0.2.0.0.1.0.0.1"/></g><g id="hand1" blush:i="0.3.0.0.2.0.0.1.0.1"><path id="SKIN_2" fill-rule="evenodd" clip-rule="evenodd" d="M-55.7527 83.0046C-61.9147 79.7036 -63.7267 93.8256 -56.7137 104.755C-65.9087 97.3746 -87.9907 79.3866 -95.6027 83.6806C-103.295 88.0196 -91.8557 100.445 -91.8557 100.445C-99.7067 96.8466 -109.099 91.7526 -111.381 97.8806C-113.84 104.485 -100.469 112.517 -100.469 112.517C-110.407 109.353 -113.336 110.227 -114.644 114.261C-116.739 120.721 -103.413 127.237 -103.413 127.237C-109.704 126.511 -114.944 133.06 -99.5557 143.184C-82.5827 154.35 -47.4047 178.921 -19.4567 214.078C-15.4637 219.1 30.8493 208.431 59.3943 183.158C3.49927 143.983 -47.7787 87.2756 -55.7527 83.0046" fill="white" blush:i="0.3.0.0.2.0.0.1.0.1.0"/><path id="Assets 113" fill-rule="evenodd" clip-rule="evenodd" d="M47.3776 171.758C7.46564 142.017 -30.7474 102.362 -54.7484 81.1291C-63.6974 77.8681 -64.6014 89.1361 -62.2164 97.6911C-76.5704 86.5761 -89.9654 78.0551 -96.6494 81.8291C-101.808 84.6211 -100.824 90.7661 -98.2194 95.2121C-111.129 88.3481 -119.528 98.3501 -109.083 108.486C-112.871 108.358 -115.417 109.751 -116.668 113.605C-118.359 118.82 -113.241 123.532 -109.059 126.383C-113.904 130.664 -113.257 136.245 -100.726 144.96C-70.4064 164.906 -45.1694 186.719 -25.7164 209.792C-5.07737 213.787 -87.7554 145.714 -98.3884 141.408C-107.619 135.192 -110.672 129.475 -103.894 129.335L-90.5144 134.768C-88.7624 135.505 -87.5484 132.826 -89.2554 131.996C-89.2704 131.986 -102.465 125.339 -102.478 125.327C-106.284 123.46 -113.771 118.46 -112.622 114.917C-112.042 113.13 -111.439 111.285 -101.321 114.478L-83.6384 124.55C-81.8204 125.619 -80.1334 122.8 -81.9304 121.702C-87.8704 116.912 -110.467 107.15 -109.389 98.6241C-106.983 94.3411 -97.9834 100.386 -92.8414 102.332C-92.8414 102.333 -75.5544 112.475 -75.5544 112.475C-74.8134 112.908 -73.8504 112.691 -73.3744 111.965C-72.8824 111.215 -73.0924 110.208 -73.8424 109.716L-90.4544 98.8231C-93.1044 95.4311 -98.9434 88.6151 -94.5594 85.5331C-88.3794 82.0481 -66.0504 99.9851 -58.7124 105.879C-57.5574 107.55 -56.6504 110.191 -56.7484 112.197C-58.9344 120.07 -58.0474 130.596 -50.8304 135.659C-49.7044 136.422 -48.4134 134.709 -49.5094 133.849C-49.9064 133.527 -50.4304 133.268 -50.6024 132.793C-50.8104 132.222 -57.1744 124.052 -54.0154 116.463C-53.1754 114.445 -51.9314 112.184 -52.4984 110.053C-52.8814 107.704 -53.7614 105.651 -54.9254 103.607C-59.7984 96.3281 -60.5464 84.0561 -56.7594 84.8791C-33.2484 106.388 5.00764 145.286 44.8066 175.146C46.9276 176.825 49.6386 173.409 47.3776 171.758" fill="#141414" blush:i="0.3.0.0.2.0.0.1.0.1.1"/></g><path id="Assets 114" fill-rule="evenodd" clip-rule="evenodd" d="M340.637 107.374C340.266 109 339.727 110.72 338.929 112.48C338.594 113.218 337.867 113.655 337.106 113.655C336.83 113.655 336.549 113.597 336.281 113.476C335.275 113.02 334.829 111.835 335.285 110.829C336.527 108.089 337.053 105.433 337.245 103.226C337.865 63.7968 203.38 52.9738 199.164 108.586C199.771 111 200.794 113.797 202.507 115.744C203.236 116.573 203.156 117.837 202.327 118.567C201.947 118.901 201.476 119.065 201.006 119.065C200.451 119.065 199.899 118.836 199.504 118.387C197.969 116.643 196.891 114.459 196.125 112.319C182.998 115.336 165.73 121.142 153.496 129.994C125.87 149.982 99.8862 185.251 92.2452 196.075C94.9442 198.552 97.5672 201.097 100.082 203.737C103.003 206.795 105.811 209.914 108.525 213.19C109.006 213.77 108.925 214.63 108.345 215.111C107.783 215.576 106.959 215.515 106.471 214.986L106.451 214.962C103.666 211.929 100.717 208.967 97.7082 206.122C95.2142 203.755 89.9872 199.329 89.9872 199.329L0.191185 132.121L-65.5078 205.276C-65.5078 205.276 41.0852 310.517 90.1902 313.324C114.337 314.703 138.588 292.265 158.203 276.381C152.178 345.666 153.695 399.783 153.695 399.783L388.785 398.536C388.785 398.536 377.591 328.898 372.385 261.96C371.977 256.714 385.39 312.441 385.39 312.441L422.947 492.43L514.441 466.127C514.441 466.127 461.555 248.712 454.644 224.698C425.94 124.951 357.138 113.744 356.915 113.211C356.915 113.211 348.232 109.5 340.637 107.374Z" fill="#ff4b33" blush:color="Clothing-500" blush:i="0.3.0.0.2.0.0.1.0.2"/><g id="neck" blush:i="0.3.0.0.2.0.0.1.0.3"><path id="SKIN_3" fill-rule="evenodd" clip-rule="evenodd" d="M245.648 43.0266C245.648 43.0266 245.565 76.7776 245.565 93.8716C245.565 106.451 234.696 103.432 219.379 108.565C222.928 126.319 233.523 137.894 278.951 138.562C307.681 138.985 319.088 130.112 324.615 111.691C309.055 104.326 299.097 106.451 299.097 93.8716C299.097 76.7776 299.014 43.0266 299.014 43.0266" fill="white" blush:i="0.3.0.0.2.0.0.1.0.3.0"/><path id="Assets 115" fill-rule="evenodd" clip-rule="evenodd" d="M325.016 110.846C321.803 109.29 318.478 107.971 315.129 106.803C311.803 105.61 308.367 104.638 305.432 103.109C303.989 102.326 302.73 101.367 301.896 100.128C301.06 98.885 300.726 97.327 300.531 95.738C300.517 94.897 300.436 94.144 300.465 93.236L300.494 90.593L300.552 85.307L301.016 43.022C301.016 43.008 301.016 42.982 301.016 42.968C300.998 41.864 300.089 40.982 298.984 41C297.88 41.017 296.998 41.927 297.016 43.032L297.618 85.308L297.694 90.593L297.731 93.236C297.723 94.09 297.829 95.094 297.878 96.013C298.15 97.892 298.613 99.865 299.803 101.555C300.989 103.231 302.66 104.392 304.323 105.238C307.7 106.876 311.125 107.718 314.449 108.825C317.782 109.894 321.047 111.097 324.217 112.534L324.224 112.537C324.684 112.745 325.228 112.55 325.449 112.094C325.674 111.629 325.48 111.071 325.016 110.846" fill="#141414" blush:i="0.3.0.0.2.0.0.1.0.3.1"/><path id="Assets 116" fill-rule="evenodd" clip-rule="evenodd" d="M245.672 41.0443C244.568 41.0323 243.662 41.9173 243.65 43.0223C243.493 57.0123 243.468 71.0033 243.537 84.9933L243.555 90.2403C243.545 91.9523 243.607 93.8453 243.52 95.3103C243.415 96.8453 243.054 98.2423 242.318 99.2953C241.611 100.367 240.441 101.151 239.014 101.758C236.124 102.94 232.623 103.553 229.208 104.337C225.767 105.106 222.302 106.039 218.955 107.295C218.307 107.542 217.941 108.253 218.141 108.929C218.351 109.639 219.097 110.044 219.806 109.834C223.095 108.868 226.447 108.176 229.862 107.569C231.57 107.259 233.295 106.978 235.051 106.634C236.804 106.288 238.597 105.901 240.415 105.186C241.321 104.821 242.235 104.377 243.109 103.781C243.983 103.187 244.795 102.409 245.44 101.517C246.758 99.7123 247.282 97.5873 247.465 95.6583C247.57 94.6763 247.567 93.7053 247.574 92.8633L247.591 90.2413L247.626 84.9953C247.74 71.0073 247.761 57.0203 247.65 43.0313C247.64 41.9453 246.763 41.0563 245.672 41.0443" fill="#141414" blush:i="0.3.0.0.2.0.0.1.0.3.2"/></g><g id="Assets 117" blush:i="0.3.0.0.2.0.0.1.0.4"><path id="path-2" fill-rule="evenodd" clip-rule="evenodd" d="M307.002 159.755C307.002 155.312 303.4 151.709 298.956 151.709C294.513 151.709 290.91 155.312 290.91 159.755C290.91 163.507 293.482 166.65 296.956 167.54V202.651C296.956 203.756 297.852 204.651 298.956 204.651C300.061 204.651 300.956 203.756 300.956 202.651V167.54C304.43 166.65 307.002 163.507 307.002 159.755" fill="white" blush:i="0.3.0.0.2.0.0.1.0.4.0"/><path id="path-1" fill-rule="evenodd" clip-rule="evenodd" d="M257.661 158.797C257.661 154.353 254.059 150.751 249.616 150.751C245.172 150.751 241.57 154.353 241.57 158.797C241.57 162.549 244.141 165.692 247.616 166.582V226.739C247.616 227.844 248.511 228.739 249.616 228.739C250.72 228.739 251.616 227.844 251.616 226.739V166.582C255.09 165.692 257.661 162.549 257.661 158.797" fill="white" blush:i="0.3.0.0.2.0.0.1.0.4.1"/></g></g></g><g id="Head" blush:component="Head" blush:defaultValue="Short Hair 4" blush:width="180" blush:height="200" transform="translate(439 92) scale(1 1)" blush:i="0.3.0.0.2.0.0.2" blush:value="No Hair" blush:viewBox="27 35 136.99999999999997 155.00000000000003"><g id="Head/No Hair" blush:viewBox="27 35 136.99999999999997 155.00000000000003" blush:i="0.3.0.0.2.0.0.2.0"><g id="No Hair" blush:i="0.3.0.0.2.0.0.2.0.0"><path id="SKIN" fill-rule="evenodd" clip-rule="evenodd" d="M161.398 108.615C160.997 101.747 157.417 98.6686 153.721 98.5126C153.397 96.3856 153.044 94.2566 152.643 92.1276C142.714 39.4366 109.865 32.3476 82.3974 39.1686C64.2104 43.6856 39.6484 56.4706 44.7274 104.214C33.7724 101.486 28.6414 107.492 29.0194 115.89C29.3584 123.43 35.0404 128.929 46.2164 129.528C49.4704 155.095 73.4054 194.828 119.692 185.733C146.706 180.425 156.802 151.38 155.575 117.792C160.567 116.956 161.649 112.92 161.398 108.615" fill="white" blush:i="0.3.0.0.2.0.0.2.0.0.0"/><path id="shape" fill-rule="evenodd" clip-rule="evenodd" d="M156.088 100.9C156.738 105.681 157.198 110.539 157.438 115.389C159.007 114.143 159.598 112.107 159.401 108.732C159.036 102.465 157.409 101.168 156.088 100.9ZM75.0614 174.998C87.6854 184.107 102.571 187.059 119.307 183.77C140.913 179.524 162.092 153.073 150.677 92.4975C146.442 70.0185 137.685 54.3785 124.65 46.0135C111.857 37.8025 97.2974 38.1475 86.3274 40.3385C86.8234 40.4595 87.2434 40.9005 87.0854 41.5395C86.7704 42.8155 84.7914 42.3255 85.1054 41.0505C85.1674 40.8025 85.3014 40.6395 85.4594 40.5175C84.5744 40.7055 83.7104 40.9035 82.8794 41.1095C54.7854 48.0865 42.9574 68.6595 46.7164 104.002C46.7854 104.652 46.5334 105.293 46.0414 105.722C45.5494 106.152 44.8804 106.311 44.2444 106.154C42.6234 105.75 41.1204 105.55 39.7534 105.55C37.4004 105.55 35.4544 106.145 34.0114 107.326C31.9124 109.044 30.8494 112.054 31.0174 115.8C31.3304 122.75 36.9094 127.027 46.3234 127.53C47.2884 127.583 48.0784 128.317 48.2004 129.276C49.9034 142.655 57.9594 162.657 75.0614 174.998ZM155.491 96.8495C162.715 97.1285 163.229 105.659 163.395 108.499C163.611 112.198 163.268 117.396 157.824 119.803C157.772 119.826 157.717 119.841 157.662 119.857L157.662 119.857C157.64 119.863 157.619 119.869 157.597 119.875C158.261 151.659 148.939 182.024 120.078 187.695C115.384 188.617 110.822 189.078 106.402 189.078C94.0024 189.079 82.7164 185.454 72.7204 178.242C55.2584 165.639 46.6884 145.528 44.4624 131.399C33.8924 130.335 27.4124 124.653 27.0214 115.98C26.7944 110.941 28.3774 106.769 31.4784 104.232C33.4684 102.602 36.9254 100.985 42.4814 101.743C39.4374 66.1825 52.6954 44.4845 81.9154 37.2275C93.9034 34.2505 111.425 32.7735 126.811 42.6475C140.808 51.6305 150.161 68.1535 154.609 91.7575C154.926 93.4395 155.219 95.1385 155.491 96.8495Z" fill="#141414" blush:i="0.3.0.0.2.0.0.2.0.0.1"/></g></g></g><g id="Face" blush:component="Face" blush:defaultValue="Surprise" blush:width="90" blush:height="90" transform="translate(499 178) scale(1 1)" blush:i="0.3.0.0.2.0.0.3" blush:value="Happy" blush:viewBox="4.950000000000003 13.950000000000003 80.55000000000003 66.60000000000001"><g id="Face/Happy" blush:viewBox="4.950000000000003 13.950000000000003 80.55000000000003 66.60000000000001" blush:i="0.3.0.0.2.0.0.3.0"><path id="Happy" fill-rule="evenodd" clip-rule="evenodd" d="M28.2306 19.1149C27.9276 19.0909 27.4006 19.0529 26.9546 19.0459C26.6004 19.0306 26.2392 19.0399 25.8777 19.0491C25.7656 19.0519 25.6535 19.0548 25.5416 19.0569C24.5906 19.1039 23.6326 19.1709 22.6836 19.3199C20.7916 19.6309 18.8906 20.0459 17.0996 20.7939C15.3156 21.5319 13.5216 22.3529 11.9156 23.5119C10.3495 24.4885 8.95584 25.7236 7.53129 26.986L7.2006 27.2789L7.1066 27.3619C6.5836 27.8259 5.7816 27.7769 5.3176 27.2529C4.9206 26.8039 4.8996 26.1509 5.2316 25.6809C5.35826 25.502 5.48428 25.3217 5.61063 25.141C6.12273 24.4085 6.64007 23.6685 7.2256 22.9819C7.40976 22.7841 7.59172 22.5831 7.77402 22.3817L7.77412 22.3816C8.35009 21.7454 8.92952 21.1054 9.5926 20.5479C11.2736 19.0099 13.2106 17.7219 15.2756 16.6899C17.3466 15.6659 19.5596 14.8869 21.8466 14.4659C22.9886 14.2479 24.1466 14.0949 25.3156 14.0269C25.4029 14.0245 25.4902 14.022 25.5774 14.0194C26.0776 14.0048 26.5774 13.9902 27.0866 14.0089C27.7016 14.0179 28.2356 14.0559 28.9866 14.1589C30.3556 14.3469 31.3126 15.6099 31.1246 16.9779C30.9436 18.2969 29.7666 19.2339 28.4566 19.1329L28.2306 19.1149ZM75.1516 34.2331L75.1518 34.2333C75.311 34.3531 75.4613 34.4662 75.5939 34.5578L75.9109 34.7778C76.3449 35.0758 76.9209 35.1428 77.4319 34.9038C78.1989 34.5438 78.5299 33.6308 78.1699 32.8638C77.7989 32.0708 77.4159 31.5258 76.9419 30.9228C76.4709 30.3458 75.9229 29.8268 75.3219 29.3548C74.1049 28.4208 72.6519 27.7598 71.0739 27.4608C69.4989 27.1608 67.7849 27.2648 66.2629 27.8108C64.7239 28.3298 63.4249 29.2648 62.3939 30.3228C61.7669 30.9658 61.6329 31.9778 62.1289 32.7748C62.7129 33.7128 63.9459 33.9988 64.8839 33.4148L64.9939 33.3468C65.8869 32.7908 66.7609 32.3488 67.6369 32.1258C68.5109 31.8798 69.3859 31.8518 70.2919 31.9678C71.1909 32.1238 72.1249 32.4158 73.0069 32.8758C73.4559 33.0988 73.9009 33.3648 74.3399 33.6578C74.6089 33.8245 74.892 34.0377 75.1516 34.2331ZM15.3559 33.1489C14.7779 33.8689 14.2989 34.5439 13.8429 35.4509C13.5609 36.0129 13.6899 36.7149 14.1939 37.1339C14.7799 37.6229 15.6529 37.5439 16.1409 36.9569L16.2449 36.8319C16.6249 36.3769 17.1549 35.8029 17.6759 35.3659C18.2069 34.9119 18.7589 34.4969 19.3429 34.1719C20.5099 33.5159 21.7289 33.1369 22.9569 33.1219C23.2679 33.1219 23.5629 33.1339 23.8859 33.1719C24.0074 33.1897 24.1309 33.2013 24.2541 33.2129C24.4637 33.2326 24.6724 33.2522 24.8689 33.3019C25.5169 33.3989 26.1039 33.6059 26.6549 33.8319C27.2089 34.0499 27.6909 34.3549 28.1089 34.6979L28.1793 34.7601C28.3569 34.9166 28.5327 35.0714 28.6749 35.2419C28.7544 35.3279 28.821 35.4172 28.8844 35.5021L28.8999 35.5229L28.9889 35.6479C28.9955 35.6549 29.0061 35.6721 29.0147 35.686C29.0293 35.7099 29.038 35.724 29.0109 35.6609C29.5219 36.8059 30.8639 37.3199 32.0099 36.8089C33.1549 36.2979 33.6679 34.9559 33.1569 33.8109C33.0454 33.569 32.9922 33.4763 32.9243 33.3582L32.9243 33.3582L32.8909 33.2999C32.8277 33.1864 32.7665 33.0933 32.7026 32.9962L32.7026 32.9961L32.6807 32.9629L32.6539 32.9219C32.4899 32.6889 32.3219 32.4649 32.1429 32.2599C31.7879 31.8419 31.4029 31.4719 30.9899 31.1399C30.1599 30.4899 29.2469 29.9779 28.3059 29.6319C27.3619 29.3069 26.4009 29.0749 25.4599 28.9929C25.1383 28.9442 24.8236 28.9348 24.5093 28.9255C24.3593 28.9211 24.2094 28.9166 24.0589 28.9079C23.5839 28.9009 23.0799 28.9419 22.5939 29.0009C20.6349 29.2639 18.7769 30.0669 17.3229 31.2359C16.5879 31.8099 15.9319 32.4529 15.3559 33.1489ZM62.3409 14.7222C61.7589 14.8522 61.2579 14.9932 60.5749 15.2282C59.3989 15.6382 58.7229 16.9002 59.0639 18.1152C59.4179 19.3782 60.7289 20.1162 61.9929 19.7612L62.1749 19.7102C62.4729 19.6262 62.9709 19.5002 63.3969 19.4102C63.8399 19.3092 64.2949 19.2352 64.7519 19.1652L66.1299 18.9912L67.5179 18.9022C69.3719 18.8482 71.2289 18.9972 73.0269 19.4162C74.8229 19.8362 76.5779 20.4692 78.2249 21.3712C79.7834 22.1207 81.1811 23.1734 82.6181 24.2557L82.6202 24.2573C82.7527 24.3571 82.8856 24.4571 83.0189 24.5572L83.1219 24.6352C83.6039 24.9972 84.2849 25.0072 84.7829 24.6202C85.3809 24.1562 85.4889 23.2962 85.0239 22.6992C84.6889 22.2682 84.3369 21.8462 83.9819 21.4242C83.8828 21.3106 83.7865 21.1938 83.6901 21.0769L83.6897 21.0764C83.4332 20.7652 83.1758 20.453 82.8619 20.1972C82.693 20.0451 82.5254 19.8905 82.3574 19.7354C81.7047 19.133 81.046 18.5252 80.2849 18.0432C78.4679 16.6972 76.3519 15.7482 74.1699 15.1012C71.9859 14.4432 69.6999 14.0942 67.4269 14.1352C66.2909 14.1592 65.1539 14.2112 64.0279 14.3992C63.4659 14.4912 62.9029 14.5892 62.3409 14.7222ZM49.8507 33.5661C49.9857 35.7441 50.2307 37.9171 50.7947 39.7871C50.9457 40.2411 51.1127 40.6851 51.3017 41.0401C51.4857 41.3961 51.7177 41.6741 51.8387 41.7411C52.0857 41.9211 52.5727 42.2431 53.0317 42.5291C53.5057 42.8291 54.0127 43.1521 54.5267 43.5211C55.5277 44.2751 56.6517 45.2241 57.3767 46.7691C57.6997 47.5551 57.9277 48.3791 57.8467 49.4021C57.7707 50.4071 57.2947 51.3651 56.7367 51.9991C55.6067 53.2931 54.3797 53.8321 53.2447 54.3281C52.0907 54.7841 50.9707 55.1141 49.8537 55.3671C49.0097 55.5591 48.1707 55.0301 47.9797 54.1861C47.8167 53.4661 48.1767 52.7511 48.8097 52.4371L48.8177 52.4331C49.1421 52.272 49.4659 52.1169 49.7854 51.9638L49.7855 51.9638C50.4477 51.6465 51.0914 51.338 51.6837 51.0041C52.5557 50.5381 53.3537 49.9641 53.6657 49.5191C53.8213 49.2918 53.8326 49.1817 53.8446 49.0661L53.8447 49.0651C53.8567 48.9661 53.7887 48.6711 53.6807 48.4311C53.4677 47.9181 52.8827 47.2931 52.1167 46.6951C51.7357 46.3871 51.3147 46.0811 50.8587 45.7541C50.7412 45.6669 50.624 45.5836 50.5047 45.499C50.1511 45.2479 49.7799 44.9844 49.3327 44.5671C48.6197 43.8781 48.2727 43.1671 47.9977 42.5051C47.7217 41.8371 47.5877 41.1951 47.4717 40.5621C47.0527 38.0461 47.2987 35.6771 47.7847 33.3941C47.9047 32.8291 48.4597 32.4691 49.0237 32.5891C49.4937 32.6891 49.8217 33.0891 49.8497 33.5451L49.8507 33.5661ZM34.3663 68.3769C39.5273 71.3069 60.7703 70.7559 67.5133 66.4909C68.1083 64.4579 67.3563 63.5219 67.3563 63.5219C67.3563 63.5219 47.4373 66.4319 34.3803 64.8919C34.3803 64.8919 33.9463 67.5379 34.3663 68.3769ZM68.0263 60.2979C69.4483 60.0149 70.7503 60.5149 71.5093 61.6299C74.5893 68.6889 64.8293 80.1889 50.8123 80.1239C41.4983 80.6109 30.2033 74.9489 29.7223 68.5269C29.2853 65.7529 31.7743 61.0039 35.6163 61.7009C38.3533 62.1969 44.8963 62.3799 51.2903 62.1519C59.6542 61.8579 67.6242 60.3728 68.0121 60.3005C68.02 60.2991 68.0247 60.2982 68.0263 60.2979Z" fill="#141414" blush:i="0.3.0.0.2.0.0.3.0.0"/></g></g><g id="Accessories" blush:component="Accessories" blush:defaultValue="None" blush:width="103" blush:height="60" transform="translate(491 176) scale(103 60)" blush:i="0.3.0.0.2.0.0.4" blush:value="None" blush:viewBox="1.75 1.75 0 0"><g id="Accessories/None" stroke="none" stroke-width="1" fill="none" fill-rule="evenodd" fill-opacity="0" blush:viewBox="1.75 1.75 0 0" blush:i="0.3.0.0.2.0.0.4.0"/></g><g id="Facial Hair" blush:component="Facial Hair" blush:defaultValue="None" blush:width="90" blush:height="60" transform="translate(501 234) scale(90 60)" blush:i="0.3.0.0.2.0.0.5" blush:value="None" blush:viewBox="1.75 1.75 0 0"><g id="Facial Hair/None" stroke="none" stroke-width="1" fill="none" fill-rule="evenodd" fill-opacity="0" blush:viewBox="1.75 1.75 0 0" blush:i="0.3.0.0.2.0.0.5.0"/></g></g></g></g></g><path id="Fill 1" fill-rule="evenodd" clip-rule="evenodd" d="M408.885 115.933C397.369 115.933 388 125.302 388 136.819V709.054C388 720.571 397.369 729.94 408.885 729.94H966.746C978.262 729.94 987.632 720.571 987.632 709.054V136.819C987.632 125.302 978.262 115.933 966.746 115.933H408.885ZM408.885 733.94C395.163 733.94 384 722.776 384 709.054V136.819C384 123.097 395.163 111.933 408.885 111.933H966.746C980.468 111.933 991.632 123.097 991.632 136.819V709.054C991.632 722.776 980.468 733.94 966.746 733.94H408.885Z" fill="#141414" blush:i="0.3.0.1"/><path id="Fill 18" fill-rule="evenodd" clip-rule="evenodd" d="M988.699 193.553H386.006C384.902 193.553 384.006 192.657 384.006 191.553C384.006 190.449 384.902 189.553 386.006 189.553H988.699C989.803 189.553 990.699 190.449 990.699 191.553C990.699 192.657 989.803 193.553 988.699 193.553" fill="#141414" blush:i="0.3.0.2"/></g><g id="Button" blush:i="0.3.1"><path id="Fill 8" fill-rule="evenodd" clip-rule="evenodd" d="M465.207 143.288C460.18 143.288 456.09 147.378 456.09 152.405C456.09 157.433 460.18 161.522 465.207 161.522C470.234 161.522 474.324 157.433 474.324 152.405C474.324 147.378 470.234 143.288 465.207 143.288M465.207 165.522C457.974 165.522 452.09 159.638 452.09 152.405C452.09 145.172 457.974 139.288 465.207 139.288C472.44 139.288 478.324 145.172 478.324 152.405C478.324 159.638 472.44 165.522 465.207 165.522" fill="#141414" blush:i="0.3.1.0"/><path id="Fill 14" fill-rule="evenodd" clip-rule="evenodd" d="M503.054 143.288C498.027 143.288 493.936 147.378 493.936 152.405C493.936 157.433 498.027 161.522 503.054 161.522C508.081 161.522 512.171 157.433 512.171 152.405C512.171 147.378 508.081 143.288 503.054 143.288M503.054 165.522C495.821 165.522 489.936 159.638 489.936 152.405C489.936 145.172 495.821 139.288 503.054 139.288C510.287 139.288 516.171 145.172 516.171 152.405C516.171 159.638 510.287 165.522 503.054 165.522" fill="#141414" blush:i="0.3.1.1"/><g id="Active" blush:i="0.3.1.2"><path id="Fill 4" fill-rule="evenodd" clip-rule="evenodd" d="M438.476 152.405C438.476 158.545 433.498 163.522 427.359 163.522C421.219 163.522 416.242 158.545 416.242 152.405C416.242 146.265 421.219 141.288 427.359 141.288C433.498 141.288 438.476 146.265 438.476 152.405" fill="#FF4B33" blush:i="0.3.1.2.0"/><path id="Fill 6" fill-rule="evenodd" clip-rule="evenodd" d="M427.359 143.288C422.332 143.288 418.242 147.378 418.242 152.405C418.242 157.433 422.332 161.522 427.359 161.522C432.386 161.522 436.476 157.433 436.476 152.405C436.476 147.378 432.386 143.288 427.359 143.288M427.359 165.522C420.126 165.522 414.242 159.638 414.242 152.405C414.242 145.172 420.126 139.288 427.359 139.288C434.592 139.288 440.476 145.172 440.476 152.405C440.476 159.638 434.592 165.522 427.359 165.522" fill="#141414" blush:i="0.3.1.2.1"/></g></g></g><g id="Table" blush:i="0.4"><path id="Assets 70 (Stroke)" fill-rule="evenodd" clip-rule="evenodd" d="M688 983H716.049L709.587 1517H694.462L688 983ZM692.049 987L698.414 1513H705.635L712 987H692.049Z" fill="#070707" blush:i="0.4.0"/><path id="Assets 71 (Stroke)" fill-rule="evenodd" clip-rule="evenodd" d="M1287 983H1315.05L1308.59 1517H1293.46L1287 983ZM1291.05 987L1297.41 1513H1304.64L1311 987H1291.05Z" fill="#070707" blush:i="0.4.1"/><path id="Assets 72 (Stroke)" fill-rule="evenodd" clip-rule="evenodd" d="M455 983H483.049L476.587 1517H461.462L455 983ZM459.049 987L465.414 1513H472.635L479 987H459.049Z" fill="#141414" blush:i="0.4.2"/><path id="Assets 73 (Stroke)" fill-rule="evenodd" clip-rule="evenodd" d="M1054 983H1082.05L1075.59 1517H1060.46L1054 983ZM1058.05 987L1064.41 1513H1071.64L1078 987H1058.05Z" fill="#141414" blush:i="0.4.3"/><path id="Assets 74 (Stroke)" fill-rule="evenodd" clip-rule="evenodd" d="M1395 954H626V991H1395V954ZM622 950V995H1399V950H622Z" fill="#141414" blush:i="0.4.4"/><path id="Assets 75 (Stroke)" fill-rule="evenodd" clip-rule="evenodd" d="M636 954H407V991H636V954ZM403 950V995H640V950H403Z" fill="#141414" blush:i="0.4.5"/></g><g id="Projector" blush:i="0.5"><rect id="Assets 76" x="575" y="900" width="213" height="50" rx="15" fill="#13D6C3" blush:i="0.5.0"/><circle id="Oval" cx="712.75" cy="924.75" r="12.75" fill="#FF4B33" blush:i="0.5.1"/><path id="Rectangle" fill-rule="evenodd" clip-rule="evenodd" d="M401 747H962L778.975 900H583.025L401 747Z" fill="url(#paint0_linear_306_194140b4a396d-c224-41e9-a44b-932de0bfe25c)" blush:i="0.5.2"/><circle id="Assets 77" cx="751.75" cy="924.75" r="12.75" fill="#FFC81A" blush:i="0.5.3"/></g><g id="Plant" blush:component="Plant" blush:defaultValue="Plant 2" blush:width="645" blush:height="854" transform="translate(1755 659) scale(1 1)" blush:i="0.6" blush:value="Plant 2" blush:viewBox="130.53571428571422 508.1300000000001 379.66269841269843 345.86999999999983"><g id="Plant/Plant 2" blush:viewBox="130.53571428571422 508.1300000000001 379.66269841269843 345.86999999999983" blush:i="0.6.0"><g id="Group" blush:i="0.6.0.0"><g id="Leaf 2" blush:i="0.6.0.0.0"><path id="Fill 1" fill-rule="evenodd" clip-rule="evenodd" d="M275.713 753.87C275.713 753.87 218.04 665.056 273.065 584.394C312.203 527.02 357.425 520.084 366.42 515.14C420.309 485.518 385.138 673.208 275.713 753.87" fill="#FF4B33" blush:i="0.6.0.0.0.0"/><path id="Fill 4" fill-rule="evenodd" clip-rule="evenodd" d="M271.191 853.385C270.544 853.385 269.911 853.073 269.525 852.495C268.097 850.354 267.565 814.568 273.116 768.82C278.331 725.841 290.362 662.298 318.058 603.646C318.531 602.648 319.722 602.224 320.721 602.692C321.719 603.164 322.147 604.356 321.675 605.355C294.549 662.798 282.599 725.045 277.352 767.148C271.426 814.69 272.45 847.775 273.039 850.624C273.396 851.488 273.106 852.511 272.298 853.049C271.957 853.277 271.572 853.385 271.191 853.385" fill="#141414" blush:i="0.6.0.0.0.1"/></g><path id="Leaf 2_2" fill-rule="evenodd" clip-rule="evenodd" d="M209.847 792.443C236.659 785.53 244.575 723.123 209.862 672.237C184.975 635.754 159.773 627.248 148.2 628.733C121.409 632.169 128.263 805.698 205.932 793.224C206.345 795.904 206.706 798.456 207.021 800.876C210.96 831.11 208.96 848.761 208.486 850.578C208.099 851.451 208.385 852.503 209.207 853.049C209.548 853.277 209.933 853.385 210.314 853.385C210.961 853.385 211.595 853.073 211.98 852.495C213.069 850.86 215.532 829.171 209.847 792.443Z" fill="#141414" blush:i="0.6.0.0.1"/><g id="Leaf 1" blush:i="0.6.0.0.2"><path id="Assets 97" fill-rule="evenodd" clip-rule="evenodd" d="M433.37 792.597C406.044 786.523 397.723 723.528 432.712 672.237C457.599 635.754 482.801 627.248 494.374 628.733C521.536 632.216 514.114 810.543 433.37 792.597" fill="#FF4B33" blush:i="0.6.0.0.2.0"/><path id="Path" fill-rule="evenodd" clip-rule="evenodd" d="M436.349 853.385C436.73 853.385 437.115 853.277 437.456 853.049C438.278 852.503 438.564 851.451 438.177 850.578C437.703 848.761 435.703 831.11 439.642 800.876C443.198 773.589 452.536 729.526 476.837 674.559C477.283 673.549 476.827 672.368 475.817 671.922C474.81 671.474 473.626 671.931 473.179 672.942C426.103 779.423 432.692 849.505 434.683 852.495C435.068 853.073 435.702 853.385 436.349 853.385V853.385Z" fill="#141414" blush:i="0.6.0.0.2.1"/></g></g></g></g><g id="Assets 78" blush:i="0.7"><path id="Fill 1_2" fill-rule="evenodd" clip-rule="evenodd" d="M1411.04 386C1433.63 386 1452 404.374 1452 426.959V604.675L1393.36 554.846C1393 554.538 1392.54 554.37 1392.06 554.37H1181.85C1159.26 554.37 1140.89 535.996 1140.89 513.411V426.959C1140.89 404.374 1159.26 386 1181.85 386H1411.04ZM1454 610.999C1454.28 610.999 1454.57 610.938 1454.84 610.814C1455.55 610.487 1456 609.778 1456 608.999V426.959C1456 402.168 1435.83 382 1411.04 382H1181.85C1157.06 382 1136.89 402.168 1136.89 426.959V513.411C1136.89 538.201 1157.06 558.37 1181.85 558.37H1391.33L1452.7 610.523C1453.07 610.836 1453.53 610.999 1454 610.999V610.999Z" fill="#141414" blush:i="0.7.0"/><path id="Fill 3" fill-rule="evenodd" clip-rule="evenodd" d="M1199.15 448.141H1402.01C1405.93 448.141 1409.1 444.967 1409.1 441.051C1409.1 437.136 1405.93 433.962 1402.01 433.962H1199.15C1195.23 433.962 1192.06 437.136 1192.06 441.051C1192.06 444.967 1195.23 448.141 1199.15 448.141" fill="#FF4B33" blush:i="0.7.1"/><path id="Fill 5" fill-rule="evenodd" clip-rule="evenodd" d="M1199.14 480.103H1358.96C1362.88 480.103 1366.05 476.929 1366.05 473.014C1366.05 469.098 1362.88 465.924 1358.96 465.924H1199.14C1195.23 465.924 1192.05 469.098 1192.05 473.014C1192.05 476.929 1195.23 480.103 1199.14 480.103" fill="#FF4B33" blush:i="0.7.2"/><path id="Fill 7" fill-rule="evenodd" clip-rule="evenodd" d="M1199.14 512.065H1276.37C1280.28 512.065 1283.46 508.891 1283.46 504.975C1283.46 501.06 1280.28 497.886 1276.37 497.886H1199.14C1195.23 497.886 1192.06 501.06 1192.06 504.975C1192.06 508.891 1195.23 512.065 1199.14 512.065" fill="#FF4B33" blush:i="0.7.3"/></g></g><defs><linearGradient id="paint0_linear_306_194140b4a396d-c224-41e9-a44b-932de0bfe25c" x1="408.159" y1="749.932" x2="408.159" y2="899.027" gradientUnits="userSpaceOnUse"><stop stop-color="#FFC81A" stop-opacity="0.01"/><stop offset="1" stop-color="#FFC81A"/></linearGradient></defs></svg>