<svg width="397" height="330" viewBox="0 0 397 330" fill="none" xmlns="http://www.w3.org/2000/svg">
<path d="M179.522 58.1008C175.348 58.6482 170.747 58.5644 166.762 60.0326C162.565 61.5787 159.279 64.4914 155.527 66.7939C144.299 73.6838 131.087 75.7849 122.33 86.5185C117.58 92.3419 115.449 99.1378 112.722 106.04C109.247 114.836 105.175 123.357 101.386 132.017C94.5794 147.574 91.8241 165.989 93.7093 182.956C95.3444 197.672 100.146 213.521 113.841 220.981C132.087 230.922 153.894 237.307 173.828 242.943C196.158 249.256 221.098 252.456 244.287 250.772C256.596 249.877 269.248 248.713 281.195 245.485C289.445 243.255 294.008 239.778 300.106 234.199C307.413 227.514 315.5 220.275 319.373 210.916C322.059 204.424 322.811 197.331 323.694 190.429C324.906 180.954 326.409 171.523 325.372 161.96C324.025 149.541 321.112 137.86 313.527 127.747C306.892 118.901 296.578 108.551 287.041 103.04C268.63 92.4028 252.648 76.402 230.358 76.402C223.459 76.402 215.423 77.4902 208.803 75.2836C202.609 73.2188 195.988 70.1483 189.587 69.0815" stroke="#333333" stroke-width="3" stroke-linecap="round"/>
<path d="M192.332 113.004C187.437 112.037 182.293 109.916 177.691 112.649C173.956 114.867 171.552 117.822 168.541 120.833C161.885 127.489 155.266 132.883 152.985 142.49C150.412 153.323 150.51 166.21 158.17 175.228C173.035 192.73 203.292 197.325 224.41 192.869C238.09 189.982 247.615 178.453 255.827 167.857C260.465 161.873 263.047 153.111 263.504 145.641C263.922 138.793 259.832 134.055 256.336 128.56C249.709 118.147 235.698 109.747 223.393 109.395C215.631 109.173 208.242 108.983 200.975 112.089C192.832 115.57 186.604 121.478 180.437 127.645" stroke="#333333" stroke-width="3" stroke-linecap="round"/>
<path d="M208.803 124.9C200.452 129.199 182.541 140.524 187.249 152.555C189.576 158.503 198.809 158.399 204.076 157.741C209.446 157.069 213.972 151.713 217.039 147.624C221.875 141.176 223.257 130.391 213.328 130.391C208.562 130.391 200.975 134.15 198.738 138.626" stroke="#333333" stroke-width="3" stroke-linecap="round"/>
<path d="M207.888 142.286C220.582 131.708 234.199 122.344 247.033 111.937C272.427 91.3428 297.824 70.7747 323.694 50.7804C333.659 43.0791 344.994 35.7522 354.298 27.2939C355.885 25.8511 350.647 29.5456 348.807 30.6491" stroke="#333333" stroke-width="3" stroke-linecap="round"/>
<path d="M212.464 129.475C212.346 129.682 205.859 142.75 206.262 142.998C208.644 144.464 213.719 141.292 216.124 140.659C218.867 139.938 221.832 139.541 224.664 139.541C225.817 139.541 222.597 138.515 221.614 137.914C220.249 137.08 218.403 135.531 217.446 134.254C215.977 132.296 214.339 131.415 213.175 129.475C212.482 128.319 211.036 136.347 210.43 137.711C207.76 143.719 216.36 132.127 216.124 134.254C215.633 138.67 206.185 145.624 215.717 140.659C219.654 138.609 210.644 140.017 209.413 140.456C207.287 141.216 211.56 139.53 212.464 138.626" stroke="#333333" stroke-width="3" stroke-linecap="round"/>
<path d="M315.865 55.3558C316.91 51.7304 318.61 40.6022 318.61 44.375" stroke="#333333" stroke-width="3" stroke-linecap="round"/>
<path d="M322.271 50.7803C324.566 44.2756 328.545 39.0816 332.336 33.3942" stroke="#333333" stroke-width="3" stroke-linecap="round"/>
<path d="M316.78 56.2706C319.834 56.7497 322.838 57.1857 325.931 57.1857" stroke="#333333" stroke-width="3" stroke-linecap="round"/>
<path d="M323.186 51.6954C328.017 50.2384 332.522 48.6437 336.912 46.205" stroke="#333333" stroke-width="3" stroke-linecap="round"/>
<path d="M336.912 37.9695C340.504 34.8036 343.912 31.5823 346.977 27.9038" stroke="#333333" stroke-width="3" stroke-linecap="round"/>
<path d="M341.487 37.0545C344.674 36.6739 349.016 36.9157 351.553 35.2244" stroke="#333333" stroke-width="3" stroke-linecap="round"/>
<path d="M2.91506 113.919C7.57654 141.28 19.4923 166.371 28.3842 192.513C34.9379 211.781 41.2033 232 50.1423 250.314C56.1248 262.571 63.3767 274.182 69.511 286.357C74.4004 296.062 78.9529 305.937 85.5754 314.622C88.9956 319.108 91.9704 324.339 97.6237 326.162C109.626 330.034 122.901 327.817 134.938 325.095C197.503 310.943 259.001 291.28 320.237 272.326C338.775 266.588 355.545 260.171 372.955 251.788C378.611 249.065 388.308 248.08 392.171 242.434C393.469 240.537 393.79 237.711 394.103 235.521C395.292 227.194 395.618 218.602 395.272 210.204C394.721 196.844 394.331 181.758 389.273 169.23C385.844 160.735 380.045 154.382 375.751 146.455C368.676 133.393 362.607 118.729 358.11 104.565C355.286 95.6681 352.869 86.1017 348.299 77.8762C344.604 71.2258 339.107 65.9536 334.624 59.8801C320.514 40.7637 306.006 21.889 290.294 4.21396C287.241 0.778389 286.778 1.62093 282.923 4.824C271.236 14.5362 255.569 15.9644 241.339 19.4649C235.764 20.8363 230.705 23.0949 225.376 25.1586C218.472 27.8324 211.265 29.2803 204.279 31.6657C187.018 37.5596 169.261 42.139 152.07 48.1876C142.394 51.5921 131.595 56.2175 122.584 61.2526C114.522 65.7581 107.568 72.0386 99.403 76.5036C94.6798 79.0866 89.4773 80.535 84.457 82.4007C79.2114 84.3501 74.9743 87.4125 70.1211 90.077C63.667 93.6204 56.8924 96.4375 50.0914 99.2276C42.4863 102.348 34.2484 101.641 26.5032 103.854C18.6096 106.109 10.2187 113.919 2 113.919" stroke="#333333" stroke-width="3" stroke-linecap="round"/>
</svg>
